{
  "accessors": [
    {
      "bufferView": 0,
      "componentType": 5126,
      "type": "VEC3",
      "count": 422,
      "min": [-1.30982, 0.721754, -1.30982],
      "max": [1.30982, 2.70325, 1.30982]
    },
    {
      "bufferView": 1,
      "componentType": 5126,
      "type": "VEC3",
      "count": 422
    },
    {
      "bufferView": 2,
      "componentType": 5126,
      "type": "VEC2",
      "count": 422
    },
    {
      "bufferView": 3,
      "componentType": 5123,
      "type": "VEC4",
      "count": 422
    },
    {
      "bufferView": 4,
      "componentType": 5126,
      "type": "VEC4",
      "count": 422
    },
    {
      "bufferView": 5,
      "componentType": 5123,
      "type": "SCALAR",
      "count": 1896
    },
    {
      "bufferView": 6,
      "componentType": 5126,
      "type": "VEC3",
      "count": 48,
      "min": [-1.01807, 1.86929, 0.908021],
      "max": [1.01287, 2.098, 1.17618]
    },
    {
      "bufferView": 7,
      "componentType": 5126,
      "type": "VEC3",
      "count": 48
    },
    {
      "bufferView": 8,
      "componentType": 5126,
      "type": "VEC2",
      "count": 48
    },
    {
      "bufferView": 9,
      "componentType": 5123,
      "type": "VEC4",
      "count": 48
    },
    {
      "bufferView": 10,
      "componentType": 5126,
      "type": "VEC4",
      "count": 48
    },
    {
      "bufferView": 11,
      "componentType": 5123,
      "type": "SCALAR",
      "count": 72
    },
    {
      "bufferView": 12,
      "componentType": 5126,
      "type": "VEC3",
      "count": 48,
      "min": [-0.353508, 1.44381, 1.10817],
      "max": [0.348984, 1.86621, 1.36044]
    },
    {
      "bufferView": 13,
      "componentType": 5126,
      "type": "VEC3",
      "count": 48
    },
    {
      "bufferView": 14,
      "componentType": 5126,
      "type": "VEC2",
      "count": 48
    },
    {
      "bufferView": 15,
      "componentType": 5123,
      "type": "VEC4",
      "count": 48
    },
    {
      "bufferView": 16,
      "componentType": 5126,
      "type": "VEC4",
      "count": 48
    },
    {
      "bufferView": 17,
      "componentType": 5123,
      "type": "SCALAR",
      "count": 72
    },
    {
      "bufferView": 18,
      "componentType": 5126,
      "type": "VEC3",
      "count": 498,
      "min": [-1.71806, 1.05476, -2.80749],
      "max": [1.71423, 3.60032, 0.869244]
    },
    {
      "bufferView": 19,
      "componentType": 5126,
      "type": "VEC3",
      "count": 498
    },
    {
      "bufferView": 20,
      "componentType": 5126,
      "type": "VEC2",
      "count": 498
    },
    {
      "bufferView": 21,
      "componentType": 5123,
      "type": "VEC4",
      "count": 498
    },
    {
      "bufferView": 22,
      "componentType": 5126,
      "type": "VEC4",
      "count": 498
    },
    {
      "bufferView": 23,
      "componentType": 5123,
      "type": "SCALAR",
      "count": 1344
    },
    {
      "bufferView": 24,
      "componentType": 5126,
      "type": "VEC3",
      "count": 4524,
      "min": [-1.20942, 0.0361331, -1.1001],
      "max": [1.21411, 0.648983, 0.846836]
    },
    {
      "bufferView": 25,
      "componentType": 5126,
      "type": "VEC3",
      "count": 4524
    },
    {
      "bufferView": 26,
      "componentType": 5126,
      "type": "VEC2",
      "count": 4524
    },
    {
      "bufferView": 27,
      "componentType": 5123,
      "type": "VEC4",
      "count": 4524
    },
    {
      "bufferView": 28,
      "componentType": 5126,
      "type": "VEC4",
      "count": 4524
    },
    {
      "bufferView": 29,
      "componentType": 5123,
      "type": "SCALAR",
      "count": 23040
    },
    {
      "bufferView": 30,
      "componentType": 5126,
      "type": "VEC3",
      "count": 1136,
      "min": [-1.89801, 0.828382, -0.640153],
      "max": [1.89591, 1.5362, 0.785466]
    },
    {
      "bufferView": 31,
      "componentType": 5126,
      "type": "VEC3",
      "count": 1136
    },
    {
      "bufferView": 32,
      "componentType": 5126,
      "type": "VEC2",
      "count": 1136
    },
    {
      "bufferView": 33,
      "componentType": 5123,
      "type": "VEC4",
      "count": 1136
    },
    {
      "bufferView": 34,
      "componentType": 5126,
      "type": "VEC4",
      "count": 1136
    },
    {
      "bufferView": 35,
      "componentType": 5123,
      "type": "SCALAR",
      "count": 5568
    },
    {
      "bufferView": 36,
      "componentType": 5126,
      "type": "MAT4",
      "count": 13
    }
  ],
  "asset": {
    "generator": "Khronos glTF Blender I/O v1.1.46",
    "version": "2.0"
  },
  "bufferViews": [
    {
      "buffer": 0,
      "byteLength": 5064
    },
    {
      "buffer": 0,
      "byteLength": 5064,
      "byteOffset": 5064
    },
    {
      "buffer": 0,
      "byteLength": 3376,
      "byteOffset": 10128
    },
    {
      "buffer": 0,
      "byteLength": 3376,
      "byteOffset": 13504
    },
    {
      "buffer": 0,
      "byteLength": 6752,
      "byteOffset": 16880
    },
    {
      "buffer": 0,
      "byteLength": 3792,
      "byteOffset": 23632
    },
    {
      "buffer": 0,
      "byteLength": 576,
      "byteOffset": 27424
    },
    {
      "buffer": 0,
      "byteLength": 576,
      "byteOffset": 28000
    },
    {
      "buffer": 0,
      "byteLength": 384,
      "byteOffset": 28576
    },
    {
      "buffer": 0,
      "byteLength": 384,
      "byteOffset": 28960
    },
    {
      "buffer": 0,
      "byteLength": 768,
      "byteOffset": 29344
    },
    {
      "buffer": 0,
      "byteLength": 144,
      "byteOffset": 30112
    },
    {
      "buffer": 0,
      "byteLength": 576,
      "byteOffset": 30256
    },
    {
      "buffer": 0,
      "byteLength": 576,
      "byteOffset": 30832
    },
    {
      "buffer": 0,
      "byteLength": 384,
      "byteOffset": 31408
    },
    {
      "buffer": 0,
      "byteLength": 384,
      "byteOffset": 31792
    },
    {
      "buffer": 0,
      "byteLength": 768,
      "byteOffset": 32176
    },
    {
      "buffer": 0,
      "byteLength": 144,
      "byteOffset": 32944
    },
    {
      "buffer": 0,
      "byteLength": 5976,
      "byteOffset": 33088
    },
    {
      "buffer": 0,
      "byteLength": 5976,
      "byteOffset": 39064
    },
    {
      "buffer": 0,
      "byteLength": 3984,
      "byteOffset": 45040
    },
    {
      "buffer": 0,
      "byteLength": 3984,
      "byteOffset": 49024
    },
    {
      "buffer": 0,
      "byteLength": 7968,
      "byteOffset": 53008
    },
    {
      "buffer": 0,
      "byteLength": 2688,
      "byteOffset": 60976
    },
    {
      "buffer": 0,
      "byteLength": 54288,
      "byteOffset": 63664
    },
    {
      "buffer": 0,
      "byteLength": 54288,
      "byteOffset": 117952
    },
    {
      "buffer": 0,
      "byteLength": 36192,
      "byteOffset": 172240
    },
    {
      "buffer": 0,
      "byteLength": 36192,
      "byteOffset": 208432
    },
    {
      "buffer": 0,
      "byteLength": 72384,
      "byteOffset": 244624
    },
    {
      "buffer": 0,
      "byteLength": 46080,
      "byteOffset": 317008
    },
    {
      "buffer": 0,
      "byteLength": 13632,
      "byteOffset": 363088
    },
    {
      "buffer": 0,
      "byteLength": 13632,
      "byteOffset": 376720
    },
    {
      "buffer": 0,
      "byteLength": 9088,
      "byteOffset": 390352
    },
    {
      "buffer": 0,
      "byteLength": 9088,
      "byteOffset": 399440
    },
    {
      "buffer": 0,
      "byteLength": 18176,
      "byteOffset": 408528
    },
    {
      "buffer": 0,
      "byteLength": 11136,
      "byteOffset": 426704
    },
    {
      "buffer": 0,
      "byteLength": 832,
      "byteOffset": 437840
    }
  ],
  "buffers": [
    {
      "uri": "riggedMesh.bin",
      "byteLength": 438672
    }
  ],
  "meshes": [
    {
      "name": "body_Sphere.004",
      "primitives": [
        {
          "indices": 5,
          "material": 0,
          "attributes": {
            "POSITION": 0,
            "NORMAL": 1,
            "TEXCOORD_0": 2,
            "JOINTS_0": 3,
            "WEIGHTS_0": 4
          }
        },
        {
          "indices": 11,
          "material": 1,
          "attributes": {
            "POSITION": 6,
            "NORMAL": 7,
            "TEXCOORD_0": 8,
            "JOINTS_0": 9,
            "WEIGHTS_0": 10
          }
        },
        {
          "indices": 17,
          "material": 2,
          "attributes": {
            "POSITION": 12,
            "NORMAL": 13,
            "TEXCOORD_0": 14,
            "JOINTS_0": 15,
            "WEIGHTS_0": 16
          }
        },
        {
          "indices": 23,
          "material": 3,
          "attributes": {
            "POSITION": 18,
            "NORMAL": 19,
            "TEXCOORD_0": 20,
            "JOINTS_0": 21,
            "WEIGHTS_0": 22
          }
        },
        {
          "indices": 29,
          "material": 4,
          "attributes": {
            "POSITION": 24,
            "NORMAL": 25,
            "TEXCOORD_0": 26,
            "JOINTS_0": 27,
            "WEIGHTS_0": 28
          }
        },
        {
          "indices": 35,
          "material": 5,
          "attributes": {
            "POSITION": 30,
            "NORMAL": 31,
            "TEXCOORD_0": 32,
            "JOINTS_0": 33,
            "WEIGHTS_0": 34
          }
        }
      ]
    }
  ],
  "materials": [
    {
      "name": "Material.001",
      "doubleSided": true,
      "pbrMetallicRoughness": {
        "metallicFactor": 0.211009,
        "roughnessFactor": 0.353211,
        "baseColorFactor": [0.722373, 0.722373, 0.722373, 1]
      }
    },
    {
      "name": "Material.009",
      "doubleSided": true,
      "pbrMetallicRoughness": {
        "metallicFactor": 0,
        "roughnessFactor": 0.5,
        "baseColorFactor": [0, 0, 0, 1]
      }
    },
    {
      "name": "Material.010",
      "doubleSided": true,
      "pbrMetallicRoughness": {
        "metallicFactor": 0,
        "roughnessFactor": 0.5,
        "baseColorFactor": [0, 0, 0, 1]
      }
    },
    {
      "name": "Material.012",
      "doubleSided": true,
      "pbrMetallicRoughness": {
        "metallicFactor": 0.449541,
        "roughnessFactor": 0.37156,
        "baseColorFactor": [0.208834, 0.8, 0.790787, 1]
      }
    },
    {
      "name": "Material.011",
      "doubleSided": true,
      "pbrMetallicRoughness": {
        "metallicFactor": 0.146789,
        "roughnessFactor": 0.243119,
        "baseColorFactor": [0.893976, 0.893976, 0.893976, 1]
      }
    },
    {
      "name": "Material.004",
      "doubleSided": true,
      "pbrMetallicRoughness": {
        "metallicFactor": 0.100917,
        "roughnessFactor": 0.298165,
        "baseColorFactor": [0.940237, 0.940237, 0.940237, 1]
      }
    }
  ],
  "nodes": [
    {
      "name": "cannon.L",
      "translation": [0.471993, 0.0383761, -0.149284],
      "rotation": [0.590796, -0.0513375, 0.0322691, 0.804539],
      "scale": [1, 1, 1]
    },
    {
      "name": "ear3.L",
      "translation": [3.72529e-09, 0.380796, 7.45058e-09],
      "rotation": [-0.276832, 0.00862305, -0.0927537, 0.956392]
    },
    {
      "children": [ 1 ],
      "name": "ear2.L",
      "translation": [8.84756e-09, 0.297896, 5.96046e-08],
      "rotation": [-0.197847, 0.00960064, -0.0401177, 0.979365]
    },
    {
      "children": [ 2 ],
      "name": "ear.L",
      "translation": [0.203257, 0.595487, 0.134902],
      "rotation": [-0.458521, 0.158209, -0.194421, 0.852601],
      "scale": [1, 1, 1]
    },
    {
      "name": "cannon.R.001",
      "translation": [-0.472342, 0.0593205, -0.15651],
      "rotation": [0.588259, 0.0310319, -0.0446471, 0.806842]
    },
    {
      "name": "ear3.R.001",
      "translation": [-1.86265e-08, 0.380796, 3.69619e-08],
      "rotation": [-0.178206, -0.00430668, -0.197361, 0.963988],
      "scale": [1, 1, 1]
    },
    {
      "children": [ 5 ],
      "name": "ear2.R.001",
      "translation": [5.96046e-08, 0.297896, 3.35276e-08],
      "rotation": [-0.138296, 0.0579608, -0.14706, 0.977695]
    },
    {
      "children": [ 6 ],
      "name": "ear.R.001",
      "translation": [-0.203606, 0.595487, 0.134902],
      "rotation": [-0.496728, 0.248046, -0.036093, 0.830922],
      "scale": [1, 1, 1]
    },
    {
      "name": "front-leg.L",
      "translation": [0.261725, -0.0162468, 0.213355],
      "rotation": [0.0365462, -0.312038, -0.923771, 0.218959],
      "scale": [1, 1, 1]
    },
    {
      "name": "back-leg.L",
      "translation": [0.288908, -0.0694123, -0.274678],
      "rotation": [-0.120021, 0.0994602, -0.979354, 0.128719],
      "scale": [1, 1, 1]
    },
    {
      "name": "front-leg.R.001",
      "translation": [-0.254971, -0.0166499, 0.214141],
      "rotation": [-0.168413, 0.352697, 0.909025, 0.144623],
      "scale": [1, 1, 1]
    },
    {
      "name": "back-leg.R.001",
      "translation": [-0.283252, -0.0693329, -0.274567],
      "rotation": [0.146591, -0.130294, 0.975731, 0.0973872],
      "scale": [1, 1, 1]
    },
    {
      "children": [ 0, 3, 4, 7, 8, 9, 10, 11 ],
      "name": "body",
      "translation": [-1.45821e-17, 0.200599, 3.23788e-33],
      "rotation": [0.123865, 0.0714894, -0.00894737, 0.98968],
      "scale": [1, 1, 1]
    },
    {
      "mesh": 0,
      "name": "body_Sphere.004",
      "skin": 0
    },
    {
      "children": [ 13, 12 ],
      "name": "Armature",
      "scale": [3.30823, 3.30823, 3.30823]
    }
  ],
  "scene": 0,
  "scenes": [
    {
      "name": "Scene",
      "nodes": [ 14 ]
    }
  ],
  "skins": [
    {
      "inverseBindMatrices": 36,
      "joints": [ 12, 0, 3, 2, 1, 4, 7, 6, 5, 8, 9, 10, 11 ],
      "name": "Armature",
      "extras": [ 1, 9, 8, 12, 13, 7, 6, 10, 11, 5, 4, 3, 2 ]
    }
  ]
}
