{
    "asset" : {
        "generator" : "Khronos glTF Blender I/O v1.1.46",
        "version" : "2.0"
    },
    "scene" : 0,
    "scenes" : [
        {
            "name" : "Scene",
            "nodes" : [
                2
            ]
        }
    ],
    "nodes" : [
        {
            "name" : "Cat",
            "translation" : [
                0,
                2.7955775260925293,
                1.2422999143600464
            ]
        },
        {
            "children" : [
                0
            ],
            "name" : "All",
            "translation" : [
                0,
                0.019716858863830566,
                0
            ]
        },
        {
            "children" : [
                1
            ],
            "name" : "Armature",
            "scale" : [
                2.3800175189971924,
                2.3800175189971924,
                2.3800175189971924
            ]
        }
    ],
    "animations" : [
        {
            "channels" : [
                {
                    "sampler" : 0,
                    "target" : {
                        "node" : 1,
                        "path" : "translation"
                    }
                },
                {
                    "sampler" : 1,
                    "target" : {
                        "node" : 1,
                        "path" : "rotation"
                    }
                },
                {
                    "sampler" : 2,
                    "target" : {
                        "node" : 1,
                        "path" : "scale"
                    }
                },
                {
                    "sampler" : 3,
                    "target" : {
                        "node" : 0,
                        "path" : "translation"
                    }
                },
                {
                    "sampler" : 4,
                    "target" : {
                        "node" : 0,
                        "path" : "rotation"
                    }
                },
                {
                    "sampler" : 5,
                    "target" : {
                        "node" : 0,
                        "path" : "scale"
                    }
                }
            ],
            "name" : "Idle",
            "samplers" : [
                {
                    "input" : 0,
                    "interpolation" : "LINEAR",
                    "output" : 1
                },
                {
                    "input" : 0,
                    "interpolation" : "LINEAR",
                    "output" : 2
                },
                {
                    "input" : 0,
                    "interpolation" : "LINEAR",
                    "output" : 3
                },
                {
                    "input" : 0,
                    "interpolation" : "LINEAR",
                    "output" : 4
                },
                {
                    "input" : 0,
                    "interpolation" : "LINEAR",
                    "output" : 5
                },
                {
                    "input" : 0,
                    "interpolation" : "LINEAR",
                    "output" : 6
                }
            ]
        }
    ],
    "accessors" : [
        {
            "bufferView" : 0,
            "componentType" : 5126,
            "count" : 60,
            "max" : [
                2.5
            ],
            "min" : [
                0.041666666666666664
            ],
            "type" : "SCALAR"
        },
        {
            "bufferView" : 1,
            "componentType" : 5126,
            "count" : 60,
            "type" : "VEC3"
        },
        {
            "bufferView" : 2,
            "componentType" : 5126,
            "count" : 60,
            "type" : "VEC4"
        },
        {
            "bufferView" : 3,
            "componentType" : 5126,
            "count" : 60,
            "type" : "VEC3"
        },
        {
            "bufferView" : 4,
            "componentType" : 5126,
            "count" : 60,
            "type" : "VEC3"
        },
        {
            "bufferView" : 5,
            "componentType" : 5126,
            "count" : 60,
            "type" : "VEC4"
        },
        {
            "bufferView" : 6,
            "componentType" : 5126,
            "count" : 60,
            "type" : "VEC3"
        }
    ],
    "bufferViews" : [
        {
            "buffer" : 0,
            "byteLength" : 240,
            "byteOffset" : 0
        },
        {
            "buffer" : 0,
            "byteLength" : 720,
            "byteOffset" : 240
        },
        {
            "buffer" : 0,
            "byteLength" : 960,
            "byteOffset" : 960
        },
        {
            "buffer" : 0,
            "byteLength" : 720,
            "byteOffset" : 1920
        },
        {
            "buffer" : 0,
            "byteLength" : 720,
            "byteOffset" : 2640
        },
        {
            "buffer" : 0,
            "byteLength" : 960,
            "byteOffset" : 3360
        },
        {
            "buffer" : 0,
            "byteLength" : 720,
            "byteOffset" : 4320
        }
    ],
    "buffers" : [
        {
            "byteLength" : 5040,
            "uri" : "Idle.bin"
        }
    ]
}
