{
    "asset" : {
        "generator" : "Khronos glTF Blender I/O v1.1.46",
        "version" : "2.0"
    },
    "scene" : 0,
    "scenes" : [
        {
            "name" : "Scene",
            "nodes" : [
                1
            ]
        }
    ],
    "nodes" : [
        {
            "name" : "Bone",
            "rotation" : [
                0,
                2.3149961947410702e-08,
                -0.17229945957660675,
                0.9850447177886963
            ]
        },
        {
            "children" : [
                0
            ],
            "name" : "Armature"
        }
    ],
    "animations" : [
        {
            "channels" : [
                {
                    "sampler" : 0,
                    "target" : {
                        "node" : 0,
                        "path" : "translation"
                    }
                },
                {
                    "sampler" : 1,
                    "target" : {
                        "node" : 0,
                        "path" : "rotation"
                    }
                },
                {
                    "sampler" : 2,
                    "target" : {
                        "node" : 0,
                        "path" : "scale"
                    }
                }
            ],
            "name" : "Idle",
            "samplers" : [
                {
                    "input" : 0,
                    "interpolation" : "LINEAR",
                    "output" : 1
                },
                {
                    "input" : 0,
                    "interpolation" : "LINEAR",
                    "output" : 2
                },
                {
                    "input" : 0,
                    "interpolation" : "LINEAR",
                    "output" : 3
                }
            ]
        }
    ],
    "accessors" : [
        {
            "bufferView" : 0,
            "componentType" : 5126,
            "count" : 25,
            "max" : [
                1.0416666666666667
            ],
            "min" : [
                0.041666666666666664
            ],
            "type" : "SCALAR"
        },
        {
            "bufferView" : 1,
            "componentType" : 5126,
            "count" : 25,
            "type" : "VEC3"
        },
        {
            "bufferView" : 2,
            "componentType" : 5126,
            "count" : 25,
            "type" : "VEC4"
        },
        {
            "bufferView" : 3,
            "componentType" : 5126,
            "count" : 25,
            "type" : "VEC3"
        }
    ],
    "bufferViews" : [
        {
            "buffer" : 0,
            "byteLength" : 100,
            "byteOffset" : 0
        },
        {
            "buffer" : 0,
            "byteLength" : 300,
            "byteOffset" : 100
        },
        {
            "buffer" : 0,
            "byteLength" : 400,
            "byteOffset" : 400
        },
        {
            "buffer" : 0,
            "byteLength" : 300,
            "byteOffset" : 800
        }
    ],
    "buffers" : [
        {
            "byteLength" : 1100,
            "uri" : "Idle.bin"
        }
    ]
}
