{
    "asset" : {
        "generator" : "Khronos glTF Blender I/O v1.1.46",
        "version" : "2.0"
    },
    "scene" : 0,
    "scenes" : [
        {
            "name" : "Scene",
            "nodes" : [
                10
            ]
        }
    ],
    "nodes" : [
        {
            "name" : "claw3.R",
            "rotation" : [
                0.38108912110328674,
                -4.622784999241958e-08,
                -1.1794701748613079e-07,
                0.9245383143424988
            ],
            "translation" : [
                5.628297827797724e-10,
                0.25005754828453064,
                4.6820282761927956e-08
            ]
        },
        {
            "children" : [
                0
            ],
            "name" : "claw2.R",
            "rotation" : [
                0.7121055722236633,
                -9.748021767563841e-08,
                -8.222002634283854e-08,
                0.7020724415779114
            ],
            "translation" : [
                -1.9570789433487334e-10,
                0.42848461866378784,
                1.3512821794847696e-07
            ]
        },
        {
            "children" : [
                1
            ],
            "name" : "claw.R",
            "rotation" : [
                -0.4709256589412689,
                5.416600146190831e-08,
                -1.1260447507766003e-07,
                0.8821728825569153
            ],
            "scale" : [
                1,
                0.9999999403953552,
                1
            ],
            "translation" : [
                -2.0222920560364344e-10,
                0.7064294815063477,
                -5.625050425450695e-11
            ]
        },
        {
            "name" : "claw3.L",
            "rotation" : [
                -0.4548158645629883,
                3.546065130421994e-08,
                -2.2505300023567543e-07,
                0.8905855417251587
            ],
            "scale" : [
                1,
                0.9999998807907104,
                0.9999999403953552
            ],
            "translation" : [
                -3.562092842912534e-10,
                0.2686101198196411,
                6.994587664621577e-08
            ]
        },
        {
            "children" : [
                3
            ],
            "name" : "claw2.L",
            "rotation" : [
                -0.6965467929840088,
                -1.0042240816687809e-08,
                -3.271733248766395e-07,
                0.7175113558769226
            ],
            "scale" : [
                1,
                0.9999998211860657,
                0.9999998807907104
            ],
            "translation" : [
                3.8604497376582003e-10,
                0.4159810543060303,
                -8.146187013835515e-08
            ]
        },
        {
            "children" : [
                4
            ],
            "name" : "claw.L",
            "rotation" : [
                0.4847685992717743,
                1.4512242785258422e-07,
                2.1504723335397102e-08,
                0.8746424317359924
            ],
            "translation" : [
                -2.0222920560364344e-10,
                0.7064294815063477,
                -5.625050425450695e-11
            ]
        },
        {
            "children" : [
                2,
                5
            ],
            "name" : "claw-rod2",
            "rotation" : [
                -4.311489387731626e-09,
                0.7071068286895752,
                3.4457016795386153e-07,
                0.7071068286895752
            ],
            "translation" : [
                -0.0016311367508023977,
                0.7407017946243286,
                0.011722010560333729
            ]
        },
        {
            "children" : [
                6
            ],
            "name" : "claw-rod1",
            "rotation" : [
                -5.8827460236443585e-08,
                4.881873039153106e-08,
                -7.039056981739122e-08,
                1
            ],
            "translation" : [
                3.038934437427088e-08,
                -0.09326422214508057,
                -2.5061751784960506e-08
            ]
        },
        {
            "name" : "single-plushie",
            "rotation" : [
                1,
                2.8496100412667147e-07,
                1.657516861541808e-07,
                -1.3084485317449435e-07
            ],
            "translation" : [
                -1.5554945468902588,
                2.427659273147583,
                -0.9334628582000732
            ]
        },
        {
            "name" : "all",
            "rotation" : [
                1,
                1.5704250699855038e-07,
                1.5704250699855038e-07,
                -1.2971291596386436e-07
            ],
            "translation" : [
                -0.6777388453483582,
                5.347221374511719,
                -0.6993935108184814
            ]
        },
        {
            "children" : [
                7,
                8,
                9
            ],
            "name" : "Armature",
            "rotation" : [
                0,
                0,
                -1,
                -1.6292068494294654e-07
            ],
            "scale" : [
                0.6490459442138672,
                0.6490459442138672,
                0.6490459442138672
            ],
            "translation" : [
                -0.4398825764656067,
                3.7410857677459717,
                0.4539395570755005
            ]
        }
    ],
    "animations" : [
        {
            "channels" : [
                {
                    "sampler" : 0,
                    "target" : {
                        "node" : 7,
                        "path" : "translation"
                    }
                },
                {
                    "sampler" : 1,
                    "target" : {
                        "node" : 7,
                        "path" : "rotation"
                    }
                },
                {
                    "sampler" : 2,
                    "target" : {
                        "node" : 7,
                        "path" : "scale"
                    }
                },
                {
                    "sampler" : 3,
                    "target" : {
                        "node" : 6,
                        "path" : "translation"
                    }
                },
                {
                    "sampler" : 4,
                    "target" : {
                        "node" : 6,
                        "path" : "rotation"
                    }
                },
                {
                    "sampler" : 5,
                    "target" : {
                        "node" : 6,
                        "path" : "scale"
                    }
                },
                {
                    "sampler" : 6,
                    "target" : {
                        "node" : 2,
                        "path" : "translation"
                    }
                },
                {
                    "sampler" : 7,
                    "target" : {
                        "node" : 2,
                        "path" : "rotation"
                    }
                },
                {
                    "sampler" : 8,
                    "target" : {
                        "node" : 2,
                        "path" : "scale"
                    }
                },
                {
                    "sampler" : 9,
                    "target" : {
                        "node" : 1,
                        "path" : "translation"
                    }
                },
                {
                    "sampler" : 10,
                    "target" : {
                        "node" : 1,
                        "path" : "rotation"
                    }
                },
                {
                    "sampler" : 11,
                    "target" : {
                        "node" : 1,
                        "path" : "scale"
                    }
                },
                {
                    "sampler" : 12,
                    "target" : {
                        "node" : 0,
                        "path" : "translation"
                    }
                },
                {
                    "sampler" : 13,
                    "target" : {
                        "node" : 0,
                        "path" : "rotation"
                    }
                },
                {
                    "sampler" : 14,
                    "target" : {
                        "node" : 0,
                        "path" : "scale"
                    }
                },
                {
                    "sampler" : 15,
                    "target" : {
                        "node" : 5,
                        "path" : "translation"
                    }
                },
                {
                    "sampler" : 16,
                    "target" : {
                        "node" : 5,
                        "path" : "rotation"
                    }
                },
                {
                    "sampler" : 17,
                    "target" : {
                        "node" : 5,
                        "path" : "scale"
                    }
                },
                {
                    "sampler" : 18,
                    "target" : {
                        "node" : 4,
                        "path" : "translation"
                    }
                },
                {
                    "sampler" : 19,
                    "target" : {
                        "node" : 4,
                        "path" : "rotation"
                    }
                },
                {
                    "sampler" : 20,
                    "target" : {
                        "node" : 4,
                        "path" : "scale"
                    }
                },
                {
                    "sampler" : 21,
                    "target" : {
                        "node" : 3,
                        "path" : "translation"
                    }
                },
                {
                    "sampler" : 22,
                    "target" : {
                        "node" : 3,
                        "path" : "rotation"
                    }
                },
                {
                    "sampler" : 23,
                    "target" : {
                        "node" : 3,
                        "path" : "scale"
                    }
                },
                {
                    "sampler" : 24,
                    "target" : {
                        "node" : 8,
                        "path" : "translation"
                    }
                },
                {
                    "sampler" : 25,
                    "target" : {
                        "node" : 8,
                        "path" : "rotation"
                    }
                },
                {
                    "sampler" : 26,
                    "target" : {
                        "node" : 8,
                        "path" : "scale"
                    }
                },
                {
                    "sampler" : 27,
                    "target" : {
                        "node" : 9,
                        "path" : "translation"
                    }
                },
                {
                    "sampler" : 28,
                    "target" : {
                        "node" : 9,
                        "path" : "rotation"
                    }
                },
                {
                    "sampler" : 29,
                    "target" : {
                        "node" : 9,
                        "path" : "scale"
                    }
                }
            ],
            "name" : "ClawAction",
            "samplers" : [
                {
                    "input" : 0,
                    "interpolation" : "LINEAR",
                    "output" : 1
                },
                {
                    "input" : 0,
                    "interpolation" : "LINEAR",
                    "output" : 2
                },
                {
                    "input" : 0,
                    "interpolation" : "LINEAR",
                    "output" : 3
                },
                {
                    "input" : 0,
                    "interpolation" : "LINEAR",
                    "output" : 4
                },
                {
                    "input" : 0,
                    "interpolation" : "LINEAR",
                    "output" : 5
                },
                {
                    "input" : 0,
                    "interpolation" : "LINEAR",
                    "output" : 6
                },
                {
                    "input" : 0,
                    "interpolation" : "LINEAR",
                    "output" : 7
                },
                {
                    "input" : 0,
                    "interpolation" : "LINEAR",
                    "output" : 8
                },
                {
                    "input" : 0,
                    "interpolation" : "LINEAR",
                    "output" : 9
                },
                {
                    "input" : 0,
                    "interpolation" : "LINEAR",
                    "output" : 10
                },
                {
                    "input" : 0,
                    "interpolation" : "LINEAR",
                    "output" : 11
                },
                {
                    "input" : 0,
                    "interpolation" : "LINEAR",
                    "output" : 12
                },
                {
                    "input" : 0,
                    "interpolation" : "LINEAR",
                    "output" : 13
                },
                {
                    "input" : 0,
                    "interpolation" : "LINEAR",
                    "output" : 14
                },
                {
                    "input" : 0,
                    "interpolation" : "LINEAR",
                    "output" : 15
                },
                {
                    "input" : 0,
                    "interpolation" : "LINEAR",
                    "output" : 16
                },
                {
                    "input" : 0,
                    "interpolation" : "LINEAR",
                    "output" : 17
                },
                {
                    "input" : 0,
                    "interpolation" : "LINEAR",
                    "output" : 18
                },
                {
                    "input" : 0,
                    "interpolation" : "LINEAR",
                    "output" : 19
                },
                {
                    "input" : 0,
                    "interpolation" : "LINEAR",
                    "output" : 20
                },
                {
                    "input" : 0,
                    "interpolation" : "LINEAR",
                    "output" : 21
                },
                {
                    "input" : 0,
                    "interpolation" : "LINEAR",
                    "output" : 22
                },
                {
                    "input" : 0,
                    "interpolation" : "LINEAR",
                    "output" : 23
                },
                {
                    "input" : 0,
                    "interpolation" : "LINEAR",
                    "output" : 24
                },
                {
                    "input" : 0,
                    "interpolation" : "LINEAR",
                    "output" : 25
                },
                {
                    "input" : 0,
                    "interpolation" : "LINEAR",
                    "output" : 26
                },
                {
                    "input" : 0,
                    "interpolation" : "LINEAR",
                    "output" : 27
                },
                {
                    "input" : 0,
                    "interpolation" : "LINEAR",
                    "output" : 28
                },
                {
                    "input" : 0,
                    "interpolation" : "LINEAR",
                    "output" : 29
                },
                {
                    "input" : 0,
                    "interpolation" : "LINEAR",
                    "output" : 30
                }
            ]
        }
    ],
    "accessors" : [
        {
            "bufferView" : 0,
            "componentType" : 5126,
            "count" : 300,
            "max" : [
                12.5
            ],
            "min" : [
                0.041666666666666664
            ],
            "type" : "SCALAR"
        },
        {
            "bufferView" : 1,
            "componentType" : 5126,
            "count" : 300,
            "type" : "VEC3"
        },
        {
            "bufferView" : 2,
            "componentType" : 5126,
            "count" : 300,
            "type" : "VEC4"
        },
        {
            "bufferView" : 3,
            "componentType" : 5126,
            "count" : 300,
            "type" : "VEC3"
        },
        {
            "bufferView" : 4,
            "componentType" : 5126,
            "count" : 300,
            "type" : "VEC3"
        },
        {
            "bufferView" : 5,
            "componentType" : 5126,
            "count" : 300,
            "type" : "VEC4"
        },
        {
            "bufferView" : 6,
            "componentType" : 5126,
            "count" : 300,
            "type" : "VEC3"
        },
        {
            "bufferView" : 7,
            "componentType" : 5126,
            "count" : 300,
            "type" : "VEC3"
        },
        {
            "bufferView" : 8,
            "componentType" : 5126,
            "count" : 300,
            "type" : "VEC4"
        },
        {
            "bufferView" : 9,
            "componentType" : 5126,
            "count" : 300,
            "type" : "VEC3"
        },
        {
            "bufferView" : 10,
            "componentType" : 5126,
            "count" : 300,
            "type" : "VEC3"
        },
        {
            "bufferView" : 11,
            "componentType" : 5126,
            "count" : 300,
            "type" : "VEC4"
        },
        {
            "bufferView" : 12,
            "componentType" : 5126,
            "count" : 300,
            "type" : "VEC3"
        },
        {
            "bufferView" : 13,
            "componentType" : 5126,
            "count" : 300,
            "type" : "VEC3"
        },
        {
            "bufferView" : 14,
            "componentType" : 5126,
            "count" : 300,
            "type" : "VEC4"
        },
        {
            "bufferView" : 15,
            "componentType" : 5126,
            "count" : 300,
            "type" : "VEC3"
        },
        {
            "bufferView" : 16,
            "componentType" : 5126,
            "count" : 300,
            "type" : "VEC3"
        },
        {
            "bufferView" : 17,
            "componentType" : 5126,
            "count" : 300,
            "type" : "VEC4"
        },
        {
            "bufferView" : 18,
            "componentType" : 5126,
            "count" : 300,
            "type" : "VEC3"
        },
        {
            "bufferView" : 19,
            "componentType" : 5126,
            "count" : 300,
            "type" : "VEC3"
        },
        {
            "bufferView" : 20,
            "componentType" : 5126,
            "count" : 300,
            "type" : "VEC4"
        },
        {
            "bufferView" : 21,
            "componentType" : 5126,
            "count" : 300,
            "type" : "VEC3"
        },
        {
            "bufferView" : 22,
            "componentType" : 5126,
            "count" : 300,
            "type" : "VEC3"
        },
        {
            "bufferView" : 23,
            "componentType" : 5126,
            "count" : 300,
            "type" : "VEC4"
        },
        {
            "bufferView" : 24,
            "componentType" : 5126,
            "count" : 300,
            "type" : "VEC3"
        },
        {
            "bufferView" : 25,
            "componentType" : 5126,
            "count" : 300,
            "type" : "VEC3"
        },
        {
            "bufferView" : 26,
            "componentType" : 5126,
            "count" : 300,
            "type" : "VEC4"
        },
        {
            "bufferView" : 27,
            "componentType" : 5126,
            "count" : 300,
            "type" : "VEC3"
        },
        {
            "bufferView" : 28,
            "componentType" : 5126,
            "count" : 300,
            "type" : "VEC3"
        },
        {
            "bufferView" : 29,
            "componentType" : 5126,
            "count" : 300,
            "type" : "VEC4"
        },
        {
            "bufferView" : 30,
            "componentType" : 5126,
            "count" : 300,
            "type" : "VEC3"
        }
    ],
    "bufferViews" : [
        {
            "buffer" : 0,
            "byteLength" : 1200,
            "byteOffset" : 0
        },
        {
            "buffer" : 0,
            "byteLength" : 3600,
            "byteOffset" : 1200
        },
        {
            "buffer" : 0,
            "byteLength" : 4800,
            "byteOffset" : 4800
        },
        {
            "buffer" : 0,
            "byteLength" : 3600,
            "byteOffset" : 9600
        },
        {
            "buffer" : 0,
            "byteLength" : 3600,
            "byteOffset" : 13200
        },
        {
            "buffer" : 0,
            "byteLength" : 4800,
            "byteOffset" : 16800
        },
        {
            "buffer" : 0,
            "byteLength" : 3600,
            "byteOffset" : 21600
        },
        {
            "buffer" : 0,
            "byteLength" : 3600,
            "byteOffset" : 25200
        },
        {
            "buffer" : 0,
            "byteLength" : 4800,
            "byteOffset" : 28800
        },
        {
            "buffer" : 0,
            "byteLength" : 3600,
            "byteOffset" : 33600
        },
        {
            "buffer" : 0,
            "byteLength" : 3600,
            "byteOffset" : 37200
        },
        {
            "buffer" : 0,
            "byteLength" : 4800,
            "byteOffset" : 40800
        },
        {
            "buffer" : 0,
            "byteLength" : 3600,
            "byteOffset" : 45600
        },
        {
            "buffer" : 0,
            "byteLength" : 3600,
            "byteOffset" : 49200
        },
        {
            "buffer" : 0,
            "byteLength" : 4800,
            "byteOffset" : 52800
        },
        {
            "buffer" : 0,
            "byteLength" : 3600,
            "byteOffset" : 57600
        },
        {
            "buffer" : 0,
            "byteLength" : 3600,
            "byteOffset" : 61200
        },
        {
            "buffer" : 0,
            "byteLength" : 4800,
            "byteOffset" : 64800
        },
        {
            "buffer" : 0,
            "byteLength" : 3600,
            "byteOffset" : 69600
        },
        {
            "buffer" : 0,
            "byteLength" : 3600,
            "byteOffset" : 73200
        },
        {
            "buffer" : 0,
            "byteLength" : 4800,
            "byteOffset" : 76800
        },
        {
            "buffer" : 0,
            "byteLength" : 3600,
            "byteOffset" : 81600
        },
        {
            "buffer" : 0,
            "byteLength" : 3600,
            "byteOffset" : 85200
        },
        {
            "buffer" : 0,
            "byteLength" : 4800,
            "byteOffset" : 88800
        },
        {
            "buffer" : 0,
            "byteLength" : 3600,
            "byteOffset" : 93600
        },
        {
            "buffer" : 0,
            "byteLength" : 3600,
            "byteOffset" : 97200
        },
        {
            "buffer" : 0,
            "byteLength" : 4800,
            "byteOffset" : 100800
        },
        {
            "buffer" : 0,
            "byteLength" : 3600,
            "byteOffset" : 105600
        },
        {
            "buffer" : 0,
            "byteLength" : 3600,
            "byteOffset" : 109200
        },
        {
            "buffer" : 0,
            "byteLength" : 4800,
            "byteOffset" : 112800
        },
        {
            "buffer" : 0,
            "byteLength" : 3600,
            "byteOffset" : 117600
        }
    ],
    "buffers" : [
        {
            "byteLength" : 121200,
            "uri" : "ClawAction.bin"
        }
    ]
}
