{
    "asset" : {
        "generator" : "Khronos glTF Blender I/O v0.9.36",
        "version" : "2.0"
    },
    "scene" : 0,
    "scenes" : [
        {
            "name" : "Scene",
            "nodes" : [
                13
            ]
        }
    ],
    "nodes" : [
        {
            "mesh" : 0,
            "name" : "Cube"
        },
        {
            "name" : "Bone.009",
            "rotation" : [
                0.18240121006965637,
                -0.018861617892980576,
                0.03742069751024246,
                0.9823307991027832
            ],
            "translation" : [
                -3.169135721843787e-23,
                0.5372645258903503,
                -1.4901161193847656e-08
            ]
        },
        {
            "children" : [
                1
            ],
            "name" : "Bone.008",
            "rotation" : [
                0.2167252004146576,
                -0.0685192197561264,
                -0.028536753728985786,
                0.973406970500946
            ],
            "scale" : [
                1,
                0.9999999403953552,
                1
            ],
            "translation" : [
                1.5881867761018131e-22,
                0.5047723054885864,
                -2.9802322387695312e-08
            ]
        },
        {
            "children" : [
                2
            ],
            "name" : "Bone.007",
            "rotation" : [
                -0.04935074597597122,
                0.012539197690784931,
                0.01825096271932125,
                0.9985360503196716
            ],
            "scale" : [
                0.9999999403953552,
                1,
                1
            ],
            "translation" : [
                -7.605332650543334e-15,
                0.5052312612533569,
                0
            ]
        },
        {
            "children" : [
                3
            ],
            "name" : "Bone.006",
            "rotation" : [
                -0.10229981690645218,
                0.03220587223768234,
                0.029997238889336586,
                0.9937794804573059
            ],
            "scale" : [
                1,
                1.0000001192092896,
                1.0000001192092896
            ],
            "translation" : [
                7.548023089546378e-24,
                0.5316348671913147,
                0
            ]
        },
        {
            "children" : [
                4
            ],
            "name" : "Bone.005",
            "rotation" : [
                -0.03945676609873772,
                0.12171861529350281,
                0.07456998527050018,
                0.9889727234840393
            ],
            "translation" : [
                9.305781891221561e-24,
                0.6072360277175903,
                5.960464477539063e-08
            ]
        },
        {
            "children" : [
                5
            ],
            "name" : "Bone.004",
            "rotation" : [
                -0.061721235513687134,
                0.3157553970813751,
                0.13507455587387085,
                0.9371466636657715
            ],
            "scale" : [
                0.9999999403953552,
                1,
                0.9999998807907104
            ],
            "translation" : [
                -1.9852334701272664e-23,
                0.6109815239906311,
                1.4901161193847656e-08
            ]
        },
        {
            "children" : [
                6
            ],
            "name" : "Bone.003",
            "rotation" : [
                -0.023741964250802994,
                0.15054665505886078,
                0.16129454970359802,
                0.9750672578811646
            ],
            "translation" : [
                1.0339757656912846e-24,
                0.61931312084198,
                -2.9802322387695312e-08
            ]
        },
        {
            "children" : [
                7
            ],
            "name" : "Bone.002",
            "rotation" : [
                0.0727928876876831,
                0.1330236941576004,
                0.10245191305875778,
                0.9831121563911438
            ],
            "translation" : [
                1.5716431638507526e-23,
                0.5839191675186157,
                -2.9802322387695312e-08
            ]
        },
        {
            "children" : [
                8
            ],
            "name" : "Bone.001",
            "rotation" : [
                0.06757757812738419,
                0.16698484122753143,
                0.11918288469314575,
                0.9763937592506409
            ],
            "scale" : [
                0.9999999403953552,
                1,
                1
            ],
            "translation" : [
                1.5716431638507526e-23,
                0.6123977899551392,
                0
            ]
        },
        {
            "children" : [
                9
            ],
            "name" : "Bone",
            "rotation" : [
                -0.48210960626602173,
                -0.13878194987773895,
                -0.21887622773647308,
                0.8369008898735046
            ],
            "scale" : [
                0.9999999403953552,
                0.9999999403953552,
                1
            ],
            "translation" : [
                -2.6998592858579586e-17,
                -0.05291032791137695,
                -0.3711129426956177
            ]
        },
        {
            "name" : "Head",
            "rotation" : [
                -0.21614296734333038,
                -1.1639139074759441e-07,
                2.5766249578396128e-08,
                0.9763617515563965
            ],
            "scale" : [
                1,
                1.0000001192092896,
                1
            ],
            "translation" : [
                -2.6469779601696886e-23,
                1.9375998973846436,
                0
            ]
        },
        {
            "children" : [
                10,
                11
            ],
            "name" : "Root",
            "rotation" : [
                0.17917054891586304,
                -5.790775816361997e-17,
                -5.790775816361997e-17,
                0.9838181138038635
            ]
        },
        {
            "children" : [
                0,
                12
            ],
            "name" : "Armature"
        }
    ],
    "materials" : [
        {
            "doubleSided" : true,
            "name" : "Material",
            "pbrMetallicRoughness" : {
                "baseColorTexture" : {
                    "index" : 0,
                    "texCoord" : 0
                },
                "metallicFactor" : 0,
                "roughnessFactor" : 0.4000000059604645
            }
        }
    ],
    "meshes" : [
        {
            "name" : "Cube",
            "primitives" : [
                {
                    "attributes" : {
                        "POSITION" : 0,
                        "NORMAL" : 1,
                        "TEXCOORD_0" : 2
                    },
                    "indices" : 3,
                    "material" : 0
                }
            ]
        }
    ],
    "textures" : [
        {
            "source" : 0
        }
    ],
    "images" : [
        {
            "mimeType" : "image/png",
            "name" : "kyubei_tex",
            "uri" : "kyubei_tex.png"
        }
    ],
    "accessors" : [
        {
            "bufferView" : 0,
            "componentType" : 5126,
            "count" : 1353,
            "max" : [
                1.6493101119995117,
                3.736088275909424,
                1.44219970703125
            ],
            "min" : [
                -1.6493101119995117,
                -0.00018739700317382812,
                -6.577125072479248
            ],
            "type" : "VEC3"
        },
        {
            "bufferView" : 1,
            "componentType" : 5126,
            "count" : 1353,
            "type" : "VEC3"
        },
        {
            "bufferView" : 2,
            "componentType" : 5126,
            "count" : 1353,
            "type" : "VEC2"
        },
        {
            "bufferView" : 3,
            "componentType" : 5123,
            "count" : 6510,
            "type" : "SCALAR"
        }
    ],
    "bufferViews" : [
        {
            "buffer" : 0,
            "byteLength" : 16236,
            "byteOffset" : 0
        },
        {
            "buffer" : 0,
            "byteLength" : 16236,
            "byteOffset" : 16236
        },
        {
            "buffer" : 0,
            "byteLength" : 10824,
            "byteOffset" : 32472
        },
        {
            "buffer" : 0,
            "byteLength" : 13020,
            "byteOffset" : 43296
        }
    ],
    "buffers" : [
        {
            "byteLength" : 56316,
            "uri" : "kyubey.bin"
        }
    ]
}
