{
    "asset" : {
        "generator" : "Khronos glTF Blender I/O v0.9.36",
        "version" : "2.0"
    },
    "scene" : 0,
    "scenes" : [
        {
            "name" : "Scene",
            "nodes" : [
                0,
                1
            ]
        }
    ],
    "nodes" : [
        {
            "mesh" : 0,
            "name" : "Cube",
            "translation" : [
                0,
                1,
                0
            ]
        },
        {
            "mesh" : 1,
            "name" : "Torus",
            "translation" : [
                0,
                2.609999895095825,
                0
            ]
        }
    ],
    "materials" : [
        {
            "doubleSided" : true,
            "name" : "Material",
            "pbrMetallicRoughness" : {
                "baseColorTexture" : {
                    "index" : 0,
                    "texCoord" : 0
                },
                "metallicFactor" : 0.6842105388641357,
                "roughnessFactor" : 0.5
            }
        },
        {
            "doubleSided" : true,
            "name" : "Material.001",
            "pbrMetallicRoughness" : {
                "baseColorTexture" : {
                    "index" : 1,
                    "texCoord" : 0
                },
                "metallicFactor" : 0,
                "roughnessFactor" : 1
            }
        }
    ],
    "meshes" : [
        {
            "name" : "Cube",
            "primitives" : [
                {
                    "attributes" : {
                        "POSITION" : 0,
                        "NORMAL" : 1,
                        "TEXCOORD_0" : 2
                    },
                    "indices" : 3,
                    "material" : 0
                }
            ]
        },
        {
            "name" : "Torus",
            "primitives" : [
                {
                    "attributes" : {
                        "POSITION" : 4,
                        "NORMAL" : 5,
                        "TEXCOORD_0" : 6
                    },
                    "indices" : 7,
                    "material" : 1
                }
            ]
        }
    ],
    "textures" : [
        {
            "source" : 0
        },
        {
            "source" : 1
        }
    ],
    "images" : [
        {
            "mimeType" : "image/png",
            "name" : "WeirdBox",
            "uri" : "WeirdBox.png"
        },
        {
            "mimeType" : "image/png",
            "name" : "WeirdBox_halo",
            "uri" : "WeirdBox_halo.png"
        }
    ],
    "accessors" : [
        {
            "bufferView" : 0,
            "componentType" : 5126,
            "count" : 76,
            "max" : [
                1.1033579111099243,
                1.2222589254379272,
                1.1101468801498413
            ],
            "min" : [
                -1,
                -1,
                -1.1269843578338623
            ],
            "type" : "VEC3"
        },
        {
            "bufferView" : 1,
            "componentType" : 5126,
            "count" : 76,
            "type" : "VEC3"
        },
        {
            "bufferView" : 2,
            "componentType" : 5126,
            "count" : 76,
            "type" : "VEC2"
        },
        {
            "bufferView" : 3,
            "componentType" : 5123,
            "count" : 324,
            "type" : "SCALAR"
        },
        {
            "bufferView" : 4,
            "componentType" : 5126,
            "count" : 2304,
            "max" : [
                1.2274233102798462,
                0.2513570785522461,
                1.0800000429153442
            ],
            "min" : [
                -1.2012531757354736,
                -0.40191131830215454,
                -1.0749517679214478
            ],
            "type" : "VEC3"
        },
        {
            "bufferView" : 5,
            "componentType" : 5126,
            "count" : 2304,
            "type" : "VEC3"
        },
        {
            "bufferView" : 6,
            "componentType" : 5126,
            "count" : 2304,
            "type" : "VEC2"
        },
        {
            "bufferView" : 7,
            "componentType" : 5123,
            "count" : 3456,
            "type" : "SCALAR"
        }
    ],
    "bufferViews" : [
        {
            "buffer" : 0,
            "byteLength" : 912,
            "byteOffset" : 0
        },
        {
            "buffer" : 0,
            "byteLength" : 912,
            "byteOffset" : 912
        },
        {
            "buffer" : 0,
            "byteLength" : 608,
            "byteOffset" : 1824
        },
        {
            "buffer" : 0,
            "byteLength" : 648,
            "byteOffset" : 2432
        },
        {
            "buffer" : 0,
            "byteLength" : 27648,
            "byteOffset" : 3080
        },
        {
            "buffer" : 0,
            "byteLength" : 27648,
            "byteOffset" : 30728
        },
        {
            "buffer" : 0,
            "byteLength" : 18432,
            "byteOffset" : 58376
        },
        {
            "buffer" : 0,
            "byteLength" : 6912,
            "byteOffset" : 76808
        }
    ],
    "buffers" : [
        {
            "byteLength" : 83720,
            "uri" : "WeirdBox.bin"
        }
    ]
}
