{
    "asset" : {
        "generator" : "Khronos glTF Blender I/O v1.1.46",
        "version" : "2.0"
    },
    "scene" : 0,
    "scenes" : [
        {
            "name" : "Scene",
            "nodes" : [
                0
            ]
        }
    ],
    "nodes" : [
        {
            "mesh" : 0,
            "name" : "Male Base",
            "scale" : [
                1.0565943717956543,
                1.0565943717956543,
                1.0565943717956543
            ],
            "translation" : [
                0,
                -0.09935826063156128,
                0
            ]
        }
    ],
    "materials" : [
        {
            "doubleSided" : true,
            "emissiveFactor" : [
                0,
                0,
                0
            ],
            "name" : "Material.013",
            "pbrMetallicRoughness" : {
                "baseColorFactor" : [
                    0.30054378509521484,
                    0.13563336431980133,
                    0.061246056109666824,
                    1
                ],
                "metallicFactor" : 0,
                "roughnessFactor" : 1
            }
        },
        {
            "doubleSided" : true,
            "emissiveFactor" : [
                0,
                0,
                0
            ],
            "name" : "Material.006",
            "pbrMetallicRoughness" : {
                "baseColorFactor" : [
                    0.022084936499595642,
                    0.022084936499595642,
                    0.022084936499595642,
                    1
                ],
                "metallicFactor" : 0,
                "roughnessFactor" : 0.5
            }
        },
        {
            "doubleSided" : true,
            "emissiveFactor" : [
                0,
                0,
                0
            ],
            "name" : "Skin",
            "pbrMetallicRoughness" : {
                "baseColorFactor" : [
                    1,
                    0.590618908405304,
                    0.4072403311729431,
                    1
                ],
                "metallicFactor" : 0,
                "roughnessFactor" : 0.8119266033172607
            }
        },
        {
            "doubleSided" : true,
            "emissiveFactor" : [
                0,
                0,
                0
            ],
            "name" : "Eyes",
            "pbrMetallicRoughness" : {
                "baseColorFactor" : [
                    0.059071145951747894,
                    0.02240164391696453,
                    0.22153596580028534,
                    1
                ],
                "metallicFactor" : 0,
                "roughnessFactor" : 0.5
            }
        },
        {
            "doubleSided" : true,
            "emissiveFactor" : [
                0,
                0,
                0
            ],
            "name" : "Eye glare",
            "pbrMetallicRoughness" : {
                "baseColorFactor" : [
                    0.2550189197063446,
                    0.2744557857513428,
                    0.8000000715255737,
                    1
                ],
                "metallicFactor" : 0,
                "roughnessFactor" : 0.5
            }
        },
        {
            "doubleSided" : true,
            "emissiveFactor" : [
                0,
                0,
                0
            ],
            "name" : "Coat.001",
            "pbrMetallicRoughness" : {
                "baseColorFactor" : [
                    0.2697363793849945,
                    0.09587861597537994,
                    0.03661061450839043,
                    1
                ],
                "metallicFactor" : 0,
                "roughnessFactor" : 0.8302752375602722
            }
        },
        {
            "doubleSided" : true,
            "emissiveFactor" : [
                0,
                0,
                0
            ],
            "name" : "Pants",
            "pbrMetallicRoughness" : {
                "baseColorFactor" : [
                    0,
                    0,
                    0,
                    1
                ],
                "metallicFactor" : 0,
                "roughnessFactor" : 0.8486238718032837
            }
        },
        {
            "doubleSided" : true,
            "emissiveFactor" : [
                0,
                0,
                0
            ],
            "name" : "Shirt",
            "pbrMetallicRoughness" : {
                "baseColorFactor" : [
                    0.48780596256256104,
                    0.48780596256256104,
                    0.48780596256256104,
                    1
                ],
                "metallicFactor" : 0,
                "roughnessFactor" : 0.5
            }
        },
        {
            "doubleSided" : true,
            "emissiveFactor" : [
                0,
                0,
                0
            ],
            "name" : "Boots",
            "pbrMetallicRoughness" : {
                "baseColorFactor" : [
                    0.002493065083399415,
                    0.0014833348104730248,
                    0.004255435895174742,
                    1
                ],
                "metallicFactor" : 0,
                "roughnessFactor" : 1
            }
        },
        {
            "doubleSided" : true,
            "emissiveFactor" : [
                0,
                0,
                0
            ],
            "name" : "Material.003",
            "pbrMetallicRoughness" : {
                "baseColorFactor" : [
                    0.019058099016547203,
                    0.008662951178848743,
                    0.05811116844415665,
                    1
                ],
                "metallicFactor" : 0,
                "roughnessFactor" : 0.6972477436065674
            }
        }
    ],
    "meshes" : [
        {
            "name" : "Cube.013",
            "primitives" : [
                {
                    "attributes" : {
                        "POSITION" : 0,
                        "NORMAL" : 1,
                        "TEXCOORD_0" : 2
                    },
                    "indices" : 3,
                    "material" : 0
                },
                {
                    "attributes" : {
                        "POSITION" : 4,
                        "NORMAL" : 5,
                        "TEXCOORD_0" : 6
                    },
                    "indices" : 7,
                    "material" : 1
                },
                {
                    "attributes" : {
                        "POSITION" : 8,
                        "NORMAL" : 9,
                        "TEXCOORD_0" : 10
                    },
                    "indices" : 11,
                    "material" : 2
                },
                {
                    "attributes" : {
                        "POSITION" : 12,
                        "NORMAL" : 13,
                        "TEXCOORD_0" : 14
                    },
                    "indices" : 15,
                    "material" : 3
                },
                {
                    "attributes" : {
                        "POSITION" : 16,
                        "NORMAL" : 17,
                        "TEXCOORD_0" : 18
                    },
                    "indices" : 19,
                    "material" : 4
                },
                {
                    "attributes" : {
                        "POSITION" : 20,
                        "NORMAL" : 21,
                        "TEXCOORD_0" : 22
                    },
                    "indices" : 23,
                    "material" : 5
                },
                {
                    "attributes" : {
                        "POSITION" : 24,
                        "NORMAL" : 25,
                        "TEXCOORD_0" : 26
                    },
                    "indices" : 27,
                    "material" : 6
                },
                {
                    "attributes" : {
                        "POSITION" : 28,
                        "NORMAL" : 29,
                        "TEXCOORD_0" : 30
                    },
                    "indices" : 31,
                    "material" : 7
                },
                {
                    "attributes" : {
                        "POSITION" : 32,
                        "NORMAL" : 33,
                        "TEXCOORD_0" : 34
                    },
                    "indices" : 35,
                    "material" : 8
                },
                {
                    "attributes" : {
                        "POSITION" : 36,
                        "NORMAL" : 37,
                        "TEXCOORD_0" : 38
                    },
                    "indices" : 39,
                    "material" : 9
                }
            ]
        }
    ],
    "accessors" : [
        {
            "bufferView" : 0,
            "componentType" : 5126,
            "count" : 145,
            "max" : [
                0.445380836725235,
                2.070834159851074,
                0.17290259897708893
            ],
            "min" : [
                -0.445380836725235,
                0.6147008538246155,
                -0.23178711533546448
            ],
            "type" : "VEC3"
        },
        {
            "bufferView" : 1,
            "componentType" : 5126,
            "count" : 145,
            "type" : "VEC3"
        },
        {
            "bufferView" : 2,
            "componentType" : 5126,
            "count" : 145,
            "type" : "VEC2"
        },
        {
            "bufferView" : 3,
            "componentType" : 5123,
            "count" : 648,
            "type" : "SCALAR"
        },
        {
            "bufferView" : 4,
            "componentType" : 5126,
            "count" : 1480,
            "max" : [
                0.13542687892913818,
                1.6168087720870972,
                0.16834168136119843
            ],
            "min" : [
                -0.13542687892913818,
                1.4413305521011353,
                0.1549006551504135
            ],
            "type" : "VEC3"
        },
        {
            "bufferView" : 5,
            "componentType" : 5126,
            "count" : 1480,
            "type" : "VEC3"
        },
        {
            "bufferView" : 6,
            "componentType" : 5126,
            "count" : 1480,
            "type" : "VEC2"
        },
        {
            "bufferView" : 7,
            "componentType" : 5123,
            "count" : 2616,
            "type" : "SCALAR"
        },
        {
            "bufferView" : 8,
            "componentType" : 5126,
            "count" : 423,
            "max" : [
                0.45433786511421204,
                2.67688250541687,
                0.251287579536438
            ],
            "min" : [
                -0.45433786511421204,
                1.0956010818481445,
                -0.2902566194534302
            ],
            "type" : "VEC3"
        },
        {
            "bufferView" : 9,
            "componentType" : 5126,
            "count" : 423,
            "type" : "VEC3"
        },
        {
            "bufferView" : 10,
            "componentType" : 5126,
            "count" : 423,
            "type" : "VEC2"
        },
        {
            "bufferView" : 11,
            "componentType" : 5123,
            "count" : 1884,
            "type" : "SCALAR"
        },
        {
            "bufferView" : 12,
            "componentType" : 5126,
            "count" : 30,
            "max" : [
                0.11548031121492386,
                2.2995753288269043,
                0.19257290661334991
            ],
            "min" : [
                -0.11548031121492386,
                2.237992525100708,
                0.16357643902301788
            ],
            "type" : "VEC3"
        },
        {
            "bufferView" : 13,
            "componentType" : 5126,
            "count" : 30,
            "type" : "VEC3"
        },
        {
            "bufferView" : 14,
            "componentType" : 5126,
            "count" : 30,
            "type" : "VEC2"
        },
        {
            "bufferView" : 15,
            "componentType" : 5123,
            "count" : 90,
            "type" : "SCALAR"
        },
        {
            "bufferView" : 16,
            "componentType" : 5126,
            "count" : 16,
            "max" : [
                0.11548031121492386,
                2.261550188064575,
                0.18435019254684448
            ],
            "min" : [
                -0.11548031121492386,
                2.2196431159973145,
                0.16047708690166473
            ],
            "type" : "VEC3"
        },
        {
            "bufferView" : 17,
            "componentType" : 5126,
            "count" : 16,
            "type" : "VEC3"
        },
        {
            "bufferView" : 18,
            "componentType" : 5126,
            "count" : 16,
            "type" : "VEC2"
        },
        {
            "bufferView" : 19,
            "componentType" : 5123,
            "count" : 36,
            "type" : "SCALAR"
        },
        {
            "bufferView" : 20,
            "componentType" : 5126,
            "count" : 6,
            "max" : [
                0.08085241168737411,
                2.2025198936462402,
                0.005602279212325811
            ],
            "min" : [
                0.04811619967222214,
                2.005312442779541,
                -0.06335781514644623
            ],
            "type" : "VEC3"
        },
        {
            "bufferView" : 21,
            "componentType" : 5126,
            "count" : 6,
            "type" : "VEC3"
        },
        {
            "bufferView" : 22,
            "componentType" : 5126,
            "count" : 6,
            "type" : "VEC2"
        },
        {
            "bufferView" : 23,
            "componentType" : 5123,
            "count" : 12,
            "type" : "SCALAR"
        },
        {
            "bufferView" : 24,
            "componentType" : 5126,
            "count" : 128,
            "max" : [
                0.2703370451927185,
                1.3507657051086426,
                0.1360432505607605
            ],
            "min" : [
                -0.2703370451927185,
                0.3906625807285309,
                -0.15599504113197327
            ],
            "type" : "VEC3"
        },
        {
            "bufferView" : 25,
            "componentType" : 5126,
            "count" : 128,
            "type" : "VEC3"
        },
        {
            "bufferView" : 26,
            "componentType" : 5126,
            "count" : 128,
            "type" : "VEC2"
        },
        {
            "bufferView" : 27,
            "componentType" : 5123,
            "count" : 684,
            "type" : "SCALAR"
        },
        {
            "bufferView" : 28,
            "componentType" : 5126,
            "count" : 118,
            "max" : [
                0.4365127682685852,
                2.0757436752319336,
                0.1360432505607605
            ],
            "min" : [
                -0.4365127682685852,
                1.2768523693084717,
                -0.1760091483592987
            ],
            "type" : "VEC3"
        },
        {
            "bufferView" : 29,
            "componentType" : 5126,
            "count" : 118,
            "type" : "VEC3"
        },
        {
            "bufferView" : 30,
            "componentType" : 5126,
            "count" : 118,
            "type" : "VEC2"
        },
        {
            "bufferView" : 31,
            "componentType" : 5123,
            "count" : 648,
            "type" : "SCALAR"
        },
        {
            "bufferView" : 32,
            "componentType" : 5126,
            "count" : 72,
            "max" : [
                0.20265261828899384,
                0.4266798198223114,
                0.21421533823013306
            ],
            "min" : [
                -0.20265261828899384,
                0.0854097381234169,
                -0.21532459557056427
            ],
            "type" : "VEC3"
        },
        {
            "bufferView" : 33,
            "componentType" : 5126,
            "count" : 72,
            "type" : "VEC3"
        },
        {
            "bufferView" : 34,
            "componentType" : 5126,
            "count" : 72,
            "type" : "VEC2"
        },
        {
            "bufferView" : 35,
            "componentType" : 5123,
            "count" : 384,
            "type" : "SCALAR"
        },
        {
            "bufferView" : 36,
            "componentType" : 5126,
            "count" : 707,
            "max" : [
                0.2820013761520386,
                2.700958251953125,
                0.2717362940311432
            ],
            "min" : [
                -0.27482807636260986,
                2.166447639465332,
                -0.30846384167671204
            ],
            "type" : "VEC3"
        },
        {
            "bufferView" : 37,
            "componentType" : 5126,
            "count" : 707,
            "type" : "VEC3"
        },
        {
            "bufferView" : 38,
            "componentType" : 5126,
            "count" : 707,
            "type" : "VEC2"
        },
        {
            "bufferView" : 39,
            "componentType" : 5123,
            "count" : 3975,
            "type" : "SCALAR"
        }
    ],
    "bufferViews" : [
        {
            "buffer" : 0,
            "byteLength" : 1740,
            "byteOffset" : 0
        },
        {
            "buffer" : 0,
            "byteLength" : 1740,
            "byteOffset" : 1740
        },
        {
            "buffer" : 0,
            "byteLength" : 1160,
            "byteOffset" : 3480
        },
        {
            "buffer" : 0,
            "byteLength" : 1296,
            "byteOffset" : 4640
        },
        {
            "buffer" : 0,
            "byteLength" : 17760,
            "byteOffset" : 5936
        },
        {
            "buffer" : 0,
            "byteLength" : 17760,
            "byteOffset" : 23696
        },
        {
            "buffer" : 0,
            "byteLength" : 11840,
            "byteOffset" : 41456
        },
        {
            "buffer" : 0,
            "byteLength" : 5232,
            "byteOffset" : 53296
        },
        {
            "buffer" : 0,
            "byteLength" : 5076,
            "byteOffset" : 58528
        },
        {
            "buffer" : 0,
            "byteLength" : 5076,
            "byteOffset" : 63604
        },
        {
            "buffer" : 0,
            "byteLength" : 3384,
            "byteOffset" : 68680
        },
        {
            "buffer" : 0,
            "byteLength" : 3768,
            "byteOffset" : 72064
        },
        {
            "buffer" : 0,
            "byteLength" : 360,
            "byteOffset" : 75832
        },
        {
            "buffer" : 0,
            "byteLength" : 360,
            "byteOffset" : 76192
        },
        {
            "buffer" : 0,
            "byteLength" : 240,
            "byteOffset" : 76552
        },
        {
            "buffer" : 0,
            "byteLength" : 180,
            "byteOffset" : 76792
        },
        {
            "buffer" : 0,
            "byteLength" : 192,
            "byteOffset" : 76972
        },
        {
            "buffer" : 0,
            "byteLength" : 192,
            "byteOffset" : 77164
        },
        {
            "buffer" : 0,
            "byteLength" : 128,
            "byteOffset" : 77356
        },
        {
            "buffer" : 0,
            "byteLength" : 72,
            "byteOffset" : 77484
        },
        {
            "buffer" : 0,
            "byteLength" : 72,
            "byteOffset" : 77556
        },
        {
            "buffer" : 0,
            "byteLength" : 72,
            "byteOffset" : 77628
        },
        {
            "buffer" : 0,
            "byteLength" : 48,
            "byteOffset" : 77700
        },
        {
            "buffer" : 0,
            "byteLength" : 24,
            "byteOffset" : 77748
        },
        {
            "buffer" : 0,
            "byteLength" : 1536,
            "byteOffset" : 77772
        },
        {
            "buffer" : 0,
            "byteLength" : 1536,
            "byteOffset" : 79308
        },
        {
            "buffer" : 0,
            "byteLength" : 1024,
            "byteOffset" : 80844
        },
        {
            "buffer" : 0,
            "byteLength" : 1368,
            "byteOffset" : 81868
        },
        {
            "buffer" : 0,
            "byteLength" : 1416,
            "byteOffset" : 83236
        },
        {
            "buffer" : 0,
            "byteLength" : 1416,
            "byteOffset" : 84652
        },
        {
            "buffer" : 0,
            "byteLength" : 944,
            "byteOffset" : 86068
        },
        {
            "buffer" : 0,
            "byteLength" : 1296,
            "byteOffset" : 87012
        },
        {
            "buffer" : 0,
            "byteLength" : 864,
            "byteOffset" : 88308
        },
        {
            "buffer" : 0,
            "byteLength" : 864,
            "byteOffset" : 89172
        },
        {
            "buffer" : 0,
            "byteLength" : 576,
            "byteOffset" : 90036
        },
        {
            "buffer" : 0,
            "byteLength" : 768,
            "byteOffset" : 90612
        },
        {
            "buffer" : 0,
            "byteLength" : 8484,
            "byteOffset" : 91380
        },
        {
            "buffer" : 0,
            "byteLength" : 8484,
            "byteOffset" : 99864
        },
        {
            "buffer" : 0,
            "byteLength" : 5656,
            "byteOffset" : 108348
        },
        {
            "buffer" : 0,
            "byteLength" : 7950,
            "byteOffset" : 114004
        }
    ],
    "buffers" : [
        {
            "byteLength" : 121956,
            "uri" : "male-char.bin"
        }
    ]
}
