{
    "asset" : {
        "generator" : "Khronos glTF Blender I/O v1.1.46",
        "version" : "2.0"
    },
    "scene" : 0,
    "scenes" : [
        {
            "name" : "Scene",
            "nodes" : [
                0
            ]
        }
    ],
    "nodes" : [
        {
            "mesh" : 0,
            "name" : "Female",
            "scale" : [
                1.4883599281311035,
                1.4883599281311035,
                1.4883599281311035
            ],
            "translation" : [
                0,
                2.3291494846343994,
                0
            ]
        }
    ],
    "materials" : [
        {
            "doubleSided" : true,
            "emissiveFactor" : [
                0,
                0,
                0
            ],
            "name" : "Material.003",
            "pbrMetallicRoughness" : {
                "baseColorFactor" : [
                    0.019058099016547203,
                    0.008662951178848743,
                    0.05811116844415665,
                    1
                ],
                "metallicFactor" : 0,
                "roughnessFactor" : 0.6972477436065674
            }
        },
        {
            "doubleSided" : true,
            "emissiveFactor" : [
                0,
                0,
                0
            ],
            "name" : "Skin",
            "pbrMetallicRoughness" : {
                "baseColorFactor" : [
                    1,
                    0.590618908405304,
                    0.4072403311729431,
                    1
                ],
                "metallicFactor" : 0,
                "roughnessFactor" : 0.8119266033172607
            }
        },
        {
            "doubleSided" : true,
            "emissiveFactor" : [
                0,
                0,
                0
            ],
            "name" : "Eyes",
            "pbrMetallicRoughness" : {
                "baseColorFactor" : [
                    0.059071145951747894,
                    0.02240164391696453,
                    0.22153596580028534,
                    1
                ],
                "metallicFactor" : 0,
                "roughnessFactor" : 0.5
            }
        },
        {
            "doubleSided" : true,
            "emissiveFactor" : [
                0,
                0,
                0
            ],
            "name" : "Eye glare",
            "pbrMetallicRoughness" : {
                "baseColorFactor" : [
                    0.2550189197063446,
                    0.2744557857513428,
                    0.8000000715255737,
                    1
                ],
                "metallicFactor" : 0,
                "roughnessFactor" : 0.5
            }
        },
        {
            "doubleSided" : true,
            "emissiveFactor" : [
                0,
                0,
                0
            ],
            "name" : "Coat.001",
            "pbrMetallicRoughness" : {
                "baseColorFactor" : [
                    0.2697363793849945,
                    0.09587861597537994,
                    0.03661061450839043,
                    1
                ],
                "metallicFactor" : 0,
                "roughnessFactor" : 0.8302752375602722
            }
        },
        {
            "doubleSided" : true,
            "emissiveFactor" : [
                0,
                0,
                0
            ],
            "name" : "Pants",
            "pbrMetallicRoughness" : {
                "baseColorFactor" : [
                    0,
                    0,
                    0,
                    1
                ],
                "metallicFactor" : 0,
                "roughnessFactor" : 0.8486238718032837
            }
        },
        {
            "doubleSided" : true,
            "emissiveFactor" : [
                0,
                0,
                0
            ],
            "name" : "Material.005",
            "pbrMetallicRoughness" : {
                "baseColorFactor" : [
                    0.5457167029380798,
                    0.13229256868362427,
                    0.09945651143789291,
                    1
                ],
                "metallicFactor" : 0,
                "roughnessFactor" : 0.5
            }
        },
        {
            "doubleSided" : true,
            "emissiveFactor" : [
                0,
                0,
                0
            ],
            "name" : "Coat shadow",
            "pbrMetallicRoughness" : {
                "baseColorFactor" : [
                    0.1787741482257843,
                    0.04398129880428314,
                    0.01816600374877453,
                    1
                ],
                "metallicFactor" : 0,
                "roughnessFactor" : 0.5
            }
        },
        {
            "doubleSided" : true,
            "emissiveFactor" : [
                0,
                0,
                0
            ],
            "name" : "Material.006",
            "pbrMetallicRoughness" : {
                "baseColorFactor" : [
                    0.022084936499595642,
                    0.022084936499595642,
                    0.022084936499595642,
                    1
                ],
                "metallicFactor" : 0,
                "roughnessFactor" : 0.5
            }
        }
    ],
    "meshes" : [
        {
            "name" : "Cube.007",
            "primitives" : [
                {
                    "attributes" : {
                        "POSITION" : 0,
                        "NORMAL" : 1,
                        "TEXCOORD_0" : 2
                    },
                    "indices" : 3,
                    "material" : 0
                },
                {
                    "attributes" : {
                        "POSITION" : 4,
                        "NORMAL" : 5,
                        "TEXCOORD_0" : 6
                    },
                    "indices" : 7,
                    "material" : 1
                },
                {
                    "attributes" : {
                        "POSITION" : 8,
                        "NORMAL" : 9,
                        "TEXCOORD_0" : 10
                    },
                    "indices" : 11,
                    "material" : 2
                },
                {
                    "attributes" : {
                        "POSITION" : 12,
                        "NORMAL" : 13,
                        "TEXCOORD_0" : 14
                    },
                    "indices" : 15,
                    "material" : 3
                },
                {
                    "attributes" : {
                        "POSITION" : 16,
                        "NORMAL" : 17,
                        "TEXCOORD_0" : 18
                    },
                    "indices" : 19,
                    "material" : 4
                },
                {
                    "attributes" : {
                        "POSITION" : 20,
                        "NORMAL" : 21,
                        "TEXCOORD_0" : 22
                    },
                    "indices" : 23,
                    "material" : 5
                },
                {
                    "attributes" : {
                        "POSITION" : 24,
                        "NORMAL" : 25,
                        "TEXCOORD_0" : 26
                    },
                    "indices" : 27,
                    "material" : 6
                },
                {
                    "attributes" : {
                        "POSITION" : 28,
                        "NORMAL" : 29,
                        "TEXCOORD_0" : 30
                    },
                    "indices" : 31,
                    "material" : 7
                },
                {
                    "attributes" : {
                        "POSITION" : 32,
                        "NORMAL" : 33,
                        "TEXCOORD_0" : 34
                    },
                    "indices" : 35,
                    "material" : 8
                }
            ]
        }
    ],
    "accessors" : [
        {
            "bufferView" : 0,
            "componentType" : 5126,
            "count" : 457,
            "max" : [
                0.24136847257614136,
                0.24214410781860352,
                0.20345115661621094
            ],
            "min" : [
                -0.1795511096715927,
                -0.21630875766277313,
                -0.1846913844347
            ],
            "type" : "VEC3"
        },
        {
            "bufferView" : 1,
            "componentType" : 5126,
            "count" : 457,
            "type" : "VEC3"
        },
        {
            "bufferView" : 2,
            "componentType" : 5126,
            "count" : 457,
            "type" : "VEC2"
        },
        {
            "bufferView" : 3,
            "componentType" : 5123,
            "count" : 2514,
            "type" : "SCALAR"
        },
        {
            "bufferView" : 4,
            "componentType" : 5126,
            "count" : 920,
            "max" : [
                0.4062994122505188,
                0.18192660808563232,
                0.18822097778320312
            ],
            "min" : [
                -0.400524377822876,
                -1.518256425857544,
                -0.18192654848098755
            ],
            "type" : "VEC3"
        },
        {
            "bufferView" : 5,
            "componentType" : 5126,
            "count" : 920,
            "type" : "VEC3"
        },
        {
            "bufferView" : 6,
            "componentType" : 5126,
            "count" : 920,
            "type" : "VEC2"
        },
        {
            "bufferView" : 7,
            "componentType" : 5123,
            "count" : 3684,
            "type" : "SCALAR"
        },
        {
            "bufferView" : 8,
            "componentType" : 5126,
            "count" : 30,
            "max" : [
                0.07758891582489014,
                -0.07157862186431885,
                0.14247724413871765
            ],
            "min" : [
                -0.07758891582489014,
                -0.11295509338378906,
                0.12299506366252899
            ],
            "type" : "VEC3"
        },
        {
            "bufferView" : 9,
            "componentType" : 5126,
            "count" : 30,
            "type" : "VEC3"
        },
        {
            "bufferView" : 10,
            "componentType" : 5126,
            "count" : 30,
            "type" : "VEC2"
        },
        {
            "bufferView" : 11,
            "componentType" : 5123,
            "count" : 90,
            "type" : "SCALAR"
        },
        {
            "bufferView" : 12,
            "componentType" : 5126,
            "count" : 16,
            "max" : [
                0.07758891582489014,
                -0.09712707996368408,
                0.13695257902145386
            ],
            "min" : [
                -0.07758891582489014,
                -0.12528371810913086,
                0.12091267108917236
            ],
            "type" : "VEC3"
        },
        {
            "bufferView" : 13,
            "componentType" : 5126,
            "count" : 16,
            "type" : "VEC3"
        },
        {
            "bufferView" : 14,
            "componentType" : 5126,
            "count" : 16,
            "type" : "VEC2"
        },
        {
            "bufferView" : 15,
            "componentType" : 5123,
            "count" : 36,
            "type" : "SCALAR"
        },
        {
            "bufferView" : 16,
            "componentType" : 5126,
            "count" : 288,
            "max" : [
                0.4021439552307129,
                -0.14188921451568604,
                0.18822097778320312
            ],
            "min" : [
                -0.38706493377685547,
                -1.0054022073745728,
                -0.227309912443161
            ],
            "type" : "VEC3"
        },
        {
            "bufferView" : 17,
            "componentType" : 5126,
            "count" : 288,
            "type" : "VEC3"
        },
        {
            "bufferView" : 18,
            "componentType" : 5126,
            "count" : 288,
            "type" : "VEC2"
        },
        {
            "bufferView" : 19,
            "componentType" : 5123,
            "count" : 1236,
            "type" : "SCALAR"
        },
        {
            "bufferView" : 20,
            "componentType" : 5126,
            "count" : 308,
            "max" : [
                0.19403135776519775,
                -0.5529356598854065,
                0.19672992825508118
            ],
            "min" : [
                -0.1940312385559082,
                -1.5728737115859985,
                -0.16121917963027954
            ],
            "type" : "VEC3"
        },
        {
            "bufferView" : 21,
            "componentType" : 5126,
            "count" : 308,
            "type" : "VEC3"
        },
        {
            "bufferView" : 22,
            "componentType" : 5126,
            "count" : 308,
            "type" : "VEC2"
        },
        {
            "bufferView" : 23,
            "componentType" : 5123,
            "count" : 1554,
            "type" : "SCALAR"
        },
        {
            "bufferView" : 24,
            "componentType" : 5126,
            "count" : 40,
            "max" : [
                0.026500940322875977,
                -0.14795637130737305,
                0.14918182790279388
            ],
            "min" : [
                -0.025633692741394043,
                -0.1640714406967163,
                0.1300395131111145
            ],
            "type" : "VEC3"
        },
        {
            "bufferView" : 25,
            "componentType" : 5126,
            "count" : 40,
            "type" : "VEC3"
        },
        {
            "bufferView" : 26,
            "componentType" : 5126,
            "count" : 40,
            "type" : "VEC2"
        },
        {
            "bufferView" : 27,
            "componentType" : 5123,
            "count" : 60,
            "type" : "SCALAR"
        },
        {
            "bufferView" : 28,
            "componentType" : 5126,
            "count" : 36,
            "max" : [
                0.13579177856445312,
                -0.2535252571105957,
                0.16760268807411194
            ],
            "min" : [
                -0.1559678316116333,
                -0.5684753656387329,
                -0.047056645154953
            ],
            "type" : "VEC3"
        },
        {
            "bufferView" : 29,
            "componentType" : 5126,
            "count" : 36,
            "type" : "VEC3"
        },
        {
            "bufferView" : 30,
            "componentType" : 5126,
            "count" : 36,
            "type" : "VEC2"
        },
        {
            "bufferView" : 31,
            "componentType" : 5123,
            "count" : 60,
            "type" : "SCALAR"
        },
        {
            "bufferView" : 32,
            "componentType" : 5126,
            "count" : 740,
            "max" : [
                0.039105385541915894,
                -0.380096971988678,
                0.16037122905254364
            ],
            "min" : [
                0.015638872981071472,
                -0.44709670543670654,
                0.1557743400335312
            ],
            "type" : "VEC3"
        },
        {
            "bufferView" : 33,
            "componentType" : 5126,
            "count" : 740,
            "type" : "VEC3"
        },
        {
            "bufferView" : 34,
            "componentType" : 5126,
            "count" : 740,
            "type" : "VEC2"
        },
        {
            "bufferView" : 35,
            "componentType" : 5123,
            "count" : 1308,
            "type" : "SCALAR"
        }
    ],
    "bufferViews" : [
        {
            "buffer" : 0,
            "byteLength" : 5484,
            "byteOffset" : 0
        },
        {
            "buffer" : 0,
            "byteLength" : 5484,
            "byteOffset" : 5484
        },
        {
            "buffer" : 0,
            "byteLength" : 3656,
            "byteOffset" : 10968
        },
        {
            "buffer" : 0,
            "byteLength" : 5028,
            "byteOffset" : 14624
        },
        {
            "buffer" : 0,
            "byteLength" : 11040,
            "byteOffset" : 19652
        },
        {
            "buffer" : 0,
            "byteLength" : 11040,
            "byteOffset" : 30692
        },
        {
            "buffer" : 0,
            "byteLength" : 7360,
            "byteOffset" : 41732
        },
        {
            "buffer" : 0,
            "byteLength" : 7368,
            "byteOffset" : 49092
        },
        {
            "buffer" : 0,
            "byteLength" : 360,
            "byteOffset" : 56460
        },
        {
            "buffer" : 0,
            "byteLength" : 360,
            "byteOffset" : 56820
        },
        {
            "buffer" : 0,
            "byteLength" : 240,
            "byteOffset" : 57180
        },
        {
            "buffer" : 0,
            "byteLength" : 180,
            "byteOffset" : 57420
        },
        {
            "buffer" : 0,
            "byteLength" : 192,
            "byteOffset" : 57600
        },
        {
            "buffer" : 0,
            "byteLength" : 192,
            "byteOffset" : 57792
        },
        {
            "buffer" : 0,
            "byteLength" : 128,
            "byteOffset" : 57984
        },
        {
            "buffer" : 0,
            "byteLength" : 72,
            "byteOffset" : 58112
        },
        {
            "buffer" : 0,
            "byteLength" : 3456,
            "byteOffset" : 58184
        },
        {
            "buffer" : 0,
            "byteLength" : 3456,
            "byteOffset" : 61640
        },
        {
            "buffer" : 0,
            "byteLength" : 2304,
            "byteOffset" : 65096
        },
        {
            "buffer" : 0,
            "byteLength" : 2472,
            "byteOffset" : 67400
        },
        {
            "buffer" : 0,
            "byteLength" : 3696,
            "byteOffset" : 69872
        },
        {
            "buffer" : 0,
            "byteLength" : 3696,
            "byteOffset" : 73568
        },
        {
            "buffer" : 0,
            "byteLength" : 2464,
            "byteOffset" : 77264
        },
        {
            "buffer" : 0,
            "byteLength" : 3108,
            "byteOffset" : 79728
        },
        {
            "buffer" : 0,
            "byteLength" : 480,
            "byteOffset" : 82836
        },
        {
            "buffer" : 0,
            "byteLength" : 480,
            "byteOffset" : 83316
        },
        {
            "buffer" : 0,
            "byteLength" : 320,
            "byteOffset" : 83796
        },
        {
            "buffer" : 0,
            "byteLength" : 120,
            "byteOffset" : 84116
        },
        {
            "buffer" : 0,
            "byteLength" : 432,
            "byteOffset" : 84236
        },
        {
            "buffer" : 0,
            "byteLength" : 432,
            "byteOffset" : 84668
        },
        {
            "buffer" : 0,
            "byteLength" : 288,
            "byteOffset" : 85100
        },
        {
            "buffer" : 0,
            "byteLength" : 120,
            "byteOffset" : 85388
        },
        {
            "buffer" : 0,
            "byteLength" : 8880,
            "byteOffset" : 85508
        },
        {
            "buffer" : 0,
            "byteLength" : 8880,
            "byteOffset" : 94388
        },
        {
            "buffer" : 0,
            "byteLength" : 5920,
            "byteOffset" : 103268
        },
        {
            "buffer" : 0,
            "byteLength" : 2616,
            "byteOffset" : 109188
        }
    ],
    "buffers" : [
        {
            "byteLength" : 111804,
            "uri" : "female-char.bin"
        }
    ]
}
