{
    "asset" : {
        "generator" : "Khronos glTF Blender I/O v1.1.46",
        "version" : "2.0"
    },
    "scene" : 0,
    "scenes" : [
        {
            "name" : "Scene",
            "nodes" : [
                0,
                1
            ]
        }
    ],
    "nodes" : [
        {
            "mesh" : 0,
            "name" : "Dumpster Body",
            "rotation" : [
                0,
                0,
                -1,
                -1.6292068494294654e-07
            ],
            "scale" : [
                0.09408243745565414,
                0.20376233756542206,
                0.9494599103927612
            ],
            "translation" : [
                -0.010958957485854626,
                0.07596126198768616,
                0
            ]
        },
        {
            "mesh" : 1,
            "name" : "Dumpster Lid",
            "rotation" : [
                0.06959062069654465,
                0,
                0,
                0.9975756406784058
            ],
            "scale" : [
                5.814472198486328,
                0.16718900203704834,
                3.672921657562256
            ],
            "translation" : [
                0,
                -0.09093962609767914,
                -0.29672276973724365
            ]
        }
    ],
    "materials" : [
        {
            "doubleSided" : true,
            "emissiveFactor" : [
                0,
                0,
                0
            ],
            "name" : "Base",
            "pbrMetallicRoughness" : {
                "baseColorFactor" : [
                    0.010958435013890266,
                    0.07836683094501495,
                    0.036003872752189636,
                    1
                ],
                "metallicFactor" : 0,
                "roughnessFactor" : 0.7385321259498596
            }
        },
        {
            "doubleSided" : true,
            "emissiveFactor" : [
                0,
                0,
                0
            ],
            "name" : "Wheels",
            "pbrMetallicRoughness" : {
                "baseColorFactor" : [
                    0.02208477444946766,
                    0.02208477444946766,
                    0.02208477444946766,
                    1
                ],
                "metallicFactor" : 0,
                "roughnessFactor" : 0.5
            }
        },
        {
            "doubleSided" : true,
            "emissiveFactor" : [
                0,
                0,
                0
            ],
            "name" : "Material.015",
            "pbrMetallicRoughness" : {
                "baseColorFactor" : [
                    0.00533284479752183,
                    0.00533284479752183,
                    0.00533284479752183,
                    1
                ],
                "metallicFactor" : 0,
                "roughnessFactor" : 0.6651376485824585
            }
        }
    ],
    "meshes" : [
        {
            "name" : "Cube.012",
            "primitives" : [
                {
                    "attributes" : {
                        "POSITION" : 0,
                        "NORMAL" : 1,
                        "TEXCOORD_0" : 2
                    },
                    "indices" : 3,
                    "material" : 0
                },
                {
                    "attributes" : {
                        "POSITION" : 4,
                        "NORMAL" : 5,
                        "TEXCOORD_0" : 6
                    },
                    "indices" : 7,
                    "material" : 1
                }
            ]
        },
        {
            "name" : "Cube.017",
            "primitives" : [
                {
                    "attributes" : {
                        "POSITION" : 8,
                        "NORMAL" : 9,
                        "TEXCOORD_0" : 10
                    },
                    "indices" : 11,
                    "material" : 2
                }
            ]
        }
    ],
    "accessors" : [
        {
            "bufferView" : 0,
            "componentType" : 5126,
            "count" : 2052,
            "max" : [
                18.581424713134766,
                0.022550873458385468,
                1.1682835817337036
            ],
            "min" : [
                -18.581424713134766,
                -11.009931564331055,
                -1.140334129333496
            ],
            "type" : "VEC3"
        },
        {
            "bufferView" : 1,
            "componentType" : 5126,
            "count" : 2052,
            "type" : "VEC3"
        },
        {
            "bufferView" : 2,
            "componentType" : 5126,
            "count" : 2052,
            "type" : "VEC2"
        },
        {
            "bufferView" : 3,
            "componentType" : 5123,
            "count" : 3684,
            "type" : "SCALAR"
        },
        {
            "bufferView" : 4,
            "componentType" : 5126,
            "count" : 116,
            "max" : [
                15.351205825805664,
                0.35985085368156433,
                0.8477198481559753
            ],
            "min" : [
                -15.351205825805664,
                -0.6539946794509888,
                0.7136512994766235
            ],
            "type" : "VEC3"
        },
        {
            "bufferView" : 5,
            "componentType" : 5126,
            "count" : 116,
            "type" : "VEC3"
        },
        {
            "bufferView" : 6,
            "componentType" : 5126,
            "count" : 116,
            "type" : "VEC2"
        },
        {
            "bufferView" : 7,
            "componentType" : 5123,
            "count" : 312,
            "type" : "SCALAR"
        },
        {
            "bufferView" : 8,
            "componentType" : 5126,
            "count" : 3249,
            "max" : [
                0.2800000309944153,
                14.586559295654297,
                0.2800000309944153
            ],
            "min" : [
                -0.2800000309944153,
                13.384573936462402,
                -0.2800000309944153
            ],
            "type" : "VEC3"
        },
        {
            "bufferView" : 9,
            "componentType" : 5126,
            "count" : 3249,
            "type" : "VEC3"
        },
        {
            "bufferView" : 10,
            "componentType" : 5126,
            "count" : 3249,
            "type" : "VEC2"
        },
        {
            "bufferView" : 11,
            "componentType" : 5123,
            "count" : 6522,
            "type" : "SCALAR"
        }
    ],
    "bufferViews" : [
        {
            "buffer" : 0,
            "byteLength" : 24624,
            "byteOffset" : 0
        },
        {
            "buffer" : 0,
            "byteLength" : 24624,
            "byteOffset" : 24624
        },
        {
            "buffer" : 0,
            "byteLength" : 16416,
            "byteOffset" : 49248
        },
        {
            "buffer" : 0,
            "byteLength" : 7368,
            "byteOffset" : 65664
        },
        {
            "buffer" : 0,
            "byteLength" : 1392,
            "byteOffset" : 73032
        },
        {
            "buffer" : 0,
            "byteLength" : 1392,
            "byteOffset" : 74424
        },
        {
            "buffer" : 0,
            "byteLength" : 928,
            "byteOffset" : 75816
        },
        {
            "buffer" : 0,
            "byteLength" : 624,
            "byteOffset" : 76744
        },
        {
            "buffer" : 0,
            "byteLength" : 38988,
            "byteOffset" : 77368
        },
        {
            "buffer" : 0,
            "byteLength" : 38988,
            "byteOffset" : 116356
        },
        {
            "buffer" : 0,
            "byteLength" : 25992,
            "byteOffset" : 155344
        },
        {
            "buffer" : 0,
            "byteLength" : 13044,
            "byteOffset" : 181336
        }
    ],
    "buffers" : [
        {
            "byteLength" : 194380,
            "uri" : "dumpster.bin"
        }
    ]
}
