{
    "asset" : {
        "generator" : "Khronos glTF Blender I/O v1.1.46",
        "version" : "2.0"
    },
    "scene" : 0,
    "scenes" : [
        {
            "name" : "Scene",
            "nodes" : [
                0
            ]
        }
    ],
    "nodes" : [
        {
            "mesh" : 0,
            "name" : "Dumpster_Cube.017",
            "rotation" : [
                0.7071068286895752,
                0,
                0,
                0.7071067094802856
            ]
        }
    ],
    "materials" : [
        {
            "doubleSided" : true,
            "emissiveFactor" : [
                0,
                0,
                0
            ],
            "name" : "Texture",
            "pbrMetallicRoughness" : {
                "baseColorTexture" : {
                    "index" : 0,
                    "texCoord" : 0
                },
                "metallicFactor" : 0,
                "roughnessFactor" : 0.5
            }
        }
    ],
    "meshes" : [
        {
            "name" : "Dumpster_Cube.017",
            "primitives" : [
                {
                    "attributes" : {
                        "POSITION" : 0,
                        "NORMAL" : 1,
                        "TEXCOORD_0" : 2,
                        "JOINTS_0" : 3,
                        "WEIGHTS_0" : 4
                    },
                    "indices" : 5,
                    "material" : 0
                }
            ]
        }
    ],
    "textures" : [
        {
            "source" : 0
        }
    ],
    "images" : [
        {
            "mimeType" : "image/png",
            "name" : "dumpster_tex-01",
            "uri" : "dumpster_tex-01.png"
        }
    ],
    "accessors" : [
        {
            "bufferView" : 0,
            "componentType" : 5126,
            "count" : 18761,
            "max" : [
                1.7479891777038574,
                1.092419981956482,
                0.0038030147552490234
            ],
            "min" : [
                -1.756830096244812,
                -1.1046971082687378,
                -2.4785075187683105
            ],
            "type" : "VEC3"
        },
        {
            "bufferView" : 1,
            "componentType" : 5126,
            "count" : 18761,
            "type" : "VEC3"
        },
        {
            "bufferView" : 2,
            "componentType" : 5126,
            "count" : 18761,
            "type" : "VEC2"
        },
        {
            "bufferView" : 3,
            "componentType" : 5123,
            "count" : 18761,
            "type" : "VEC4"
        },
        {
            "bufferView" : 4,
            "componentType" : 5126,
            "count" : 18761,
            "type" : "VEC4"
        },
        {
            "bufferView" : 5,
            "componentType" : 5123,
            "count" : 46638,
            "type" : "SCALAR"
        }
    ],
    "bufferViews" : [
        {
            "buffer" : 0,
            "byteLength" : 225132,
            "byteOffset" : 0
        },
        {
            "buffer" : 0,
            "byteLength" : 225132,
            "byteOffset" : 225132
        },
        {
            "buffer" : 0,
            "byteLength" : 150088,
            "byteOffset" : 450264
        },
        {
            "buffer" : 0,
            "byteLength" : 150088,
            "byteOffset" : 600352
        },
        {
            "buffer" : 0,
            "byteLength" : 300176,
            "byteOffset" : 750440
        },
        {
            "buffer" : 0,
            "byteLength" : 93276,
            "byteOffset" : 1050616
        }
    ],
    "buffers" : [
        {
            "byteLength" : 1143892,
            "uri" : "dumpster-closed.bin"
        }
    ]
}
