{
    "asset" : {
        "generator" : "Khronos glTF Blender I/O v1.1.46",
        "version" : "2.0"
    },
    "scene" : 0,
    "scenes" : [
        {
            "name" : "Scene",
            "nodes" : [
                0,
                1
            ]
        }
    ],
    "nodes" : [
        {
            "mesh" : 0,
            "name" : "Male body",
            "scale" : [
                1.0565943717956543,
                1.0565943717956543,
                1.0565943717956543
            ],
            "translation" : [
                0,
                -0.11515623331069946,
                0
            ]
        },
        {
            "mesh" : 1,
            "name" : "Male Trench Coat",
            "scale" : [
                1.0565943717956543,
                1.0565943717956543,
                1.0565943717956543
            ],
            "translation" : [
                0,
                -0.11515623331069946,
                0
            ]
        }
    ],
    "materials" : [
        {
            "doubleSided" : true,
            "emissiveFactor" : [
                0,
                0,
                0
            ],
            "name" : "Skin",
            "pbrMetallicRoughness" : {
                "baseColorFactor" : [
                    1,
                    0.590618908405304,
                    0.4072403311729431,
                    1
                ],
                "metallicFactor" : 0,
                "roughnessFactor" : 0.8119266033172607
            }
        },
        {
            "doubleSided" : true,
            "emissiveFactor" : [
                0,
                0,
                0
            ],
            "name" : "Eyes",
            "pbrMetallicRoughness" : {
                "baseColorFactor" : [
                    0.059071145951747894,
                    0.02240164391696453,
                    0.22153596580028534,
                    1
                ],
                "metallicFactor" : 0,
                "roughnessFactor" : 0.5
            }
        },
        {
            "doubleSided" : true,
            "emissiveFactor" : [
                0,
                0,
                0
            ],
            "name" : "Eye glare",
            "pbrMetallicRoughness" : {
                "baseColorFactor" : [
                    0.2550189197063446,
                    0.2744557857513428,
                    0.8000000715255737,
                    1
                ],
                "metallicFactor" : 0,
                "roughnessFactor" : 0.5
            }
        },
        {
            "doubleSided" : true,
            "emissiveFactor" : [
                0,
                0,
                0
            ],
            "name" : "Coat.001",
            "pbrMetallicRoughness" : {
                "baseColorFactor" : [
                    0.2697363793849945,
                    0.09587861597537994,
                    0.03661061450839043,
                    1
                ],
                "metallicFactor" : 0,
                "roughnessFactor" : 0.8302752375602722
            }
        },
        {
            "doubleSided" : true,
            "emissiveFactor" : [
                0,
                0,
                0
            ],
            "name" : "Pants",
            "pbrMetallicRoughness" : {
                "baseColorFactor" : [
                    0,
                    0,
                    0,
                    1
                ],
                "metallicFactor" : 0,
                "roughnessFactor" : 0.8486238718032837
            }
        },
        {
            "doubleSided" : true,
            "emissiveFactor" : [
                0,
                0,
                0
            ],
            "name" : "Shirt",
            "pbrMetallicRoughness" : {
                "baseColorFactor" : [
                    0.48780596256256104,
                    0.48780596256256104,
                    0.48780596256256104,
                    1
                ],
                "metallicFactor" : 0,
                "roughnessFactor" : 0.5
            }
        },
        {
            "doubleSided" : true,
            "emissiveFactor" : [
                0,
                0,
                0
            ],
            "name" : "Boots",
            "pbrMetallicRoughness" : {
                "baseColorFactor" : [
                    0.002493065083399415,
                    0.0014833348104730248,
                    0.004255435895174742,
                    1
                ],
                "metallicFactor" : 0,
                "roughnessFactor" : 1
            }
        },
        {
            "doubleSided" : true,
            "emissiveFactor" : [
                0,
                0,
                0
            ],
            "name" : "Material.003",
            "pbrMetallicRoughness" : {
                "baseColorFactor" : [
                    0.019058099016547203,
                    0.008662951178848743,
                    0.05811116844415665,
                    1
                ],
                "metallicFactor" : 0,
                "roughnessFactor" : 0.6972477436065674
            }
        },
        {
            "doubleSided" : true,
            "emissiveFactor" : [
                0,
                0,
                0
            ],
            "name" : "Material.013",
            "pbrMetallicRoughness" : {
                "baseColorFactor" : [
                    0.30054378509521484,
                    0.13563336431980133,
                    0.061246056109666824,
                    1
                ],
                "metallicFactor" : 0,
                "roughnessFactor" : 1
            }
        },
        {
            "doubleSided" : true,
            "emissiveFactor" : [
                0,
                0,
                0
            ],
            "name" : "Material.006",
            "pbrMetallicRoughness" : {
                "baseColorFactor" : [
                    0.022084936499595642,
                    0.022084936499595642,
                    0.022084936499595642,
                    1
                ],
                "metallicFactor" : 0,
                "roughnessFactor" : 0.5
            }
        }
    ],
    "meshes" : [
        {
            "name" : "Cube.001",
            "primitives" : [
                {
                    "attributes" : {
                        "POSITION" : 0,
                        "NORMAL" : 1,
                        "TEXCOORD_0" : 2
                    },
                    "indices" : 3,
                    "material" : 0
                },
                {
                    "attributes" : {
                        "POSITION" : 4,
                        "NORMAL" : 5,
                        "TEXCOORD_0" : 6
                    },
                    "indices" : 7,
                    "material" : 1
                },
                {
                    "attributes" : {
                        "POSITION" : 8,
                        "NORMAL" : 9,
                        "TEXCOORD_0" : 10
                    },
                    "indices" : 11,
                    "material" : 2
                },
                {
                    "attributes" : {
                        "POSITION" : 12,
                        "NORMAL" : 13,
                        "TEXCOORD_0" : 14
                    },
                    "indices" : 15,
                    "material" : 3
                },
                {
                    "attributes" : {
                        "POSITION" : 16,
                        "NORMAL" : 17,
                        "TEXCOORD_0" : 18
                    },
                    "indices" : 19,
                    "material" : 4
                },
                {
                    "attributes" : {
                        "POSITION" : 20,
                        "NORMAL" : 21,
                        "TEXCOORD_0" : 22
                    },
                    "indices" : 23,
                    "material" : 5
                },
                {
                    "attributes" : {
                        "POSITION" : 24,
                        "NORMAL" : 25,
                        "TEXCOORD_0" : 26
                    },
                    "indices" : 27,
                    "material" : 6
                },
                {
                    "attributes" : {
                        "POSITION" : 28,
                        "NORMAL" : 29,
                        "TEXCOORD_0" : 30
                    },
                    "indices" : 31,
                    "material" : 7
                }
            ]
        },
        {
            "name" : "Cube.013",
            "primitives" : [
                {
                    "attributes" : {
                        "POSITION" : 32,
                        "NORMAL" : 33,
                        "TEXCOORD_0" : 34
                    },
                    "indices" : 35,
                    "material" : 8
                },
                {
                    "attributes" : {
                        "POSITION" : 36,
                        "NORMAL" : 37,
                        "TEXCOORD_0" : 38
                    },
                    "indices" : 39,
                    "material" : 9
                }
            ]
        }
    ],
    "accessors" : [
        {
            "bufferView" : 0,
            "componentType" : 5126,
            "count" : 423,
            "max" : [
                0.4543378949165344,
                2.676882743835449,
                0.2512876093387604
            ],
            "min" : [
                -0.4543378949165344,
                1.095601201057434,
                -0.29025664925575256
            ],
            "type" : "VEC3"
        },
        {
            "bufferView" : 1,
            "componentType" : 5126,
            "count" : 423,
            "type" : "VEC3"
        },
        {
            "bufferView" : 2,
            "componentType" : 5126,
            "count" : 423,
            "type" : "VEC2"
        },
        {
            "bufferView" : 3,
            "componentType" : 5123,
            "count" : 1884,
            "type" : "SCALAR"
        },
        {
            "bufferView" : 4,
            "componentType" : 5126,
            "count" : 30,
            "max" : [
                0.11548031866550446,
                2.2995755672454834,
                0.1925729215145111
            ],
            "min" : [
                -0.11548031866550446,
                2.237992763519287,
                0.16357645392417908
            ],
            "type" : "VEC3"
        },
        {
            "bufferView" : 5,
            "componentType" : 5126,
            "count" : 30,
            "type" : "VEC3"
        },
        {
            "bufferView" : 6,
            "componentType" : 5126,
            "count" : 30,
            "type" : "VEC2"
        },
        {
            "bufferView" : 7,
            "componentType" : 5123,
            "count" : 90,
            "type" : "SCALAR"
        },
        {
            "bufferView" : 8,
            "componentType" : 5126,
            "count" : 16,
            "max" : [
                0.11548031866550446,
                2.2615504264831543,
                0.18435020744800568
            ],
            "min" : [
                -0.11548031866550446,
                2.2196433544158936,
                0.16047710180282593
            ],
            "type" : "VEC3"
        },
        {
            "bufferView" : 9,
            "componentType" : 5126,
            "count" : 16,
            "type" : "VEC3"
        },
        {
            "bufferView" : 10,
            "componentType" : 5126,
            "count" : 16,
            "type" : "VEC2"
        },
        {
            "bufferView" : 11,
            "componentType" : 5123,
            "count" : 36,
            "type" : "SCALAR"
        },
        {
            "bufferView" : 12,
            "componentType" : 5126,
            "count" : 6,
            "max" : [
                0.08085241913795471,
                2.2025201320648193,
                0.005602279677987099
            ],
            "min" : [
                0.048116203397512436,
                2.00531268119812,
                -0.06335782259702682
            ],
            "type" : "VEC3"
        },
        {
            "bufferView" : 13,
            "componentType" : 5126,
            "count" : 6,
            "type" : "VEC3"
        },
        {
            "bufferView" : 14,
            "componentType" : 5126,
            "count" : 6,
            "type" : "VEC2"
        },
        {
            "bufferView" : 15,
            "componentType" : 5123,
            "count" : 12,
            "type" : "SCALAR"
        },
        {
            "bufferView" : 16,
            "componentType" : 5126,
            "count" : 128,
            "max" : [
                0.2703370749950409,
                1.3507658243179321,
                0.1360432654619217
            ],
            "min" : [
                -0.2703370749950409,
                0.39066261053085327,
                -0.15599505603313446
            ],
            "type" : "VEC3"
        },
        {
            "bufferView" : 17,
            "componentType" : 5126,
            "count" : 128,
            "type" : "VEC3"
        },
        {
            "bufferView" : 18,
            "componentType" : 5126,
            "count" : 128,
            "type" : "VEC2"
        },
        {
            "bufferView" : 19,
            "componentType" : 5123,
            "count" : 684,
            "type" : "SCALAR"
        },
        {
            "bufferView" : 20,
            "componentType" : 5126,
            "count" : 118,
            "max" : [
                0.4365127980709076,
                2.0757439136505127,
                0.1360432654619217
            ],
            "min" : [
                -0.4365127980709076,
                1.2768524885177612,
                -0.1760091632604599
            ],
            "type" : "VEC3"
        },
        {
            "bufferView" : 21,
            "componentType" : 5126,
            "count" : 118,
            "type" : "VEC3"
        },
        {
            "bufferView" : 22,
            "componentType" : 5126,
            "count" : 118,
            "type" : "VEC2"
        },
        {
            "bufferView" : 23,
            "componentType" : 5123,
            "count" : 648,
            "type" : "SCALAR"
        },
        {
            "bufferView" : 24,
            "componentType" : 5126,
            "count" : 72,
            "max" : [
                0.20265263319015503,
                0.4266798496246338,
                0.21421535313129425
            ],
            "min" : [
                -0.20265263319015503,
                0.0854097455739975,
                -0.21532461047172546
            ],
            "type" : "VEC3"
        },
        {
            "bufferView" : 25,
            "componentType" : 5126,
            "count" : 72,
            "type" : "VEC3"
        },
        {
            "bufferView" : 26,
            "componentType" : 5126,
            "count" : 72,
            "type" : "VEC2"
        },
        {
            "bufferView" : 27,
            "componentType" : 5123,
            "count" : 384,
            "type" : "SCALAR"
        },
        {
            "bufferView" : 28,
            "componentType" : 5126,
            "count" : 707,
            "max" : [
                0.28200140595436096,
                2.700958490371704,
                0.2717363238334656
            ],
            "min" : [
                -0.27482810616493225,
                2.166447877883911,
                -0.3084638714790344
            ],
            "type" : "VEC3"
        },
        {
            "bufferView" : 29,
            "componentType" : 5126,
            "count" : 707,
            "type" : "VEC3"
        },
        {
            "bufferView" : 30,
            "componentType" : 5126,
            "count" : 707,
            "type" : "VEC2"
        },
        {
            "bufferView" : 31,
            "componentType" : 5123,
            "count" : 3975,
            "type" : "SCALAR"
        },
        {
            "bufferView" : 32,
            "componentType" : 5126,
            "count" : 145,
            "max" : [
                0.445380836725235,
                2.070834159851074,
                0.17290259897708893
            ],
            "min" : [
                -0.445380836725235,
                0.6147008538246155,
                -0.23178711533546448
            ],
            "type" : "VEC3"
        },
        {
            "bufferView" : 33,
            "componentType" : 5126,
            "count" : 145,
            "type" : "VEC3"
        },
        {
            "bufferView" : 34,
            "componentType" : 5126,
            "count" : 145,
            "type" : "VEC2"
        },
        {
            "bufferView" : 35,
            "componentType" : 5123,
            "count" : 648,
            "type" : "SCALAR"
        },
        {
            "bufferView" : 36,
            "componentType" : 5126,
            "count" : 1480,
            "max" : [
                0.13542687892913818,
                1.6168087720870972,
                0.16834168136119843
            ],
            "min" : [
                -0.13542687892913818,
                1.4413305521011353,
                0.1549006551504135
            ],
            "type" : "VEC3"
        },
        {
            "bufferView" : 37,
            "componentType" : 5126,
            "count" : 1480,
            "type" : "VEC3"
        },
        {
            "bufferView" : 38,
            "componentType" : 5126,
            "count" : 1480,
            "type" : "VEC2"
        },
        {
            "bufferView" : 39,
            "componentType" : 5123,
            "count" : 2616,
            "type" : "SCALAR"
        }
    ],
    "bufferViews" : [
        {
            "buffer" : 0,
            "byteLength" : 5076,
            "byteOffset" : 0
        },
        {
            "buffer" : 0,
            "byteLength" : 5076,
            "byteOffset" : 5076
        },
        {
            "buffer" : 0,
            "byteLength" : 3384,
            "byteOffset" : 10152
        },
        {
            "buffer" : 0,
            "byteLength" : 3768,
            "byteOffset" : 13536
        },
        {
            "buffer" : 0,
            "byteLength" : 360,
            "byteOffset" : 17304
        },
        {
            "buffer" : 0,
            "byteLength" : 360,
            "byteOffset" : 17664
        },
        {
            "buffer" : 0,
            "byteLength" : 240,
            "byteOffset" : 18024
        },
        {
            "buffer" : 0,
            "byteLength" : 180,
            "byteOffset" : 18264
        },
        {
            "buffer" : 0,
            "byteLength" : 192,
            "byteOffset" : 18444
        },
        {
            "buffer" : 0,
            "byteLength" : 192,
            "byteOffset" : 18636
        },
        {
            "buffer" : 0,
            "byteLength" : 128,
            "byteOffset" : 18828
        },
        {
            "buffer" : 0,
            "byteLength" : 72,
            "byteOffset" : 18956
        },
        {
            "buffer" : 0,
            "byteLength" : 72,
            "byteOffset" : 19028
        },
        {
            "buffer" : 0,
            "byteLength" : 72,
            "byteOffset" : 19100
        },
        {
            "buffer" : 0,
            "byteLength" : 48,
            "byteOffset" : 19172
        },
        {
            "buffer" : 0,
            "byteLength" : 24,
            "byteOffset" : 19220
        },
        {
            "buffer" : 0,
            "byteLength" : 1536,
            "byteOffset" : 19244
        },
        {
            "buffer" : 0,
            "byteLength" : 1536,
            "byteOffset" : 20780
        },
        {
            "buffer" : 0,
            "byteLength" : 1024,
            "byteOffset" : 22316
        },
        {
            "buffer" : 0,
            "byteLength" : 1368,
            "byteOffset" : 23340
        },
        {
            "buffer" : 0,
            "byteLength" : 1416,
            "byteOffset" : 24708
        },
        {
            "buffer" : 0,
            "byteLength" : 1416,
            "byteOffset" : 26124
        },
        {
            "buffer" : 0,
            "byteLength" : 944,
            "byteOffset" : 27540
        },
        {
            "buffer" : 0,
            "byteLength" : 1296,
            "byteOffset" : 28484
        },
        {
            "buffer" : 0,
            "byteLength" : 864,
            "byteOffset" : 29780
        },
        {
            "buffer" : 0,
            "byteLength" : 864,
            "byteOffset" : 30644
        },
        {
            "buffer" : 0,
            "byteLength" : 576,
            "byteOffset" : 31508
        },
        {
            "buffer" : 0,
            "byteLength" : 768,
            "byteOffset" : 32084
        },
        {
            "buffer" : 0,
            "byteLength" : 8484,
            "byteOffset" : 32852
        },
        {
            "buffer" : 0,
            "byteLength" : 8484,
            "byteOffset" : 41336
        },
        {
            "buffer" : 0,
            "byteLength" : 5656,
            "byteOffset" : 49820
        },
        {
            "buffer" : 0,
            "byteLength" : 7950,
            "byteOffset" : 55476
        },
        {
            "buffer" : 0,
            "byteLength" : 1740,
            "byteOffset" : 63428
        },
        {
            "buffer" : 0,
            "byteLength" : 1740,
            "byteOffset" : 65168
        },
        {
            "buffer" : 0,
            "byteLength" : 1160,
            "byteOffset" : 66908
        },
        {
            "buffer" : 0,
            "byteLength" : 1296,
            "byteOffset" : 68068
        },
        {
            "buffer" : 0,
            "byteLength" : 17760,
            "byteOffset" : 69364
        },
        {
            "buffer" : 0,
            "byteLength" : 17760,
            "byteOffset" : 87124
        },
        {
            "buffer" : 0,
            "byteLength" : 11840,
            "byteOffset" : 104884
        },
        {
            "buffer" : 0,
            "byteLength" : 5232,
            "byteOffset" : 116724
        }
    ],
    "buffers" : [
        {
            "byteLength" : 121956,
            "uri" : "male-char.bin"
        }
    ]
}
