{
    "asset" : {
        "generator" : "Khronos glTF Blender I/O v1.1.46",
        "version" : "2.0"
    },
    "scene" : 0,
    "scenes" : [
        {
            "name" : "Scene",
            "nodes" : [
                0,
                1,
                2,
                3,
                4,
                5,
                6
            ]
        }
    ],
    "nodes" : [
        {
            "mesh" : 0,
            "name" : "eyeballs",
            "rotation" : [
                0,
                0.6530017852783203,
                0,
                -0.7573564052581787
            ],
            "scale" : [
                -1.0774610042572021,
                1.0774610042572021,
                -1.0774610042572021
            ],
            "translation" : [
                1.15077543258667,
                0.5738814473152161,
                0.25944483280181885
            ]
        },
        {
            "mesh" : 1,
            "name" : "Mouth",
            "rotation" : [
                -0.24756117165088654,
                -0.5575117468833923,
                -0.34247204661369324,
                0.7145677208900452
            ],
            "scale" : [
                -0.2075062096118927,
                -0.5596635341644287,
                0.1421743780374527
            ],
            "translation" : [
                1.3354196548461914,
                0.4866803288459778,
                0.3752487003803253
            ]
        },
        {
            "mesh" : 2,
            "name" : "Eye lines",
            "rotation" : [
                0,
                0.6530017852783203,
                0,
                -0.7573564052581787
            ],
            "scale" : [
                1,
                -0.30145716667175293,
                1
            ],
            "translation" : [
                1.3215885162353516,
                0.06607532501220703,
                0.0006560971378348768
            ]
        },
        {
            "mesh" : 3,
            "name" : "Laser Canons",
            "rotation" : [
                -0.45565834641456604,
                0.46774646639823914,
                0.5284759998321533,
                -0.5424959063529968
            ],
            "translation" : [
                1.3214912414550781,
                -0.00431513786315918,
                0
            ]
        },
        {
            "mesh" : 4,
            "name" : "Legs.001",
            "rotation" : [
                0,
                0.6530017852783203,
                0,
                -0.7573564052581787
            ],
            "translation" : [
                1.3214912414550781,
                0.054156094789505005,
                0
            ]
        },
        {
            "mesh" : 5,
            "name" : "Ears",
            "rotation" : [
                -0.5355318784713745,
                0.46174195408821106,
                -0.46174198389053345,
                -0.5355318188667297
            ],
            "scale" : [
                1.0246719121932983,
                1.083125114440918,
                0.9145621061325073
            ],
            "translation" : [
                1.3214912414550781,
                0.18484392762184143,
                0
            ]
        },
        {
            "mesh" : 6,
            "name" : "body",
            "rotation" : [
                0,
                0.6530017852783203,
                0,
                -0.7573564052581787
            ],
            "scale" : [
                1,
                0.748700737953186,
                1
            ],
            "translation" : [
                1.3214912414550781,
                0.5038016438484192,
                0
            ]
        }
    ],
    "materials" : [
        {
            "doubleSided" : true,
            "emissiveFactor" : [
                0,
                0,
                0
            ],
            "name" : "Material.010",
            "pbrMetallicRoughness" : {
                "baseColorFactor" : [
                    0,
                    0,
                    0,
                    1
                ],
                "metallicFactor" : 0,
                "roughnessFactor" : 0.5
            }
        },
        {
            "doubleSided" : true,
            "emissiveFactor" : [
                0,
                0,
                0
            ],
            "name" : "Material.009",
            "pbrMetallicRoughness" : {
                "baseColorFactor" : [
                    0,
                    0,
                    0,
                    1
                ],
                "metallicFactor" : 0,
                "roughnessFactor" : 0.5
            }
        },
        {
            "doubleSided" : true,
            "emissiveFactor" : [
                0,
                0,
                0
            ],
            "name" : "Material.004",
            "pbrMetallicRoughness" : {
                "baseColorFactor" : [
                    0.9402367472648621,
                    0.9402367472648621,
                    0.9402367472648621,
                    1
                ],
                "metallicFactor" : 0.10091745853424072,
                "roughnessFactor" : 0.29816514253616333
            }
        },
        {
            "doubleSided" : true,
            "emissiveFactor" : [
                0,
                0,
                0
            ],
            "name" : "Material.011",
            "pbrMetallicRoughness" : {
                "baseColorFactor" : [
                    0.893976092338562,
                    0.893976092338562,
                    0.893976092338562,
                    1
                ],
                "metallicFactor" : 0.14678901433944702,
                "roughnessFactor" : 0.2431192696094513
            }
        },
        {
            "doubleSided" : true,
            "emissiveFactor" : [
                0,
                0,
                0
            ],
            "name" : "Material.012",
            "pbrMetallicRoughness" : {
                "baseColorFactor" : [
                    0.2088344544172287,
                    0.8000000715255737,
                    0.7907872200012207,
                    1
                ],
                "metallicFactor" : 0.44954127073287964,
                "roughnessFactor" : 0.37155961990356445
            }
        },
        {
            "doubleSided" : true,
            "emissiveFactor" : [
                0,
                0,
                0
            ],
            "name" : "Material.001",
            "pbrMetallicRoughness" : {
                "baseColorFactor" : [
                    0.7223729491233826,
                    0.7223729491233826,
                    0.7223729491233826,
                    1
                ],
                "metallicFactor" : 0.2110091745853424,
                "roughnessFactor" : 0.35321101546287537
            }
        }
    ],
    "meshes" : [
        {
            "name" : "Sphere.005",
            "primitives" : [
                {
                    "attributes" : {
                        "POSITION" : 0,
                        "NORMAL" : 1,
                        "TEXCOORD_0" : 2
                    },
                    "indices" : 3
                }
            ]
        },
        {
            "name" : "Cube.010",
            "primitives" : [
                {
                    "attributes" : {
                        "POSITION" : 4,
                        "NORMAL" : 5,
                        "TEXCOORD_0" : 6
                    },
                    "indices" : 7,
                    "material" : 0
                }
            ]
        },
        {
            "name" : "Cube.015",
            "primitives" : [
                {
                    "attributes" : {
                        "POSITION" : 8,
                        "NORMAL" : 9,
                        "TEXCOORD_0" : 10
                    },
                    "indices" : 11,
                    "material" : 1
                }
            ]
        },
        {
            "name" : "Cylinder",
            "primitives" : [
                {
                    "attributes" : {
                        "POSITION" : 12,
                        "NORMAL" : 13,
                        "TEXCOORD_0" : 14
                    },
                    "indices" : 15,
                    "material" : 2
                }
            ]
        },
        {
            "name" : "Cylinder.001",
            "primitives" : [
                {
                    "attributes" : {
                        "POSITION" : 16,
                        "NORMAL" : 17,
                        "TEXCOORD_0" : 18
                    },
                    "indices" : 19,
                    "material" : 3
                }
            ]
        },
        {
            "name" : "Cylinder.006",
            "primitives" : [
                {
                    "attributes" : {
                        "POSITION" : 20,
                        "NORMAL" : 21,
                        "TEXCOORD_0" : 22
                    },
                    "indices" : 23,
                    "material" : 4
                }
            ]
        },
        {
            "name" : "Sphere.004",
            "primitives" : [
                {
                    "attributes" : {
                        "POSITION" : 24,
                        "NORMAL" : 25,
                        "TEXCOORD_0" : 26
                    },
                    "indices" : 27,
                    "material" : 5
                }
            ]
        }
    ],
    "accessors" : [
        {
            "bufferView" : 0,
            "componentType" : 5126,
            "count" : 3600,
            "max" : [
                0.09298870712518692,
                0.09743254631757736,
                0.477099746465683
            ],
            "min" : [
                -0.09298868477344513,
                -0.09743254631757736,
                -0.09299654513597488
            ],
            "type" : "VEC3"
        },
        {
            "bufferView" : 1,
            "componentType" : 5126,
            "count" : 3600,
            "type" : "VEC3"
        },
        {
            "bufferView" : 2,
            "componentType" : 5126,
            "count" : 3600,
            "type" : "VEC2"
        },
        {
            "bufferView" : 3,
            "componentType" : 5123,
            "count" : 16224,
            "type" : "SCALAR"
        },
        {
            "bufferView" : 4,
            "componentType" : 5126,
            "count" : 48,
            "max" : [
                0.1250002384185791,
                0.125,
                0.125
            ],
            "min" : [
                -0.125,
                -0.1601138561964035,
                -0.8944254517555237
            ],
            "type" : "VEC3"
        },
        {
            "bufferView" : 5,
            "componentType" : 5126,
            "count" : 48,
            "type" : "VEC3"
        },
        {
            "bufferView" : 6,
            "componentType" : 5126,
            "count" : 48,
            "type" : "VEC2"
        },
        {
            "bufferView" : 7,
            "componentType" : 5123,
            "count" : 72,
            "type" : "SCALAR"
        },
        {
            "bufferView" : 8,
            "componentType" : 5126,
            "count" : 48,
            "max" : [
                0.35433870553970337,
                -1.6092439889907837,
                0.3069535493850708
            ],
            "min" : [
                0.27458930015563965,
                -1.8385794162750244,
                -0.3069535493850708
            ],
            "type" : "VEC3"
        },
        {
            "bufferView" : 9,
            "componentType" : 5126,
            "count" : 48,
            "type" : "VEC3"
        },
        {
            "bufferView" : 10,
            "componentType" : 5126,
            "count" : 48,
            "type" : "VEC2"
        },
        {
            "bufferView" : 11,
            "componentType" : 5123,
            "count" : 72,
            "type" : "SCALAR"
        },
        {
            "bufferView" : 12,
            "componentType" : 5126,
            "count" : 1688,
            "max" : [
                -0.24075661599636078,
                0.24653595685958862,
                0.5734075903892517
            ],
            "min" : [
                -0.449888676404953,
                -0.18424788117408752,
                -0.5734075903892517
            ],
            "type" : "VEC3"
        },
        {
            "bufferView" : 13,
            "componentType" : 5126,
            "count" : 1688,
            "type" : "VEC3"
        },
        {
            "bufferView" : 14,
            "componentType" : 5126,
            "count" : 1688,
            "type" : "VEC2"
        },
        {
            "bufferView" : 15,
            "componentType" : 5123,
            "count" : 5760,
            "type" : "SCALAR"
        },
        {
            "bufferView" : 16,
            "componentType" : 5126,
            "count" : 4688,
            "max" : [
                0.2551749050617218,
                0.12816856801509857,
                0.36628881096839905
            ],
            "min" : [
                -0.3317035138607025,
                -0.0570819191634655,
                -0.36628881096839905
            ],
            "type" : "VEC3"
        },
        {
            "bufferView" : 17,
            "componentType" : 5126,
            "count" : 4688,
            "type" : "VEC3"
        },
        {
            "bufferView" : 18,
            "componentType" : 5126,
            "count" : 4688,
            "type" : "VEC2"
        },
        {
            "bufferView" : 19,
            "componentType" : 5123,
            "count" : 23040,
            "type" : "SCALAR"
        },
        {
            "bufferView" : 20,
            "componentType" : 5126,
            "count" : 3800,
            "max" : [
                0.23296725749969482,
                0.29380154609680176,
                -0.5007216334342957
            ],
            "min" : [
                -0.7662532925605774,
                -0.29380151629447937,
                -0.9562621712684631
            ],
            "type" : "VEC3"
        },
        {
            "bufferView" : 21,
            "componentType" : 5126,
            "count" : 3800,
            "type" : "VEC3"
        },
        {
            "bufferView" : 22,
            "componentType" : 5126,
            "count" : 3800,
            "type" : "VEC2"
        },
        {
            "bufferView" : 23,
            "componentType" : 5123,
            "count" : 14400,
            "type" : "SCALAR"
        },
        {
            "bufferView" : 24,
            "componentType" : 5126,
            "count" : 202,
            "max" : [
                0.3959284722805023,
                0.4000000059604645,
                0.39592835307121277
            ],
            "min" : [
                -0.39592841267585754,
                -0.4000000059604645,
                -0.39592859148979187
            ],
            "type" : "VEC3"
        },
        {
            "bufferView" : 25,
            "componentType" : 5126,
            "count" : 202,
            "type" : "VEC3"
        },
        {
            "bufferView" : 26,
            "componentType" : 5126,
            "count" : 202,
            "type" : "VEC2"
        },
        {
            "bufferView" : 27,
            "componentType" : 5123,
            "count" : 960,
            "type" : "SCALAR"
        }
    ],
    "bufferViews" : [
        {
            "buffer" : 0,
            "byteLength" : 43200,
            "byteOffset" : 0
        },
        {
            "buffer" : 0,
            "byteLength" : 43200,
            "byteOffset" : 43200
        },
        {
            "buffer" : 0,
            "byteLength" : 28800,
            "byteOffset" : 86400
        },
        {
            "buffer" : 0,
            "byteLength" : 32448,
            "byteOffset" : 115200
        },
        {
            "buffer" : 0,
            "byteLength" : 576,
            "byteOffset" : 147648
        },
        {
            "buffer" : 0,
            "byteLength" : 576,
            "byteOffset" : 148224
        },
        {
            "buffer" : 0,
            "byteLength" : 384,
            "byteOffset" : 148800
        },
        {
            "buffer" : 0,
            "byteLength" : 144,
            "byteOffset" : 149184
        },
        {
            "buffer" : 0,
            "byteLength" : 576,
            "byteOffset" : 149328
        },
        {
            "buffer" : 0,
            "byteLength" : 576,
            "byteOffset" : 149904
        },
        {
            "buffer" : 0,
            "byteLength" : 384,
            "byteOffset" : 150480
        },
        {
            "buffer" : 0,
            "byteLength" : 144,
            "byteOffset" : 150864
        },
        {
            "buffer" : 0,
            "byteLength" : 20256,
            "byteOffset" : 151008
        },
        {
            "buffer" : 0,
            "byteLength" : 20256,
            "byteOffset" : 171264
        },
        {
            "buffer" : 0,
            "byteLength" : 13504,
            "byteOffset" : 191520
        },
        {
            "buffer" : 0,
            "byteLength" : 11520,
            "byteOffset" : 205024
        },
        {
            "buffer" : 0,
            "byteLength" : 56256,
            "byteOffset" : 216544
        },
        {
            "buffer" : 0,
            "byteLength" : 56256,
            "byteOffset" : 272800
        },
        {
            "buffer" : 0,
            "byteLength" : 37504,
            "byteOffset" : 329056
        },
        {
            "buffer" : 0,
            "byteLength" : 46080,
            "byteOffset" : 366560
        },
        {
            "buffer" : 0,
            "byteLength" : 45600,
            "byteOffset" : 412640
        },
        {
            "buffer" : 0,
            "byteLength" : 45600,
            "byteOffset" : 458240
        },
        {
            "buffer" : 0,
            "byteLength" : 30400,
            "byteOffset" : 503840
        },
        {
            "buffer" : 0,
            "byteLength" : 28800,
            "byteOffset" : 534240
        },
        {
            "buffer" : 0,
            "byteLength" : 2424,
            "byteOffset" : 563040
        },
        {
            "buffer" : 0,
            "byteLength" : 2424,
            "byteOffset" : 565464
        },
        {
            "buffer" : 0,
            "byteLength" : 1616,
            "byteOffset" : 567888
        },
        {
            "buffer" : 0,
            "byteLength" : 1920,
            "byteOffset" : 569504
        }
    ],
    "buffers" : [
        {
            "byteLength" : 571424,
            "uri" : "minion-1.bin"
        }
    ]
}
