{
    "asset" : {
        "generator" : "Khronos glTF Blender I/O v0.9.36",
        "version" : "2.0"
    },
    "scene" : 0,
    "scenes" : [
        {
            "name" : "Scene",
            "nodes" : [
                0,
                1,
                2,
                3,
                4,
                5,
                6
            ]
        }
    ],
    "nodes" : [
        {
            "mesh" : 0,
            "name" : "body_Sphere.001",
            "rotation" : [
                0.7071068286895752,
                0,
                0,
                0.7071067094802856
            ]
        },
        {
            "mesh" : 1,
            "name" : "Ears_Cylinder.004",
            "rotation" : [
                0.7071068286895752,
                0,
                0,
                0.7071067094802856
            ]
        },
        {
            "mesh" : 2,
            "name" : "Eye_lines_Cube.002",
            "rotation" : [
                0.7071068286895752,
                0,
                0,
                0.7071067094802856
            ]
        },
        {
            "mesh" : 3,
            "name" : "eyeballs_Sphere.000",
            "rotation" : [
                0.7071068286895752,
                0,
                0,
                0.7071067094802856
            ]
        },
        {
            "mesh" : 4,
            "name" : "Laser_Canons_Cylinder.003",
            "rotation" : [
                0.7071068286895752,
                0,
                0,
                0.7071067094802856
            ]
        },
        {
            "mesh" : 5,
            "name" : "Legs.001_Cylinder.002",
            "rotation" : [
                0.7071068286895752,
                0,
                0,
                0.7071067094802856
            ]
        },
        {
            "mesh" : 6,
            "name" : "Mouth_Cube.001",
            "rotation" : [
                0.7071068286895752,
                0,
                0,
                0.7071067094802856
            ]
        }
    ],
    "materials" : [
        {
            "doubleSided" : true,
            "name" : "Material.013",
            "pbrMetallicRoughness" : {
                "baseColorFactor" : [
                    0.7223730087280273,
                    0.7223730087280273,
                    0.7223730087280273,
                    1
                ],
                "metallicFactor" : 0,
                "roughnessFactor" : 0.4000000059604645
            }
        },
        {
            "doubleSided" : true,
            "name" : "Material.014",
            "pbrMetallicRoughness" : {
                "baseColorFactor" : [
                    0.20883400738239288,
                    0.800000011920929,
                    0.7907869815826416,
                    1
                ],
                "metallicFactor" : 0,
                "roughnessFactor" : 0.4000000059604645
            }
        },
        {
            "doubleSided" : true,
            "name" : "Material.015",
            "pbrMetallicRoughness" : {
                "baseColorFactor" : [
                    0,
                    0,
                    0,
                    1
                ],
                "metallicFactor" : 0,
                "roughnessFactor" : 0.4000000059604645
            }
        },
        {
            "doubleSided" : true,
            "name" : "None",
            "pbrMetallicRoughness" : {
                "baseColorFactor" : [
                    0.800000011920929,
                    0.800000011920929,
                    0.800000011920929,
                    1
                ],
                "metallicFactor" : 0,
                "roughnessFactor" : 0.2546440064907074
            }
        },
        {
            "doubleSided" : true,
            "name" : "Material.016",
            "pbrMetallicRoughness" : {
                "baseColorFactor" : [
                    0.9402369856834412,
                    0.9402369856834412,
                    0.9402369856834412,
                    1
                ],
                "metallicFactor" : 0,
                "roughnessFactor" : 0.4000000059604645
            }
        },
        {
            "doubleSided" : true,
            "name" : "Material.017",
            "pbrMetallicRoughness" : {
                "baseColorFactor" : [
                    0.8939759731292725,
                    0.8939759731292725,
                    0.8939759731292725,
                    1
                ],
                "metallicFactor" : 0,
                "roughnessFactor" : 0.4000000059604645
            }
        },
        {
            "doubleSided" : true,
            "name" : "Material.018",
            "pbrMetallicRoughness" : {
                "baseColorFactor" : [
                    0,
                    0,
                    0,
                    1
                ],
                "metallicFactor" : 0,
                "roughnessFactor" : 0.4000000059604645
            }
        }
    ],
    "meshes" : [
        {
            "name" : "body_Sphere.001",
            "primitives" : [
                {
                    "attributes" : {
                        "POSITION" : 0,
                        "NORMAL" : 1,
                        "TEXCOORD_0" : 2
                    },
                    "indices" : 3,
                    "material" : 0
                }
            ]
        },
        {
            "name" : "Ears_Cylinder.004",
            "primitives" : [
                {
                    "attributes" : {
                        "POSITION" : 4,
                        "NORMAL" : 5,
                        "TEXCOORD_0" : 6
                    },
                    "indices" : 7,
                    "material" : 1
                }
            ]
        },
        {
            "name" : "Eye_lines_Cube.002",
            "primitives" : [
                {
                    "attributes" : {
                        "POSITION" : 8,
                        "NORMAL" : 9,
                        "TEXCOORD_0" : 10
                    },
                    "indices" : 11,
                    "material" : 2
                }
            ]
        },
        {
            "name" : "eyeballs_Sphere.000",
            "primitives" : [
                {
                    "attributes" : {
                        "POSITION" : 12,
                        "NORMAL" : 13,
                        "TEXCOORD_0" : 14
                    },
                    "indices" : 15,
                    "material" : 3
                }
            ]
        },
        {
            "name" : "Laser_Canons_Cylinder.003",
            "primitives" : [
                {
                    "attributes" : {
                        "POSITION" : 16,
                        "NORMAL" : 17,
                        "TEXCOORD_0" : 18
                    },
                    "indices" : 19,
                    "material" : 4
                }
            ]
        },
        {
            "name" : "Legs.001_Cylinder.002",
            "primitives" : [
                {
                    "attributes" : {
                        "POSITION" : 20,
                        "NORMAL" : 21,
                        "TEXCOORD_0" : 22
                    },
                    "indices" : 23,
                    "material" : 5
                }
            ]
        },
        {
            "name" : "Mouth_Cube.001",
            "primitives" : [
                {
                    "attributes" : {
                        "POSITION" : 24,
                        "NORMAL" : 25,
                        "TEXCOORD_0" : 26
                    },
                    "indices" : 27,
                    "material" : 6
                }
            ]
        }
    ],
    "accessors" : [
        {
            "bufferView" : 0,
            "componentType" : 5126,
            "count" : 202,
            "max" : [
                1.713107943534851,
                0.3916170001029968,
                -0.2043209969997406
            ],
            "min" : [
                0.9298740029335022,
                -0.3916170001029968,
                -0.8032820224761963
            ],
            "type" : "VEC3"
        },
        {
            "bufferView" : 1,
            "componentType" : 5126,
            "count" : 202,
            "type" : "VEC3"
        },
        {
            "bufferView" : 2,
            "componentType" : 5126,
            "count" : 202,
            "type" : "VEC2"
        },
        {
            "bufferView" : 3,
            "componentType" : 5123,
            "count" : 960,
            "type" : "SCALAR"
        },
        {
            "bufferView" : 4,
            "componentType" : 5126,
            "count" : 3879,
            "max" : [
                1.6026389598846436,
                0.25907498598098755,
                -0.6427850127220154
            ],
            "min" : [
                0.9293609857559204,
                -0.8138560056686401,
                -1.059404969215393
            ],
            "type" : "VEC3"
        },
        {
            "bufferView" : 5,
            "componentType" : 5126,
            "count" : 3879,
            "type" : "VEC3"
        },
        {
            "bufferView" : 6,
            "componentType" : 5126,
            "count" : 3879,
            "type" : "VEC2"
        },
        {
            "bufferView" : 7,
            "componentType" : 5123,
            "count" : 14400,
            "type" : "SCALAR"
        },
        {
            "bufferView" : 8,
            "componentType" : 5126,
            "count" : 70,
            "max" : [
                1.6688799858093262,
                0.3806779980659485,
                -0.5511940121650696
            ],
            "min" : [
                1.0616589784622192,
                0.22884899377822876,
                -0.6203280091285706
            ],
            "type" : "VEC3"
        },
        {
            "bufferView" : 9,
            "componentType" : 5126,
            "count" : 70,
            "type" : "VEC3"
        },
        {
            "bufferView" : 10,
            "componentType" : 5126,
            "count" : 70,
            "type" : "VEC2"
        },
        {
            "bufferView" : 11,
            "componentType" : 5123,
            "count" : 72,
            "type" : "SCALAR"
        },
        {
            "bufferView" : 12,
            "componentType" : 5126,
            "count" : 3600,
            "max" : [
                1.6602799892425537,
                0.3596090078353882,
                -0.46890199184417725
            ],
            "min" : [
                1.0506199598312378,
                0.0983709990978241,
                -0.6788610219955444
            ],
            "type" : "VEC3"
        },
        {
            "bufferView" : 13,
            "componentType" : 5126,
            "count" : 3600,
            "type" : "VEC3"
        },
        {
            "bufferView" : 14,
            "componentType" : 5126,
            "count" : 3600,
            "type" : "VEC2"
        },
        {
            "bufferView" : 15,
            "componentType" : 5123,
            "count" : 16224,
            "type" : "SCALAR"
        },
        {
            "bufferView" : 16,
            "componentType" : 5126,
            "count" : 1774,
            "max" : [
                1.9139659404754639,
                0.31262800097465515,
                -0.23655200004577637
            ],
            "min" : [
                0.7668970227241516,
                -0.26110199093818665,
                -0.4505079984664917
            ],
            "type" : "VEC3"
        },
        {
            "bufferView" : 17,
            "componentType" : 5126,
            "count" : 1774,
            "type" : "VEC3"
        },
        {
            "bufferView" : 18,
            "componentType" : 5126,
            "count" : 1774,
            "type" : "VEC2"
        },
        {
            "bufferView" : 19,
            "componentType" : 5123,
            "count" : 5760,
            "type" : "SCALAR"
        },
        {
            "bufferView" : 20,
            "componentType" : 5126,
            "count" : 4688,
            "max" : [
                1.7086379528045654,
                0.29876500368118286,
                0.00292599992826581
            ],
            "min" : [
                0.9179540276527405,
                -0.37476199865341187,
                -0.18232500553131104
            ],
            "type" : "VEC3"
        },
        {
            "bufferView" : 21,
            "componentType" : 5126,
            "count" : 4688,
            "type" : "VEC3"
        },
        {
            "bufferView" : 22,
            "componentType" : 5126,
            "count" : 4688,
            "type" : "VEC2"
        },
        {
            "bufferView" : 23,
            "componentType" : 5123,
            "count" : 23040,
            "type" : "SCALAR"
        },
        {
            "bufferView" : 24,
            "componentType" : 5126,
            "count" : 72,
            "max" : [
                1.4843440055847168,
                0.4068230092525482,
                -0.4225820004940033
            ],
            "min" : [
                1.2669930458068848,
                0.31918400526046753,
                -0.5502619743347168
            ],
            "type" : "VEC3"
        },
        {
            "bufferView" : 25,
            "componentType" : 5126,
            "count" : 72,
            "type" : "VEC3"
        },
        {
            "bufferView" : 26,
            "componentType" : 5126,
            "count" : 72,
            "type" : "VEC2"
        },
        {
            "bufferView" : 27,
            "componentType" : 5123,
            "count" : 72,
            "type" : "SCALAR"
        }
    ],
    "bufferViews" : [
        {
            "buffer" : 0,
            "byteLength" : 2424,
            "byteOffset" : 0
        },
        {
            "buffer" : 0,
            "byteLength" : 2424,
            "byteOffset" : 2424
        },
        {
            "buffer" : 0,
            "byteLength" : 1616,
            "byteOffset" : 4848
        },
        {
            "buffer" : 0,
            "byteLength" : 1920,
            "byteOffset" : 6464
        },
        {
            "buffer" : 0,
            "byteLength" : 46548,
            "byteOffset" : 8384
        },
        {
            "buffer" : 0,
            "byteLength" : 46548,
            "byteOffset" : 54932
        },
        {
            "buffer" : 0,
            "byteLength" : 31032,
            "byteOffset" : 101480
        },
        {
            "buffer" : 0,
            "byteLength" : 28800,
            "byteOffset" : 132512
        },
        {
            "buffer" : 0,
            "byteLength" : 840,
            "byteOffset" : 161312
        },
        {
            "buffer" : 0,
            "byteLength" : 840,
            "byteOffset" : 162152
        },
        {
            "buffer" : 0,
            "byteLength" : 560,
            "byteOffset" : 162992
        },
        {
            "buffer" : 0,
            "byteLength" : 144,
            "byteOffset" : 163552
        },
        {
            "buffer" : 0,
            "byteLength" : 43200,
            "byteOffset" : 163696
        },
        {
            "buffer" : 0,
            "byteLength" : 43200,
            "byteOffset" : 206896
        },
        {
            "buffer" : 0,
            "byteLength" : 28800,
            "byteOffset" : 250096
        },
        {
            "buffer" : 0,
            "byteLength" : 32448,
            "byteOffset" : 278896
        },
        {
            "buffer" : 0,
            "byteLength" : 21288,
            "byteOffset" : 311344
        },
        {
            "buffer" : 0,
            "byteLength" : 21288,
            "byteOffset" : 332632
        },
        {
            "buffer" : 0,
            "byteLength" : 14192,
            "byteOffset" : 353920
        },
        {
            "buffer" : 0,
            "byteLength" : 11520,
            "byteOffset" : 368112
        },
        {
            "buffer" : 0,
            "byteLength" : 56256,
            "byteOffset" : 379632
        },
        {
            "buffer" : 0,
            "byteLength" : 56256,
            "byteOffset" : 435888
        },
        {
            "buffer" : 0,
            "byteLength" : 37504,
            "byteOffset" : 492144
        },
        {
            "buffer" : 0,
            "byteLength" : 46080,
            "byteOffset" : 529648
        },
        {
            "buffer" : 0,
            "byteLength" : 864,
            "byteOffset" : 575728
        },
        {
            "buffer" : 0,
            "byteLength" : 864,
            "byteOffset" : 576592
        },
        {
            "buffer" : 0,
            "byteLength" : 576,
            "byteOffset" : 577456
        },
        {
            "buffer" : 0,
            "byteLength" : 144,
            "byteOffset" : 578032
        }
    ],
    "buffers" : [
        {
            "byteLength" : 578176,
            "uri" : "minion-retry.bin"
        }
    ]
}
