{
    "asset" : {
        "generator" : "Khronos glTF Blender I/O v1.1.46",
        "version" : "2.0"
    },
    "scene" : 0,
    "scenes" : [
        {
            "name" : "Scene",
            "nodes" : [
                0
            ]
        }
    ],
    "nodes" : [
        {
            "mesh" : 0,
            "name" : "Small minion",
            "rotation" : [
                0,
                0.6530017852783203,
                0,
                -0.7573564052581787
            ]
        }
    ],
    "materials" : [
        {
            "doubleSided" : true,
            "emissiveFactor" : [
                0,
                0,
                0
            ],
            "name" : "Base body",
            "pbrMetallicRoughness" : {
                "baseColorFactor" : [
                    1,
                    1,
                    1,
                    1
                ],
                "metallicFactor" : 0.11009174585342407,
                "roughnessFactor" : 0.24770642817020416
            }
        },
        {
            "doubleSided" : true,
            "emissiveFactor" : [
                0,
                0,
                0
            ],
            "name" : "Ears",
            "pbrMetallicRoughness" : {
                "baseColorFactor" : [
                    0.2088344544172287,
                    0.8000000715255737,
                    0.7907872200012207,
                    1
                ],
                "metallicFactor" : 0.44954127073287964,
                "roughnessFactor" : 0.37155961990356445
            }
        },
        {
            "doubleSided" : true,
            "emissiveFactor" : [
                0,
                0.8617646098136902,
                0.8713098764419556
            ],
            "name" : "Face",
            "pbrMetallicRoughness" : {
                "baseColorFactor" : [
                    0,
                    0,
                    0,
                    1
                ],
                "metallicFactor" : 0,
                "roughnessFactor" : 0.5
            }
        }
    ],
    "meshes" : [
        {
            "name" : "Cylinder.001",
            "primitives" : [
                {
                    "attributes" : {
                        "POSITION" : 0,
                        "NORMAL" : 1,
                        "TEXCOORD_0" : 2,
                        "JOINTS_0" : 3,
                        "WEIGHTS_0" : 4
                    },
                    "indices" : 5,
                    "material" : 0
                },
                {
                    "attributes" : {
                        "POSITION" : 6,
                        "NORMAL" : 7,
                        "TEXCOORD_0" : 8,
                        "JOINTS_0" : 9,
                        "WEIGHTS_0" : 10
                    },
                    "indices" : 11,
                    "material" : 1
                },
                {
                    "attributes" : {
                        "POSITION" : 12,
                        "NORMAL" : 13,
                        "TEXCOORD_0" : 14,
                        "JOINTS_0" : 15,
                        "WEIGHTS_0" : 16
                    },
                    "indices" : 17,
                    "material" : 2
                }
            ]
        }
    ],
    "accessors" : [
        {
            "bufferView" : 0,
            "componentType" : 5126,
            "count" : 53541,
            "max" : [
                0.3945920467376709,
                0.7450821995735168,
                0.5734075903892517
            ],
            "min" : [
                -0.3945919871330261,
                -0.0570819191634655,
                -0.5734075903892517
            ],
            "type" : "VEC3"
        },
        {
            "bufferView" : 1,
            "componentType" : 5126,
            "count" : 53541,
            "type" : "VEC3"
        },
        {
            "bufferView" : 2,
            "componentType" : 5126,
            "count" : 53541,
            "type" : "VEC2"
        },
        {
            "bufferView" : 3,
            "componentType" : 5123,
            "count" : 53541,
            "type" : "VEC4"
        },
        {
            "bufferView" : 4,
            "componentType" : 5126,
            "count" : 53541,
            "type" : "VEC4"
        },
        {
            "bufferView" : 5,
            "componentType" : 5123,
            "count" : 287616,
            "type" : "SCALAR"
        },
        {
            "bufferView" : 6,
            "componentType" : 5126,
            "count" : 440,
            "max" : [
                0.33279985189437866,
                1.0202871561050415,
                0.33635133504867554
            ],
            "min" : [
                -0.847958505153656,
                0.4971626400947571,
                -0.33635127544403076
            ],
            "type" : "VEC3"
        },
        {
            "bufferView" : 7,
            "componentType" : 5126,
            "count" : 440,
            "type" : "VEC3"
        },
        {
            "bufferView" : 8,
            "componentType" : 5126,
            "count" : 440,
            "type" : "VEC2"
        },
        {
            "bufferView" : 9,
            "componentType" : 5123,
            "count" : 440,
            "type" : "VEC4"
        },
        {
            "bufferView" : 10,
            "componentType" : 5126,
            "count" : 440,
            "type" : "VEC4"
        },
        {
            "bufferView" : 11,
            "componentType" : 5123,
            "count" : 1164,
            "type" : "SCALAR"
        },
        {
            "bufferView" : 12,
            "componentType" : 5126,
            "count" : 136,
            "max" : [
                0.41123250126838684,
                0.5661721229553223,
                0.3069537878036499
            ],
            "min" : [
                0.2752525806427002,
                0.36842572689056396,
                -0.3069533109664917
            ],
            "type" : "VEC3"
        },
        {
            "bufferView" : 13,
            "componentType" : 5126,
            "count" : 136,
            "type" : "VEC3"
        },
        {
            "bufferView" : 14,
            "componentType" : 5126,
            "count" : 136,
            "type" : "VEC2"
        },
        {
            "bufferView" : 15,
            "componentType" : 5123,
            "count" : 136,
            "type" : "VEC4"
        },
        {
            "bufferView" : 16,
            "componentType" : 5126,
            "count" : 136,
            "type" : "VEC4"
        },
        {
            "bufferView" : 17,
            "componentType" : 5123,
            "count" : 204,
            "type" : "SCALAR"
        }
    ],
    "bufferViews" : [
        {
            "buffer" : 0,
            "byteLength" : 642492,
            "byteOffset" : 0
        },
        {
            "buffer" : 0,
            "byteLength" : 642492,
            "byteOffset" : 642492
        },
        {
            "buffer" : 0,
            "byteLength" : 428328,
            "byteOffset" : 1284984
        },
        {
            "buffer" : 0,
            "byteLength" : 428328,
            "byteOffset" : 1713312
        },
        {
            "buffer" : 0,
            "byteLength" : 856656,
            "byteOffset" : 2141640
        },
        {
            "buffer" : 0,
            "byteLength" : 575232,
            "byteOffset" : 2998296
        },
        {
            "buffer" : 0,
            "byteLength" : 5280,
            "byteOffset" : 3573528
        },
        {
            "buffer" : 0,
            "byteLength" : 5280,
            "byteOffset" : 3578808
        },
        {
            "buffer" : 0,
            "byteLength" : 3520,
            "byteOffset" : 3584088
        },
        {
            "buffer" : 0,
            "byteLength" : 3520,
            "byteOffset" : 3587608
        },
        {
            "buffer" : 0,
            "byteLength" : 7040,
            "byteOffset" : 3591128
        },
        {
            "buffer" : 0,
            "byteLength" : 2328,
            "byteOffset" : 3598168
        },
        {
            "buffer" : 0,
            "byteLength" : 1632,
            "byteOffset" : 3600496
        },
        {
            "buffer" : 0,
            "byteLength" : 1632,
            "byteOffset" : 3602128
        },
        {
            "buffer" : 0,
            "byteLength" : 1088,
            "byteOffset" : 3603760
        },
        {
            "buffer" : 0,
            "byteLength" : 1088,
            "byteOffset" : 3604848
        },
        {
            "buffer" : 0,
            "byteLength" : 2176,
            "byteOffset" : 3605936
        },
        {
            "buffer" : 0,
            "byteLength" : 408,
            "byteOffset" : 3608112
        }
    ],
    "buffers" : [
        {
            "byteLength" : 3608520,
            "uri" : "small-minion.bin"
        }
    ]
}
