{
    "asset" : {
        "generator" : "Khronos glTF Blender I/O v1.1.46",
        "version" : "2.0"
    },
    "scene" : 0,
    "scenes" : [
        {
            "name" : "Scene",
            "nodes" : [
                0
            ]
        }
    ],
    "nodes" : [
        {
            "mesh" : 0,
            "name" : "Recycling_Bin_Cube.003",
            "rotation" : [
                0.7071068286895752,
                0,
                0,
                0.7071067094802856
            ]
        }
    ],
    "materials" : [
        {
            "doubleSided" : true,
            "emissiveFactor" : [
                0,
                0,
                0
            ],
            "name" : "base",
            "pbrMetallicRoughness" : {
                "baseColorTexture" : {
                    "index" : 0,
                    "texCoord" : 0
                },
                "metallicFactor" : 0,
                "roughnessFactor" : 0.5
            }
        }
    ],
    "meshes" : [
        {
            "name" : "Recycling_Bin_Cube.003",
            "primitives" : [
                {
                    "attributes" : {
                        "POSITION" : 0,
                        "NORMAL" : 1,
                        "TEXCOORD_0" : 2,
                        "JOINTS_0" : 3,
                        "WEIGHTS_0" : 4
                    },
                    "indices" : 5,
                    "material" : 0
                }
            ]
        }
    ],
    "textures" : [
        {
            "source" : 0
        }
    ],
    "images" : [
        {
            "mimeType" : "image/png",
            "name" : "recycling_bin_tex",
            "uri" : "recycling_bin_tex.png"
        }
    ],
    "accessors" : [
        {
            "bufferView" : 0,
            "componentType" : 5126,
            "count" : 3492,
            "max" : [
                1.1739760637283325,
                0.461777001619339,
                0.018071986734867096
            ],
            "min" : [
                -0.461777001619339,
                -0.461777001619339,
                -1.7786509990692139
            ],
            "type" : "VEC3"
        },
        {
            "bufferView" : 1,
            "componentType" : 5126,
            "count" : 3492,
            "type" : "VEC3"
        },
        {
            "bufferView" : 2,
            "componentType" : 5126,
            "count" : 3492,
            "type" : "VEC2"
        },
        {
            "bufferView" : 3,
            "componentType" : 5123,
            "count" : 3492,
            "type" : "VEC4"
        },
        {
            "bufferView" : 4,
            "componentType" : 5126,
            "count" : 3492,
            "type" : "VEC4"
        },
        {
            "bufferView" : 5,
            "componentType" : 5123,
            "count" : 12108,
            "type" : "SCALAR"
        }
    ],
    "bufferViews" : [
        {
            "buffer" : 0,
            "byteLength" : 41904,
            "byteOffset" : 0
        },
        {
            "buffer" : 0,
            "byteLength" : 41904,
            "byteOffset" : 41904
        },
        {
            "buffer" : 0,
            "byteLength" : 27936,
            "byteOffset" : 83808
        },
        {
            "buffer" : 0,
            "byteLength" : 27936,
            "byteOffset" : 111744
        },
        {
            "buffer" : 0,
            "byteLength" : 55872,
            "byteOffset" : 139680
        },
        {
            "buffer" : 0,
            "byteLength" : 24216,
            "byteOffset" : 195552
        }
    ],
    "buffers" : [
        {
            "byteLength" : 219768,
            "uri" : "recycling-bin.bin"
        }
    ]
}
