{
    "asset" : {
        "generator" : "Khronos glTF Blender I/O v1.1.46",
        "version" : "2.0"
    },
    "scene" : 0,
    "scenes" : [
        {
            "name" : "Scene",
            "nodes" : [
                0
            ]
        }
    ],
    "nodes" : [
        {
            "mesh" : 0,
            "name" : "Tower Laser Base",
            "rotation" : [
                0,
                -0.7071067690849304,
                0,
                0.7071067690849304
            ],
            "scale" : [
                0.8793909549713135,
                0.8793909549713135,
                0.8793909549713135
            ],
            "translation" : [
                0.011533446609973907,
                5.006187915802002,
                -0.005244128406047821
            ]
        }
    ],
    "materials" : [
        {
            "doubleSided" : true,
            "emissiveFactor" : [
                0,
                0,
                0
            ],
            "name" : "Material.007",
            "pbrMetallicRoughness" : {
                "baseColorFactor" : [
                    0.011022615246474743,
                    0.02083435095846653,
                    0.05141026899218559,
                    1
                ],
                "metallicFactor" : 0.449541300535202,
                "roughnessFactor" : 0.5183486342430115
            }
        },
        {
            "doubleSided" : true,
            "emissiveFactor" : [
                0,
                0,
                0
            ],
            "name" : "Window",
            "pbrMetallicRoughness" : {
                "baseColorFactor" : [
                    0.4484314024448395,
                    0.16223102807998657,
                    0.8162762522697449,
                    1
                ],
                "metallicFactor" : 0,
                "roughnessFactor" : 0.5
            }
        },
        {
            "doubleSided" : true,
            "emissiveFactor" : [
                0,
                0,
                0
            ],
            "name" : "Material.022",
            "pbrMetallicRoughness" : {
                "baseColorFactor" : [
                    0.1878163069486618,
                    0.1878163069486618,
                    0.1878163069486618,
                    1
                ],
                "metallicFactor" : 0.8073394298553467,
                "roughnessFactor" : 0.20642203092575073
            }
        },
        {
            "doubleSided" : true,
            "emissiveFactor" : [
                0,
                0,
                0
            ],
            "name" : "Material.023",
            "pbrMetallicRoughness" : {
                "baseColorFactor" : [
                    0.008668710477650166,
                    0.008668710477650166,
                    0.008668710477650166,
                    1
                ],
                "metallicFactor" : 0,
                "roughnessFactor" : 0.5
            }
        },
        {
            "doubleSided" : true,
            "emissiveFactor" : [
                0,
                0,
                0
            ],
            "name" : "Material.021",
            "pbrMetallicRoughness" : {
                "baseColorFactor" : [
                    0.08984100818634033,
                    0.018555233255028725,
                    0.011007501743733883,
                    1
                ],
                "metallicFactor" : 0.5963302850723267,
                "roughnessFactor" : 0.29816514253616333
            }
        },
        {
            "doubleSided" : true,
            "emissiveFactor" : [
                0,
                0,
                0
            ],
            "name" : "Material.018",
            "pbrMetallicRoughness" : {
                "baseColorFactor" : [
                    0.2989315092563629,
                    0.2989315092563629,
                    0.2989315092563629,
                    1
                ],
                "metallicFactor" : 0.5229358077049255,
                "roughnessFactor" : 0.197247713804245
            }
        },
        {
            "doubleSided" : true,
            "emissiveFactor" : [
                0,
                0,
                0
            ],
            "name" : "Material.024",
            "pbrMetallicRoughness" : {
                "baseColorFactor" : [
                    0.11198534071445465,
                    0.11198534071445465,
                    0.11198534071445465,
                    1
                ],
                "metallicFactor" : 1,
                "roughnessFactor" : 0.5
            }
        },
        {
            "doubleSided" : true,
            "emissiveFactor" : [
                0,
                0,
                0
            ],
            "name" : "Material.014",
            "pbrMetallicRoughness" : {
                "baseColorFactor" : [
                    0.03133178502321243,
                    0.04636973887681961,
                    0.0703575611114502,
                    1
                ],
                "metallicFactor" : 0.7064220309257507,
                "roughnessFactor" : 0.20642203092575073
            }
        },
        {
            "doubleSided" : true,
            "emissiveFactor" : [
                0,
                0,
                0
            ],
            "name" : "Material.025",
            "pbrMetallicRoughness" : {
                "baseColorFactor" : [
                    0.03759731724858284,
                    0.013629327528178692,
                    0.0072019994258880615,
                    1
                ],
                "metallicFactor" : 0,
                "roughnessFactor" : 0.5
            }
        }
    ],
    "meshes" : [
        {
            "name" : "Cube.009",
            "primitives" : [
                {
                    "attributes" : {
                        "POSITION" : 0,
                        "NORMAL" : 1,
                        "TEXCOORD_0" : 2
                    },
                    "indices" : 3,
                    "material" : 0
                },
                {
                    "attributes" : {
                        "POSITION" : 4,
                        "NORMAL" : 5,
                        "TEXCOORD_0" : 6
                    },
                    "indices" : 7,
                    "material" : 1
                },
                {
                    "attributes" : {
                        "POSITION" : 8,
                        "NORMAL" : 9,
                        "TEXCOORD_0" : 10
                    },
                    "indices" : 11,
                    "material" : 2
                },
                {
                    "attributes" : {
                        "POSITION" : 12,
                        "NORMAL" : 13,
                        "TEXCOORD_0" : 14
                    },
                    "indices" : 15,
                    "material" : 3
                },
                {
                    "attributes" : {
                        "POSITION" : 16,
                        "NORMAL" : 17,
                        "TEXCOORD_0" : 18
                    },
                    "indices" : 19,
                    "material" : 4
                },
                {
                    "attributes" : {
                        "POSITION" : 20,
                        "NORMAL" : 21,
                        "TEXCOORD_0" : 22
                    },
                    "indices" : 23,
                    "material" : 5
                },
                {
                    "attributes" : {
                        "POSITION" : 24,
                        "NORMAL" : 25,
                        "TEXCOORD_0" : 26
                    },
                    "indices" : 27,
                    "material" : 6
                },
                {
                    "attributes" : {
                        "POSITION" : 28,
                        "NORMAL" : 29,
                        "TEXCOORD_0" : 30
                    },
                    "indices" : 31,
                    "material" : 7
                },
                {
                    "attributes" : {
                        "POSITION" : 32,
                        "NORMAL" : 33,
                        "TEXCOORD_0" : 34
                    },
                    "indices" : 35,
                    "material" : 8
                }
            ]
        }
    ],
    "accessors" : [
        {
            "bufferView" : 0,
            "componentType" : 5126,
            "count" : 3607,
            "max" : [
                1.1293833255767822,
                0.9154017567634583,
                1.5563061237335205
            ],
            "min" : [
                -1.1571344137191772,
                -1.401643991470337,
                -1.153699278831482
            ],
            "type" : "VEC3"
        },
        {
            "bufferView" : 1,
            "componentType" : 5126,
            "count" : 3607,
            "type" : "VEC3"
        },
        {
            "bufferView" : 2,
            "componentType" : 5126,
            "count" : 3607,
            "type" : "VEC2"
        },
        {
            "bufferView" : 3,
            "componentType" : 5123,
            "count" : 8604,
            "type" : "SCALAR"
        },
        {
            "bufferView" : 4,
            "componentType" : 5126,
            "count" : 319,
            "max" : [
                0.9705755710601807,
                0.5808570981025696,
                0.5808571577072144
            ],
            "min" : [
                0.9705755710601807,
                -0.15285713970661163,
                -0.5808570981025696
            ],
            "type" : "VEC3"
        },
        {
            "bufferView" : 5,
            "componentType" : 5126,
            "count" : 319,
            "type" : "VEC3"
        },
        {
            "bufferView" : 6,
            "componentType" : 5126,
            "count" : 319,
            "type" : "VEC2"
        },
        {
            "bufferView" : 7,
            "componentType" : 5123,
            "count" : 1104,
            "type" : "SCALAR"
        },
        {
            "bufferView" : 8,
            "componentType" : 5126,
            "count" : 2198,
            "max" : [
                0.04143843054771423,
                0.07856008410453796,
                1.614723801612854
            ],
            "min" : [
                -0.46378955245018005,
                -0.42621275782585144,
                1.5139535665512085
            ],
            "type" : "VEC3"
        },
        {
            "bufferView" : 9,
            "componentType" : 5126,
            "count" : 2198,
            "type" : "VEC3"
        },
        {
            "bufferView" : 10,
            "componentType" : 5126,
            "count" : 2198,
            "type" : "VEC2"
        },
        {
            "bufferView" : 11,
            "componentType" : 5123,
            "count" : 3693,
            "type" : "SCALAR"
        },
        {
            "bufferView" : 12,
            "componentType" : 5126,
            "count" : 646,
            "max" : [
                0.42799997329711914,
                0.21399998664855957,
                1.5615252256393433
            ],
            "min" : [
                -0.8559999465942383,
                -0.6419999599456787,
                1.0699999332427979
            ],
            "type" : "VEC3"
        },
        {
            "bufferView" : 13,
            "componentType" : 5126,
            "count" : 646,
            "type" : "VEC3"
        },
        {
            "bufferView" : 14,
            "componentType" : 5126,
            "count" : 646,
            "type" : "VEC2"
        },
        {
            "bufferView" : 15,
            "componentType" : 5123,
            "count" : 1290,
            "type" : "SCALAR"
        },
        {
            "bufferView" : 16,
            "componentType" : 5126,
            "count" : 2786,
            "max" : [
                0.8453032970428467,
                2.050326108932495,
                1.5191477537155151
            ],
            "min" : [
                -0.781909704208374,
                -1.3634276390075684,
                -0.6512067317962646
            ],
            "type" : "VEC3"
        },
        {
            "bufferView" : 17,
            "componentType" : 5126,
            "count" : 2786,
            "type" : "VEC3"
        },
        {
            "bufferView" : 18,
            "componentType" : 5126,
            "count" : 2786,
            "type" : "VEC2"
        },
        {
            "bufferView" : 19,
            "componentType" : 5123,
            "count" : 4230,
            "type" : "SCALAR"
        },
        {
            "bufferView" : 20,
            "componentType" : 5126,
            "count" : 304,
            "max" : [
                1.2627476453781128,
                0.9329383373260498,
                0.9622558355331421
            ],
            "min" : [
                -1.1777775287628174,
                -3.802018642425537,
                -1.3082084655761719
            ],
            "type" : "VEC3"
        },
        {
            "bufferView" : 21,
            "componentType" : 5126,
            "count" : 304,
            "type" : "VEC3"
        },
        {
            "bufferView" : 22,
            "componentType" : 5126,
            "count" : 304,
            "type" : "VEC2"
        },
        {
            "bufferView" : 23,
            "componentType" : 5123,
            "count" : 492,
            "type" : "SCALAR"
        },
        {
            "bufferView" : 24,
            "componentType" : 5126,
            "count" : 1736,
            "max" : [
                0.8560044765472412,
                2.946229934692383,
                0.6529200077056885
            ],
            "min" : [
                -0.17467540502548218,
                1.7766226530075073,
                -0.8895002603530884
            ],
            "type" : "VEC3"
        },
        {
            "bufferView" : 25,
            "componentType" : 5126,
            "count" : 1736,
            "type" : "VEC3"
        },
        {
            "bufferView" : 26,
            "componentType" : 5126,
            "count" : 1736,
            "type" : "VEC2"
        },
        {
            "bufferView" : 27,
            "componentType" : 5123,
            "count" : 2784,
            "type" : "SCALAR"
        },
        {
            "bufferView" : 28,
            "componentType" : 5126,
            "count" : 176,
            "max" : [
                1.5439364910125732,
                -1.2056293487548828,
                1.3402812480926514
            ],
            "min" : [
                -1.570167064666748,
                -5.692074298858643,
                -1.3283545970916748
            ],
            "type" : "VEC3"
        },
        {
            "bufferView" : 29,
            "componentType" : 5126,
            "count" : 176,
            "type" : "VEC3"
        },
        {
            "bufferView" : 30,
            "componentType" : 5126,
            "count" : 176,
            "type" : "VEC2"
        },
        {
            "bufferView" : 31,
            "componentType" : 5123,
            "count" : 312,
            "type" : "SCALAR"
        },
        {
            "bufferView" : 32,
            "componentType" : 5126,
            "count" : 114,
            "max" : [
                -0.5185258388519287,
                0.9259196519851685,
                1.3246910572052002
            ],
            "min" : [
                -0.9217833280563354,
                0.5240395069122314,
                1.0167152881622314
            ],
            "type" : "VEC3"
        },
        {
            "bufferView" : 33,
            "componentType" : 5126,
            "count" : 114,
            "type" : "VEC3"
        },
        {
            "bufferView" : 34,
            "componentType" : 5126,
            "count" : 114,
            "type" : "VEC2"
        },
        {
            "bufferView" : 35,
            "componentType" : 5123,
            "count" : 216,
            "type" : "SCALAR"
        }
    ],
    "bufferViews" : [
        {
            "buffer" : 0,
            "byteLength" : 43284,
            "byteOffset" : 0
        },
        {
            "buffer" : 0,
            "byteLength" : 43284,
            "byteOffset" : 43284
        },
        {
            "buffer" : 0,
            "byteLength" : 28856,
            "byteOffset" : 86568
        },
        {
            "buffer" : 0,
            "byteLength" : 17208,
            "byteOffset" : 115424
        },
        {
            "buffer" : 0,
            "byteLength" : 3828,
            "byteOffset" : 132632
        },
        {
            "buffer" : 0,
            "byteLength" : 3828,
            "byteOffset" : 136460
        },
        {
            "buffer" : 0,
            "byteLength" : 2552,
            "byteOffset" : 140288
        },
        {
            "buffer" : 0,
            "byteLength" : 2208,
            "byteOffset" : 142840
        },
        {
            "buffer" : 0,
            "byteLength" : 26376,
            "byteOffset" : 145048
        },
        {
            "buffer" : 0,
            "byteLength" : 26376,
            "byteOffset" : 171424
        },
        {
            "buffer" : 0,
            "byteLength" : 17584,
            "byteOffset" : 197800
        },
        {
            "buffer" : 0,
            "byteLength" : 7386,
            "byteOffset" : 215384
        },
        {
            "buffer" : 0,
            "byteLength" : 7752,
            "byteOffset" : 222772
        },
        {
            "buffer" : 0,
            "byteLength" : 7752,
            "byteOffset" : 230524
        },
        {
            "buffer" : 0,
            "byteLength" : 5168,
            "byteOffset" : 238276
        },
        {
            "buffer" : 0,
            "byteLength" : 2580,
            "byteOffset" : 243444
        },
        {
            "buffer" : 0,
            "byteLength" : 33432,
            "byteOffset" : 246024
        },
        {
            "buffer" : 0,
            "byteLength" : 33432,
            "byteOffset" : 279456
        },
        {
            "buffer" : 0,
            "byteLength" : 22288,
            "byteOffset" : 312888
        },
        {
            "buffer" : 0,
            "byteLength" : 8460,
            "byteOffset" : 335176
        },
        {
            "buffer" : 0,
            "byteLength" : 3648,
            "byteOffset" : 343636
        },
        {
            "buffer" : 0,
            "byteLength" : 3648,
            "byteOffset" : 347284
        },
        {
            "buffer" : 0,
            "byteLength" : 2432,
            "byteOffset" : 350932
        },
        {
            "buffer" : 0,
            "byteLength" : 984,
            "byteOffset" : 353364
        },
        {
            "buffer" : 0,
            "byteLength" : 20832,
            "byteOffset" : 354348
        },
        {
            "buffer" : 0,
            "byteLength" : 20832,
            "byteOffset" : 375180
        },
        {
            "buffer" : 0,
            "byteLength" : 13888,
            "byteOffset" : 396012
        },
        {
            "buffer" : 0,
            "byteLength" : 5568,
            "byteOffset" : 409900
        },
        {
            "buffer" : 0,
            "byteLength" : 2112,
            "byteOffset" : 415468
        },
        {
            "buffer" : 0,
            "byteLength" : 2112,
            "byteOffset" : 417580
        },
        {
            "buffer" : 0,
            "byteLength" : 1408,
            "byteOffset" : 419692
        },
        {
            "buffer" : 0,
            "byteLength" : 624,
            "byteOffset" : 421100
        },
        {
            "buffer" : 0,
            "byteLength" : 1368,
            "byteOffset" : 421724
        },
        {
            "buffer" : 0,
            "byteLength" : 1368,
            "byteOffset" : 423092
        },
        {
            "buffer" : 0,
            "byteLength" : 912,
            "byteOffset" : 424460
        },
        {
            "buffer" : 0,
            "byteLength" : 432,
            "byteOffset" : 425372
        }
    ],
    "buffers" : [
        {
            "byteLength" : 425804,
            "uri" : "tower-1-laser.bin"
        }
    ]
}
