{
    "asset" : {
        "generator" : "Khronos glTF Blender I/O v1.1.46",
        "version" : "2.0"
    },
    "scene" : 0,
    "scenes" : [
        {
            "name" : "Scene",
            "nodes" : [
                0,
                1,
                2,
                3,
                4
            ]
        }
    ],
    "nodes" : [
        {
            "mesh" : 0,
            "name" : "Cylinder Bin",
            "rotation" : [
                0.7071067690849304,
                0,
                0,
                0.7071067690849304
            ],
            "scale" : [
                0.6589562296867371,
                0.6589562296867371,
                0.6589562296867371
            ],
            "translation" : [
                -0.6217639446258545,
                5.642515182495117,
                1.024261713027954
            ]
        },
        {
            "mesh" : 1,
            "name" : "Legs"
        },
        {
            "mesh" : 2,
            "name" : "Metalware",
            "translation" : [
                0.128929004073143,
                4.5760416984558105,
                0.5363986492156982
            ]
        },
        {
            "mesh" : 3,
            "name" : "satellite dish",
            "rotation" : [
                -0.3752334713935852,
                -0.554133951663971,
                -0.23969529569149017,
                0.7033360600471497
            ],
            "scale" : [
                0.7651631832122803,
                0.629427433013916,
                0.6897557377815247
            ],
            "translation" : [
                0.5193658471107483,
                7.235659599304199,
                -0.17242006957530975
            ]
        },
        {
            "mesh" : 4,
            "name" : "Main cube",
            "scale" : [
                0.8793909549713135,
                0.8793909549713135,
                0.8793909549713135
            ],
            "translation" : [
                0.011533446609973907,
                5.006187915802002,
                -0.005244128406047821
            ]
        }
    ],
    "materials" : [
        {
            "doubleSided" : true,
            "emissiveFactor" : [
                0,
                0,
                0
            ],
            "name" : "Material.025",
            "pbrMetallicRoughness" : {
                "baseColorFactor" : [
                    0.03759731724858284,
                    0.013629327528178692,
                    0.0072019994258880615,
                    1
                ],
                "metallicFactor" : 0,
                "roughnessFactor" : 0.5
            }
        },
        {
            "doubleSided" : true,
            "emissiveFactor" : [
                0,
                0,
                0
            ],
            "name" : "Material.014",
            "pbrMetallicRoughness" : {
                "baseColorFactor" : [
                    0.03133178502321243,
                    0.04636973887681961,
                    0.0703575611114502,
                    1
                ],
                "metallicFactor" : 0.7064220309257507,
                "roughnessFactor" : 0.20642203092575073
            }
        },
        {
            "doubleSided" : true,
            "emissiveFactor" : [
                0,
                0,
                0
            ],
            "name" : "Material.021",
            "pbrMetallicRoughness" : {
                "baseColorFactor" : [
                    0.08984100818634033,
                    0.018555233255028725,
                    0.011007501743733883,
                    1
                ],
                "metallicFactor" : 0.5963302850723267,
                "roughnessFactor" : 0.29816514253616333
            }
        },
        {
            "doubleSided" : true,
            "emissiveFactor" : [
                0,
                0,
                0
            ],
            "name" : "Material.018",
            "pbrMetallicRoughness" : {
                "baseColorFactor" : [
                    0.2989315092563629,
                    0.2989315092563629,
                    0.2989315092563629,
                    1
                ],
                "metallicFactor" : 0.5229358077049255,
                "roughnessFactor" : 0.197247713804245
            }
        },
        {
            "doubleSided" : true,
            "emissiveFactor" : [
                0,
                0,
                0
            ],
            "name" : "Material.024",
            "pbrMetallicRoughness" : {
                "baseColorFactor" : [
                    0.11198534071445465,
                    0.11198534071445465,
                    0.11198534071445465,
                    1
                ],
                "metallicFactor" : 1,
                "roughnessFactor" : 0.5
            }
        },
        {
            "doubleSided" : true,
            "emissiveFactor" : [
                0,
                0,
                0
            ],
            "name" : "Material.007",
            "pbrMetallicRoughness" : {
                "baseColorFactor" : [
                    0.011022615246474743,
                    0.02083435095846653,
                    0.05141026899218559,
                    1
                ],
                "metallicFactor" : 0.449541300535202,
                "roughnessFactor" : 0.5183486342430115
            }
        },
        {
            "doubleSided" : true,
            "emissiveFactor" : [
                0,
                0,
                0
            ],
            "name" : "Material.017",
            "pbrMetallicRoughness" : {
                "baseColorFactor" : [
                    0.124123215675354,
                    0.021418998017907143,
                    0.24763093888759613,
                    1
                ],
                "metallicFactor" : 0,
                "roughnessFactor" : 0.5
            }
        },
        {
            "doubleSided" : true,
            "emissiveFactor" : [
                0,
                0,
                0
            ],
            "name" : "Material.022",
            "pbrMetallicRoughness" : {
                "baseColorFactor" : [
                    0.1878163069486618,
                    0.1878163069486618,
                    0.1878163069486618,
                    1
                ],
                "metallicFactor" : 0.8073394298553467,
                "roughnessFactor" : 0.20642203092575073
            }
        },
        {
            "doubleSided" : true,
            "emissiveFactor" : [
                0,
                0,
                0
            ],
            "name" : "Material.023",
            "pbrMetallicRoughness" : {
                "baseColorFactor" : [
                    0.008668710477650166,
                    0.008668710477650166,
                    0.008668710477650166,
                    1
                ],
                "metallicFactor" : 0,
                "roughnessFactor" : 0.5
            }
        }
    ],
    "meshes" : [
        {
            "name" : "Cylinder.009",
            "primitives" : [
                {
                    "attributes" : {
                        "POSITION" : 0,
                        "NORMAL" : 1,
                        "TEXCOORD_0" : 2
                    },
                    "indices" : 3,
                    "material" : 0
                }
            ]
        },
        {
            "name" : "Cube.011",
            "primitives" : [
                {
                    "attributes" : {
                        "POSITION" : 4,
                        "NORMAL" : 5,
                        "TEXCOORD_0" : 6
                    },
                    "indices" : 7,
                    "material" : 1
                }
            ]
        },
        {
            "name" : "Cube.024",
            "primitives" : [
                {
                    "attributes" : {
                        "POSITION" : 8,
                        "NORMAL" : 9,
                        "TEXCOORD_0" : 10
                    },
                    "indices" : 11,
                    "material" : 2
                },
                {
                    "attributes" : {
                        "POSITION" : 12,
                        "NORMAL" : 13,
                        "TEXCOORD_0" : 14
                    },
                    "indices" : 15,
                    "material" : 3
                }
            ]
        },
        {
            "name" : "Sphere",
            "primitives" : [
                {
                    "attributes" : {
                        "POSITION" : 16,
                        "NORMAL" : 17,
                        "TEXCOORD_0" : 18
                    },
                    "indices" : 19,
                    "material" : 4
                }
            ]
        },
        {
            "name" : "Cube.009",
            "primitives" : [
                {
                    "attributes" : {
                        "POSITION" : 20,
                        "NORMAL" : 21,
                        "TEXCOORD_0" : 22
                    },
                    "indices" : 23,
                    "material" : 5
                },
                {
                    "attributes" : {
                        "POSITION" : 24,
                        "NORMAL" : 25,
                        "TEXCOORD_0" : 26
                    },
                    "indices" : 27,
                    "material" : 6
                },
                {
                    "attributes" : {
                        "POSITION" : 28,
                        "NORMAL" : 29,
                        "TEXCOORD_0" : 30
                    },
                    "indices" : 31,
                    "material" : 7
                },
                {
                    "attributes" : {
                        "POSITION" : 32,
                        "NORMAL" : 33,
                        "TEXCOORD_0" : 34
                    },
                    "indices" : 35,
                    "material" : 8
                }
            ]
        }
    ],
    "accessors" : [
        {
            "bufferView" : 0,
            "componentType" : 5126,
            "count" : 114,
            "max" : [
                0.26907777786254883,
                0.2055000364780426,
                0.26631754636764526
            ],
            "min" : [
                -0.2690778076648712,
                -0.2055000364780426,
                -0.26999998092651367
            ],
            "type" : "VEC3"
        },
        {
            "bufferView" : 1,
            "componentType" : 5126,
            "count" : 114,
            "type" : "VEC3"
        },
        {
            "bufferView" : 2,
            "componentType" : 5126,
            "count" : 114,
            "type" : "VEC2"
        },
        {
            "bufferView" : 3,
            "componentType" : 5123,
            "count" : 216,
            "type" : "SCALAR"
        },
        {
            "bufferView" : 4,
            "componentType" : 5126,
            "count" : 164,
            "max" : [
                1.3692572116851807,
                3.9459686279296875,
                1.1733871698379517
            ],
            "min" : [
                -1.3692572116851807,
                0.0006292704492807388,
                -1.1733871698379517
            ],
            "type" : "VEC3"
        },
        {
            "bufferView" : 5,
            "componentType" : 5126,
            "count" : 164,
            "type" : "VEC3"
        },
        {
            "bufferView" : 6,
            "componentType" : 5126,
            "count" : 164,
            "type" : "VEC2"
        },
        {
            "bufferView" : 7,
            "componentType" : 5123,
            "count" : 312,
            "type" : "SCALAR"
        },
        {
            "bufferView" : 8,
            "componentType" : 5126,
            "count" : 2798,
            "max" : [
                0.6259565353393555,
                2.233184814453125,
                0.7942819595336914
            ],
            "min" : [
                -0.8049998879432678,
                -0.7688393592834473,
                -1.1143081188201904
            ],
            "type" : "VEC3"
        },
        {
            "bufferView" : 9,
            "componentType" : 5126,
            "count" : 2798,
            "type" : "VEC3"
        },
        {
            "bufferView" : 10,
            "componentType" : 5126,
            "count" : 2798,
            "type" : "VEC2"
        },
        {
            "bufferView" : 11,
            "componentType" : 5123,
            "count" : 4230,
            "type" : "SCALAR"
        },
        {
            "bufferView" : 12,
            "componentType" : 5126,
            "count" : 304,
            "max" : [
                0.9930533170700073,
                1.2505640983581543,
                0.3045562505722046
            ],
            "min" : [
                -1.1531224250793457,
                -2.9133143424987793,
                -1.6920695304870605
            ],
            "type" : "VEC3"
        },
        {
            "bufferView" : 13,
            "componentType" : 5126,
            "count" : 304,
            "type" : "VEC3"
        },
        {
            "bufferView" : 14,
            "componentType" : 5126,
            "count" : 304,
            "type" : "VEC2"
        },
        {
            "bufferView" : 15,
            "componentType" : 5123,
            "count" : 492,
            "type" : "SCALAR"
        },
        {
            "bufferView" : 16,
            "componentType" : 5126,
            "count" : 1736,
            "max" : [
                0.9238796830177307,
                0.1849547177553177,
                0.923879861831665
            ],
            "min" : [
                -0.9238794445991516,
                -1,
                -0.9238790273666382
            ],
            "type" : "VEC3"
        },
        {
            "bufferView" : 17,
            "componentType" : 5126,
            "count" : 1736,
            "type" : "VEC3"
        },
        {
            "bufferView" : 18,
            "componentType" : 5126,
            "count" : 1736,
            "type" : "VEC2"
        },
        {
            "bufferView" : 19,
            "componentType" : 5123,
            "count" : 2784,
            "type" : "SCALAR"
        },
        {
            "bufferView" : 20,
            "componentType" : 5126,
            "count" : 3607,
            "max" : [
                1.1293833255767822,
                0.9154017567634583,
                1.5563061237335205
            ],
            "min" : [
                -1.1571344137191772,
                -1.401643991470337,
                -1.153699278831482
            ],
            "type" : "VEC3"
        },
        {
            "bufferView" : 21,
            "componentType" : 5126,
            "count" : 3607,
            "type" : "VEC3"
        },
        {
            "bufferView" : 22,
            "componentType" : 5126,
            "count" : 3607,
            "type" : "VEC2"
        },
        {
            "bufferView" : 23,
            "componentType" : 5123,
            "count" : 8604,
            "type" : "SCALAR"
        },
        {
            "bufferView" : 24,
            "componentType" : 5126,
            "count" : 319,
            "max" : [
                0.9705755710601807,
                0.5808570981025696,
                0.5808571577072144
            ],
            "min" : [
                0.9705755710601807,
                -0.15285713970661163,
                -0.5808570981025696
            ],
            "type" : "VEC3"
        },
        {
            "bufferView" : 25,
            "componentType" : 5126,
            "count" : 319,
            "type" : "VEC3"
        },
        {
            "bufferView" : 26,
            "componentType" : 5126,
            "count" : 319,
            "type" : "VEC2"
        },
        {
            "bufferView" : 27,
            "componentType" : 5123,
            "count" : 1104,
            "type" : "SCALAR"
        },
        {
            "bufferView" : 28,
            "componentType" : 5126,
            "count" : 2198,
            "max" : [
                0.04143843054771423,
                0.07856008410453796,
                1.614723801612854
            ],
            "min" : [
                -0.46378955245018005,
                -0.42621275782585144,
                1.5139535665512085
            ],
            "type" : "VEC3"
        },
        {
            "bufferView" : 29,
            "componentType" : 5126,
            "count" : 2198,
            "type" : "VEC3"
        },
        {
            "bufferView" : 30,
            "componentType" : 5126,
            "count" : 2198,
            "type" : "VEC2"
        },
        {
            "bufferView" : 31,
            "componentType" : 5123,
            "count" : 3693,
            "type" : "SCALAR"
        },
        {
            "bufferView" : 32,
            "componentType" : 5126,
            "count" : 646,
            "max" : [
                0.42799997329711914,
                0.21399998664855957,
                1.5615252256393433
            ],
            "min" : [
                -0.8559999465942383,
                -0.6419999599456787,
                1.0699999332427979
            ],
            "type" : "VEC3"
        },
        {
            "bufferView" : 33,
            "componentType" : 5126,
            "count" : 646,
            "type" : "VEC3"
        },
        {
            "bufferView" : 34,
            "componentType" : 5126,
            "count" : 646,
            "type" : "VEC2"
        },
        {
            "bufferView" : 35,
            "componentType" : 5123,
            "count" : 1290,
            "type" : "SCALAR"
        }
    ],
    "bufferViews" : [
        {
            "buffer" : 0,
            "byteLength" : 1368,
            "byteOffset" : 0
        },
        {
            "buffer" : 0,
            "byteLength" : 1368,
            "byteOffset" : 1368
        },
        {
            "buffer" : 0,
            "byteLength" : 912,
            "byteOffset" : 2736
        },
        {
            "buffer" : 0,
            "byteLength" : 432,
            "byteOffset" : 3648
        },
        {
            "buffer" : 0,
            "byteLength" : 1968,
            "byteOffset" : 4080
        },
        {
            "buffer" : 0,
            "byteLength" : 1968,
            "byteOffset" : 6048
        },
        {
            "buffer" : 0,
            "byteLength" : 1312,
            "byteOffset" : 8016
        },
        {
            "buffer" : 0,
            "byteLength" : 624,
            "byteOffset" : 9328
        },
        {
            "buffer" : 0,
            "byteLength" : 33576,
            "byteOffset" : 9952
        },
        {
            "buffer" : 0,
            "byteLength" : 33576,
            "byteOffset" : 43528
        },
        {
            "buffer" : 0,
            "byteLength" : 22384,
            "byteOffset" : 77104
        },
        {
            "buffer" : 0,
            "byteLength" : 8460,
            "byteOffset" : 99488
        },
        {
            "buffer" : 0,
            "byteLength" : 3648,
            "byteOffset" : 107948
        },
        {
            "buffer" : 0,
            "byteLength" : 3648,
            "byteOffset" : 111596
        },
        {
            "buffer" : 0,
            "byteLength" : 2432,
            "byteOffset" : 115244
        },
        {
            "buffer" : 0,
            "byteLength" : 984,
            "byteOffset" : 117676
        },
        {
            "buffer" : 0,
            "byteLength" : 20832,
            "byteOffset" : 118660
        },
        {
            "buffer" : 0,
            "byteLength" : 20832,
            "byteOffset" : 139492
        },
        {
            "buffer" : 0,
            "byteLength" : 13888,
            "byteOffset" : 160324
        },
        {
            "buffer" : 0,
            "byteLength" : 5568,
            "byteOffset" : 174212
        },
        {
            "buffer" : 0,
            "byteLength" : 43284,
            "byteOffset" : 179780
        },
        {
            "buffer" : 0,
            "byteLength" : 43284,
            "byteOffset" : 223064
        },
        {
            "buffer" : 0,
            "byteLength" : 28856,
            "byteOffset" : 266348
        },
        {
            "buffer" : 0,
            "byteLength" : 17208,
            "byteOffset" : 295204
        },
        {
            "buffer" : 0,
            "byteLength" : 3828,
            "byteOffset" : 312412
        },
        {
            "buffer" : 0,
            "byteLength" : 3828,
            "byteOffset" : 316240
        },
        {
            "buffer" : 0,
            "byteLength" : 2552,
            "byteOffset" : 320068
        },
        {
            "buffer" : 0,
            "byteLength" : 2208,
            "byteOffset" : 322620
        },
        {
            "buffer" : 0,
            "byteLength" : 26376,
            "byteOffset" : 324828
        },
        {
            "buffer" : 0,
            "byteLength" : 26376,
            "byteOffset" : 351204
        },
        {
            "buffer" : 0,
            "byteLength" : 17584,
            "byteOffset" : 377580
        },
        {
            "buffer" : 0,
            "byteLength" : 7386,
            "byteOffset" : 395164
        },
        {
            "buffer" : 0,
            "byteLength" : 7752,
            "byteOffset" : 402552
        },
        {
            "buffer" : 0,
            "byteLength" : 7752,
            "byteOffset" : 410304
        },
        {
            "buffer" : 0,
            "byteLength" : 5168,
            "byteOffset" : 418056
        },
        {
            "buffer" : 0,
            "byteLength" : 2580,
            "byteOffset" : 423224
        }
    ],
    "buffers" : [
        {
            "byteLength" : 425804,
            "uri" : "tower-1-laser.bin"
        }
    ]
}
