{
    "asset" : {
        "generator" : "Khronos glTF Blender I/O v0.9.36",
        "version" : "2.0"
    },
    "scene" : 0,
    "scenes" : [
        {
            "name" : "Scene",
            "nodes" : [
                34
            ]
        }
    ],
    "nodes" : [
        {
            "name" : "armIK L",
            "rotation" : [
                -0.5,
                0.4999999701976776,
                -0.4999999701976776,
                0.5
            ],
            "translation" : [
                3.6002047061920166,
                4.89304256439209,
                -0.07440926879644394
            ]
        },
        {
            "name" : "elbowPT L",
            "rotation" : [
                0,
                0.7071068286895752,
                0,
                0.7071068286895752
            ],
            "translation" : [
                2.393754482269287,
                5.771467685699463,
                2.8175830841064453
            ]
        },
        {
            "name" : "elbowPT R",
            "rotation" : [
                0,
                0.7071068286895752,
                0,
                0.7071068286895752
            ],
            "translation" : [
                -2.393754482269287,
                5.771467685699463,
                2.8175830841064453
            ]
        },
        {
            "name" : "head",
            "rotation" : [
                5.856874984999649e-09,
                4.319590463097711e-09,
                -0.03601856902241707,
                0.9993512034416199
            ],
            "translation" : [
                -1.4901161193847656e-08,
                0.4474043846130371,
                -4.380663820786109e-16
            ]
        },
        {
            "children" : [
                3
            ],
            "name" : "neck",
            "rotation" : [
                -1.632340373980412e-09,
                1.1461276727686709e-07,
                0.037446279078722,
                0.9992987513542175
            ],
            "translation" : [
                -7.450580596923828e-09,
                2.177887201309204,
                6.020849949519864e-16
            ]
        },
        {
            "name" : "fingers L",
            "rotation" : [
                -0.323297381401062,
                -0.38869479298591614,
                -0.2949923574924469,
                0.8107864856719971
            ],
            "translation" : [
                -1.1790129406108463e-07,
                0.3237249255180359,
                -2.9802322387695312e-08
            ]
        },
        {
            "name" : "thumb2 L",
            "rotation" : [
                0.06479652225971222,
                0.120899997651577,
                0.22193634510040283,
                0.9653646349906921
            ],
            "translation" : [
                -6.707941935246708e-08,
                0.18465106189250946,
                -6.593763828277588e-07
            ]
        },
        {
            "children" : [
                6
            ],
            "name" : "thumb1 L",
            "rotation" : [
                -0.3220375180244446,
                -0.4909261465072632,
                -0.41719958186149597,
                0.6937059760093689
            ],
            "scale" : [
                0.9999999403953552,
                0.9999998807907104,
                0.9999999403953552
            ],
            "translation" : [
                0.1356763392686844,
                0.0672120451927185,
                0.03207870572805405
            ]
        },
        {
            "children" : [
                5,
                7
            ],
            "name" : "hand L",
            "rotation" : [
                0.15453453361988068,
                0.45886313915252686,
                0.22186210751533508,
                0.8463693857192993
            ],
            "scale" : [
                1.0000001192092896,
                1.0000001192092896,
                1
            ],
            "translation" : [
                -1.497042489972955e-09,
                1.4941271543502808,
                -3.585591912269592e-08
            ]
        },
        {
            "children" : [
                8
            ],
            "name" : "forearm L",
            "rotation" : [
                0.013241955079138279,
                -0.04638892039656639,
                -0.034844208508729935,
                0.9982277750968933
            ],
            "translation" : [
                1.0597744903861894e-09,
                1.8271846771240234,
                -2.444721758365631e-07
            ]
        },
        {
            "children" : [
                9
            ],
            "name" : "arm L",
            "rotation" : [
                0.015627192333340645,
                -0.44067007303237915,
                -0.8969692587852478,
                0.03180903568863869
            ],
            "translation" : [
                0.013908994384109974,
                2.021851062774658,
                0.9474846720695496
            ]
        },
        {
            "name" : "fingers R",
            "rotation" : [
                0.3232975900173187,
                0.38869479298591614,
                -0.29499244689941406,
                0.8107863664627075
            ],
            "scale" : [
                1,
                1,
                1.0000001192092896
            ],
            "translation" : [
                2.983958893310046e-07,
                0.32372480630874634,
                2.2351741790771484e-08
            ]
        },
        {
            "name" : "thumb2 R",
            "rotation" : [
                -0.06479667127132416,
                -0.12090019136667252,
                0.22193646430969238,
                0.9653645753860474
            ],
            "scale" : [
                1.0000001192092896,
                1,
                1
            ],
            "translation" : [
                -7.05024376657093e-08,
                0.18465110659599304,
                -3.9301812648773193e-07
            ]
        },
        {
            "children" : [
                12
            ],
            "name" : "thumb1 R",
            "rotation" : [
                0.3220379054546356,
                0.4909261465072632,
                -0.41719961166381836,
                0.693705677986145
            ],
            "scale" : [
                1.0000001192092896,
                0.9999999403953552,
                1.0000001192092896
            ],
            "translation" : [
                0.13567620515823364,
                0.06721186637878418,
                -0.03207872062921524
            ]
        },
        {
            "children" : [
                11,
                13
            ],
            "name" : "hand R",
            "rotation" : [
                -0.15453492105007172,
                -0.45886316895484924,
                0.22186224162578583,
                0.8463692665100098
            ],
            "scale" : [
                1,
                1,
                0.9999999403953552
            ],
            "translation" : [
                1.0456119525770191e-08,
                1.4941273927688599,
                -4.591420292854309e-07
            ]
        },
        {
            "children" : [
                14
            ],
            "name" : "forearm R",
            "rotation" : [
                -0.013241820968687534,
                0.046389129012823105,
                -0.03484421595931053,
                0.9982277154922485
            ],
            "scale" : [
                0.9999999403953552,
                1.0000001192092896,
                1
            ],
            "translation" : [
                1.513379999096287e-08,
                1.8271842002868652,
                2.7939677238464355e-08
            ]
        },
        {
            "children" : [
                15
            ],
            "name" : "arm R",
            "rotation" : [
                -0.015627659857273102,
                0.44067031145095825,
                -0.8969692587852478,
                0.031808096915483475
            ],
            "scale" : [
                1.0000001192092896,
                1.0000001192092896,
                1.0000001192092896
            ],
            "translation" : [
                0.013908850960433483,
                2.0218517780303955,
                -0.9474846720695496
            ]
        },
        {
            "children" : [
                4,
                10,
                16
            ],
            "name" : "ribs",
            "rotation" : [
                5.807110903255364e-10,
                -1.1773746422250042e-07,
                -0.012449590489268303,
                0.999922513961792
            ],
            "scale" : [
                1,
                0.9999999403953552,
                1
            ],
            "translation" : [
                -3.725290298461914e-09,
                1.6470398902893066,
                2.220446049250313e-16
            ]
        },
        {
            "children" : [
                17
            ],
            "name" : "abdomen",
            "rotation" : [
                2.731747328343914e-10,
                1.199424133346838e-07,
                -0.006146114319562912,
                0.9999811053276062
            ],
            "translation" : [
                0,
                0.7046899795532227,
                0
            ]
        },
        {
            "name" : "foot L",
            "rotation" : [
                -0.6992631554603577,
                0.7148644328117371,
                -1.1134082342323381e-05,
                9.598439646651968e-06
            ],
            "scale" : [
                1.0000001192092896,
                1.000000238418579,
                1
            ],
            "translation" : [
                -1.0148113460672903e-09,
                1.3596395254135132,
                9.114845056501508e-08
            ]
        },
        {
            "children" : [
                19
            ],
            "name" : "leg L",
            "rotation" : [
                0.030019599944353104,
                -0.0028010481037199497,
                -0.050953447818756104,
                0.9982458353042603
            ],
            "scale" : [
                1,
                0.9999998807907104,
                0.9999998807907104
            ],
            "translation" : [
                2.0489096641540527e-08,
                1.10834538936615,
                7.101334631443024e-09
            ]
        },
        {
            "children" : [
                20
            ],
            "name" : "thigh L",
            "rotation" : [
                0.9994019269943237,
                -0.016937609761953354,
                0.0038339432794600725,
                0.02990219183266163
            ],
            "scale" : [
                1.0000083446502686,
                1.0000001192092896,
                1.0000261068344116
            ],
            "translation" : [
                0.12681357562541962,
                0.14478127658367157,
                0.5810953974723816
            ]
        },
        {
            "name" : "foot R",
            "rotation" : [
                -0.6992637515068054,
                0.7148637771606445,
                -5.217892066866625e-06,
                4.229671503708232e-06
            ],
            "scale" : [
                1,
                1,
                1.0000001192092896
            ],
            "translation" : [
                -1.0101878444856993e-08,
                1.359639286994934,
                1.2128445803227805e-07
            ]
        },
        {
            "children" : [
                22
            ],
            "name" : "leg R",
            "rotation" : [
                -0.029575806111097336,
                -0.0058508762158453465,
                -0.05121232196688652,
                0.9982326030731201
            ],
            "scale" : [
                0.9999998807907104,
                0.9999998211860657,
                0.9999998807907104
            ],
            "translation" : [
                -6.984919309616089e-09,
                1.1083449125289917,
                3.166496753692627e-08
            ]
        },
        {
            "children" : [
                23
            ],
            "name" : "thigh R",
            "rotation" : [
                -0.9994035959243774,
                0.016838472336530685,
                -0.004835406318306923,
                0.029756693169474602
            ],
            "scale" : [
                0.9999963045120239,
                1,
                0.9999880194664001
            ],
            "translation" : [
                0.12681348621845245,
                0.1447814255952835,
                -0.5810953974723816
            ]
        },
        {
            "children" : [
                18,
                21,
                24
            ],
            "name" : "hip",
            "rotation" : [
                -4.214685134229512e-08,
                0.7071068286895752,
                0,
                0.7071068286895752
            ],
            "scale" : [
                0.9999999403953552,
                0.9999998211860657,
                0.9999998807907104
            ],
            "translation" : [
                0,
                2.5159428119659424,
                0
            ]
        },
        {
            "name" : "armIK R",
            "rotation" : [
                -0.5,
                0.4999999701976776,
                -0.4999999701976776,
                0.5
            ],
            "translation" : [
                -3.6002047061920166,
                4.89304256439209,
                -0.07440926879644394
            ]
        },
        {
            "name" : "kneePT L",
            "rotation" : [
                0,
                0.7071068286895752,
                0,
                0.7071068286895752
            ],
            "translation" : [
                0.6472048163414001,
                1.5549789667129517,
                2.812129497528076
            ]
        },
        {
            "name" : "foorC L",
            "rotation" : [
                4.361396221952418e-08,
                5.388885337964666e-09,
                -0.9989727735519409,
                0.04531442001461983
            ],
            "scale" : [
                0.9999871850013733,
                0.9999999403953552,
                1
            ],
            "translation" : [
                4.15912282392128e-09,
                0,
                1.4989183227953617e-08
            ]
        },
        {
            "children" : [
                28
            ],
            "name" : "legIK L",
            "rotation" : [
                -0.5,
                0.4999999701976776,
                -0.4999999701976776,
                0.5
            ],
            "translation" : [
                0.6472048163414001,
                0.19853773713111877,
                -0.1827743500471115
            ]
        },
        {
            "name" : "footC R",
            "rotation" : [
                1.6275849645808194e-07,
                1.0793450577750718e-08,
                -0.9989727735519409,
                0.04531442001461983
            ],
            "scale" : [
                0.9999871850013733,
                0.9999999403953552,
                1
            ],
            "translation" : [
                -4.15912282392128e-09,
                0,
                1.4989183227953617e-08
            ]
        },
        {
            "children" : [
                30
            ],
            "name" : "legIK R",
            "rotation" : [
                -0.5,
                0.4999999701976776,
                -0.4999999701976776,
                0.5
            ],
            "translation" : [
                -0.6472048163414001,
                0.19853773713111877,
                -0.1827743500471115
            ]
        },
        {
            "name" : "kneePT R",
            "rotation" : [
                0,
                0.7071068286895752,
                0,
                0.7071068286895752
            ],
            "translation" : [
                -0.6472048163414001,
                1.5549789667129517,
                2.812129497528076
            ]
        },
        {
            "mesh" : 0,
            "name" : "Gou",
            "skin" : 0
        },
        {
            "children" : [
                33,
                0,
                1,
                2,
                25,
                26,
                27,
                29,
                31,
                32
            ],
            "name" : "Armature"
        }
    ],
    "materials" : [
        {
            "doubleSided" : true,
            "name" : "Material",
            "pbrMetallicRoughness" : {
                "baseColorTexture" : {
                    "index" : 0,
                    "texCoord" : 0
                },
                "metallicFactor" : 0,
                "roughnessFactor" : 0.6860464811325073
            }
        }
    ],
    "meshes" : [
        {
            "name" : "Cube.001",
            "primitives" : [
                {
                    "attributes" : {
                        "POSITION" : 0,
                        "NORMAL" : 1,
                        "TEXCOORD_0" : 2,
                        "JOINTS_0" : 3,
                        "WEIGHTS_0" : 4
                    },
                    "indices" : 5,
                    "material" : 0
                }
            ]
        }
    ],
    "textures" : [
        {
            "source" : 0
        }
    ],
    "images" : [
        {
            "mimeType" : "image/png",
            "name" : "Gou_Texture",
            "uri" : "Gou_Texture.png"
        }
    ],
    "skins" : [
        {
            "inverseBindMatrices" : 6,
            "joints" : [
                0,
                1,
                2,
                25,
                18,
                17,
                4,
                3,
                10,
                9,
                8,
                5,
                7,
                6,
                16,
                15,
                14,
                11,
                13,
                12,
                21,
                20,
                19,
                24,
                23,
                22,
                26,
                27,
                29,
                28,
                31,
                30,
                32
            ],
            "name" : "Armature"
        }
    ],
    "accessors" : [
        {
            "bufferView" : 0,
            "componentType" : 5126,
            "count" : 1781,
            "max" : [
                4.20057487487793,
                13.253955841064453,
                2.271965980529785
            ],
            "min" : [
                -4.20057487487793,
                0.0014525018632411957,
                -3.275451183319092
            ],
            "type" : "VEC3"
        },
        {
            "bufferView" : 1,
            "componentType" : 5126,
            "count" : 1781,
            "type" : "VEC3"
        },
        {
            "bufferView" : 2,
            "componentType" : 5126,
            "count" : 1781,
            "type" : "VEC2"
        },
        {
            "bufferView" : 3,
            "componentType" : 5123,
            "count" : 1781,
            "type" : "VEC4"
        },
        {
            "bufferView" : 4,
            "componentType" : 5126,
            "count" : 1781,
            "type" : "VEC4"
        },
        {
            "bufferView" : 5,
            "componentType" : 5123,
            "count" : 8880,
            "type" : "SCALAR"
        },
        {
            "bufferView" : 6,
            "componentType" : 5126,
            "count" : 33,
            "type" : "MAT4"
        }
    ],
    "bufferViews" : [
        {
            "buffer" : 0,
            "byteLength" : 21372,
            "byteOffset" : 0
        },
        {
            "buffer" : 0,
            "byteLength" : 21372,
            "byteOffset" : 21372
        },
        {
            "buffer" : 0,
            "byteLength" : 14248,
            "byteOffset" : 42744
        },
        {
            "buffer" : 0,
            "byteLength" : 14248,
            "byteOffset" : 56992
        },
        {
            "buffer" : 0,
            "byteLength" : 28496,
            "byteOffset" : 71240
        },
        {
            "buffer" : 0,
            "byteLength" : 17760,
            "byteOffset" : 99736
        },
        {
            "buffer" : 0,
            "byteLength" : 2112,
            "byteOffset" : 117496
        }
    ],
    "buffers" : [
        {
            "byteLength" : 119608,
            "uri" : "riggedMesh.bin"
        }
    ]
}
