{
    "asset" : {
        "generator" : "Khronos glTF Blender I/O v1.1.46",
        "version" : "2.0"
    },
    "scene" : 0,
    "scenes" : [
        {
            "name" : "Scene",
            "nodes" : [
                34
            ]
        }
    ],
    "nodes" : [
        {
            "name" : "armIK L",
            "rotation" : [
                -0.5,
                0.4999999701976776,
                -0.4999999701976776,
                0.5
            ],
            "translation" : [
                2.0897409915924072,
                3.882887125015259,
                -0.22809776663780212
            ]
        },
        {
            "name" : "elbowPT L",
            "rotation" : [
                0,
                0.7071068286895752,
                0,
                0.7071068286895752
            ],
            "translation" : [
                -2.382488250732422,
                5.961892604827881,
                3.123220205307007
            ]
        },
        {
            "name" : "elbowPT R",
            "rotation" : [
                0,
                0.7071068286895752,
                0,
                0.7071068286895752
            ],
            "translation" : [
                -0.4456993341445923,
                4.482276916503906,
                2.6770331859588623
            ]
        },
        {
            "name" : "head",
            "rotation" : [
                5.856874984999649e-09,
                4.319590907186921e-09,
                -0.036018576472997665,
                0.9993512034416199
            ],
            "scale" : [
                1,
                0.9999999403953552,
                1
            ],
            "translation" : [
                5.21540641784668e-08,
                0.4474043846130371,
                1.5999552401127276e-16
            ]
        },
        {
            "children" : [
                3
            ],
            "name" : "neck",
            "rotation" : [
                -1.6323395968242949e-09,
                1.146127814877218e-07,
                0.0374462865293026,
                0.9992987513542175
            ],
            "translation" : [
                0,
                2.177886724472046,
                5.106558351088836e-16
            ]
        },
        {
            "name" : "fingers L",
            "rotation" : [
                -0.32329729199409485,
                -0.3886948525905609,
                -0.2949923872947693,
                0.8107864856719971
            ],
            "scale" : [
                1,
                1.0000001192092896,
                1
            ],
            "translation" : [
                1.1084807738370728e-07,
                0.3237249255180359,
                9.685754776000977e-08
            ]
        },
        {
            "name" : "thumb2 L",
            "rotation" : [
                0.06479654461145401,
                0.12090002000331879,
                0.22193634510040283,
                0.9653646349906921
            ],
            "scale" : [
                1,
                0.9999998807907104,
                0.9999999403953552
            ],
            "translation" : [
                -1.5272482301043055e-07,
                0.1846511960029602,
                2.952292561531067e-07
            ]
        },
        {
            "children" : [
                6
            ],
            "name" : "thumb1 L",
            "rotation" : [
                -0.3220375180244446,
                -0.4909261167049408,
                -0.4171995520591736,
                0.6937059760093689
            ],
            "scale" : [
                1,
                1,
                1.0000001192092896
            ],
            "translation" : [
                0.13567660748958588,
                0.0672120451927185,
                0.0320788249373436
            ]
        },
        {
            "children" : [
                5,
                7
            ],
            "name" : "hand L",
            "rotation" : [
                0.15453453361988068,
                0.4588630497455597,
                0.2218620479106903,
                0.8463693261146545
            ],
            "scale" : [
                1,
                1.0000001192092896,
                1.0000001192092896
            ],
            "translation" : [
                1.4897317157647194e-08,
                1.4941273927688599,
                -2.7334317564964294e-07
            ]
        },
        {
            "children" : [
                8
            ],
            "name" : "forearm L",
            "rotation" : [
                0.01324194110929966,
                -0.04638892039656639,
                -0.034844208508729935,
                0.9982277750968933
            ],
            "scale" : [
                1,
                0.9999999403953552,
                1
            ],
            "translation" : [
                -4.923990104543918e-09,
                1.8271845579147339,
                7.110647857189178e-07
            ]
        },
        {
            "children" : [
                9
            ],
            "name" : "arm L",
            "rotation" : [
                0.01562766171991825,
                -0.44067007303237915,
                -0.8969692587852478,
                0.03180857375264168
            ],
            "scale" : [
                1,
                1,
                0.9999999403953552
            ],
            "translation" : [
                0.01390900183469057,
                2.021851062774658,
                0.9474846720695496
            ]
        },
        {
            "name" : "fingers R",
            "rotation" : [
                0.32329732179641724,
                0.3886948227882385,
                -0.2949923574924469,
                0.8107866048812866
            ],
            "scale" : [
                0.9999999403953552,
                0.9999998807907104,
                0.9999999403953552
            ],
            "translation" : [
                -2.934452822955791e-07,
                0.32372498512268066,
                2.60770320892334e-07
            ]
        },
        {
            "name" : "thumb2 R",
            "rotation" : [
                -0.06479663401842117,
                -0.12090014666318893,
                0.2219364196062088,
                0.9653645753860474
            ],
            "scale" : [
                0.9999998807907104,
                1,
                0.9999998807907104
            ],
            "translation" : [
                2.088340806949418e-07,
                0.1846507042646408,
                4.3213367462158203e-07
            ]
        },
        {
            "children" : [
                12
            ],
            "name" : "thumb1 R",
            "rotation" : [
                0.32203760743141174,
                0.4909261465072632,
                -0.41719958186149597,
                0.6937058568000793
            ],
            "scale" : [
                0.9999998807907104,
                0.9999998807907104,
                1
            ],
            "translation" : [
                0.13567620515823364,
                0.06721210479736328,
                -0.03207869827747345
            ]
        },
        {
            "children" : [
                11,
                13
            ],
            "name" : "hand R",
            "rotation" : [
                -0.15453456342220306,
                -0.45886310935020447,
                0.2218620777130127,
                0.8463692665100098
            ],
            "scale" : [
                1,
                0.9999999403953552,
                1
            ],
            "translation" : [
                -4.468049041861377e-08,
                1.4941270351409912,
                1.816079020500183e-08
            ]
        },
        {
            "children" : [
                14
            ],
            "name" : "forearm R",
            "rotation" : [
                -0.013241947628557682,
                0.04638911038637161,
                -0.03484421595931053,
                0.9982277154922485
            ],
            "scale" : [
                0.9999999403953552,
                1,
                1
            ],
            "translation" : [
                -4.458716063027168e-08,
                1.827184796333313,
                -9.220093488693237e-08
            ]
        },
        {
            "children" : [
                15
            ],
            "name" : "arm R",
            "rotation" : [
                -0.01562625542283058,
                0.4406702220439911,
                -0.896969199180603,
                0.03180857002735138
            ],
            "scale" : [
                1.0000001192092896,
                1.0000001192092896,
                1
            ],
            "translation" : [
                0.013908828608691692,
                2.0218517780303955,
                -0.9474846720695496
            ]
        },
        {
            "children" : [
                4,
                10,
                16
            ],
            "name" : "ribs",
            "rotation" : [
                1.780762648451173e-09,
                -1.1878131545017823e-07,
                -0.011850560083985329,
                0.9999297857284546
            ],
            "scale" : [
                0.9999999403953552,
                1,
                1
            ],
            "translation" : [
                -5.587935447692871e-09,
                1.6470398902893066,
                -3.134736853587953e-16
            ]
        },
        {
            "children" : [
                17
            ],
            "name" : "abdomen",
            "rotation" : [
                2.731747328343914e-10,
                1.199424133346838e-07,
                -0.006146113853901625,
                0.9999811053276062
            ],
            "translation" : [
                0,
                0.7046899795532227,
                0
            ]
        },
        {
            "name" : "foot L",
            "rotation" : [
                -0.6992630958557129,
                0.7148644328117371,
                -1.1070822438341565e-05,
                9.513220902590547e-06
            ],
            "scale" : [
                1,
                1.0000001192092896,
                1
            ],
            "translation" : [
                -1.8469421547706588e-08,
                1.3596394062042236,
                -1.2052367992509971e-08
            ]
        },
        {
            "children" : [
                19
            ],
            "name" : "leg L",
            "rotation" : [
                0.03001958690583706,
                -0.002801003400236368,
                -0.050953466445207596,
                0.9982458353042603
            ],
            "scale" : [
                1,
                0.9999998807907104,
                0.9999999403953552
            ],
            "translation" : [
                -6.51925802230835e-09,
                1.1083451509475708,
                -6.420304998755455e-08
            ]
        },
        {
            "children" : [
                20
            ],
            "name" : "thigh L",
            "rotation" : [
                0.9994019865989685,
                -0.016935862600803375,
                0.003833912080153823,
                0.029901692643761635
            ],
            "scale" : [
                1.0000083446502686,
                1.0000001192092896,
                1.0000258684158325
            ],
            "translation" : [
                0.12681356072425842,
                0.14478103816509247,
                0.5810953974723816
            ]
        },
        {
            "name" : "foot R",
            "rotation" : [
                -0.6992637515068054,
                0.7148637771606445,
                -5.280268396745669e-06,
                4.314890702517005e-06
            ],
            "translation" : [
                -6.21131590605728e-09,
                1.359639286994934,
                3.917283208920708e-08
            ]
        },
        {
            "children" : [
                22
            ],
            "name" : "leg R",
            "rotation" : [
                -0.029575811699032784,
                -0.005850861314684153,
                -0.051212333142757416,
                0.9982326626777649
            ],
            "scale" : [
                0.9999998807907104,
                0.9999998211860657,
                0.9999999403953552
            ],
            "translation" : [
                1.1641532182693481e-08,
                1.1083449125289917,
                -1.1932570487260818e-08
            ]
        },
        {
            "children" : [
                23
            ],
            "name" : "thigh R",
            "rotation" : [
                -0.9994036555290222,
                0.01683671586215496,
                -0.004835342522710562,
                0.029756689444184303
            ],
            "scale" : [
                0.9999961853027344,
                1,
                0.9999879002571106
            ],
            "translation" : [
                0.12681347131729126,
                0.1447814255952835,
                -0.5810953974723816
            ]
        },
        {
            "children" : [
                18,
                21,
                24
            ],
            "name" : "hip",
            "rotation" : [
                -4.214685134229512e-08,
                0.7071068286895752,
                0,
                0.7071068286895752
            ],
            "scale" : [
                0.9999999403953552,
                0.9999998211860657,
                0.9999998807907104
            ],
            "translation" : [
                0,
                2.500127077102661,
                0
            ]
        },
        {
            "name" : "armIK R",
            "rotation" : [
                -0.5,
                0.4999999701976776,
                -0.4999999701976776,
                0.5
            ],
            "translation" : [
                -2.028620481491089,
                3.8602163791656494,
                0.22672149538993835
            ]
        },
        {
            "name" : "kneePT L",
            "rotation" : [
                0,
                0.7071068286895752,
                0,
                0.7071068286895752
            ],
            "translation" : [
                -0.5916673541069031,
                1.5549789667129517,
                2.812129497528076
            ]
        },
        {
            "name" : "foorC L",
            "rotation" : [
                4.361396221952418e-08,
                5.388885337964666e-09,
                -0.9989727735519409,
                0.04531442001461983
            ],
            "scale" : [
                0.9999871850013733,
                0.9999999403953552,
                1
            ],
            "translation" : [
                4.15912282392128e-09,
                0,
                1.4989183227953617e-08
            ]
        },
        {
            "children" : [
                28
            ],
            "name" : "legIK L",
            "rotation" : [
                -0.5047599077224731,
                0.49520906805992126,
                -0.5054251551628113,
                0.4945007562637329
            ],
            "translation" : [
                0.6472080945968628,
                0.20139111578464508,
                0.20724479854106903
            ]
        },
        {
            "name" : "footC R",
            "rotation" : [
                1.6275849645808194e-07,
                1.0793450577750718e-08,
                -0.9989727735519409,
                0.04531442001461983
            ],
            "scale" : [
                0.9999871850013733,
                0.9999999403953552,
                1
            ],
            "translation" : [
                -4.15912282392128e-09,
                0,
                1.4989183227953617e-08
            ]
        },
        {
            "children" : [
                30
            ],
            "name" : "legIK R",
            "rotation" : [
                -0.43446779251098633,
                0.558032751083374,
                -0.4350453317165375,
                0.5572905540466309
            ],
            "translation" : [
                -0.6472080945968628,
                0.318990021944046,
                -0.22041618824005127
            ]
        },
        {
            "name" : "kneePT R",
            "rotation" : [
                0,
                0.7071068286895752,
                0,
                0.7071068286895752
            ],
            "translation" : [
                1.2053675651550293,
                1.5549789667129517,
                2.812129497528076
            ]
        },
        {
            "mesh" : 0,
            "name" : "Gou",
            "skin" : 0
        },
        {
            "children" : [
                33,
                0,
                1,
                2,
                25,
                26,
                27,
                29,
                31,
                32
            ],
            "name" : "Armature"
        }
    ],
    "materials" : [
        {
            "doubleSided" : true,
            "emissiveFactor" : [
                0,
                0,
                0
            ],
            "name" : "Material",
            "pbrMetallicRoughness" : {
                "baseColorTexture" : {
                    "index" : 0,
                    "texCoord" : 0
                },
                "metallicFactor" : 0,
                "roughnessFactor" : 0.6860464811325073
            }
        }
    ],
    "meshes" : [
        {
            "name" : "Cube.001",
            "primitives" : [
                {
                    "attributes" : {
                        "POSITION" : 0,
                        "NORMAL" : 1,
                        "TEXCOORD_0" : 2,
                        "JOINTS_0" : 3,
                        "WEIGHTS_0" : 4
                    },
                    "indices" : 5,
                    "material" : 0
                }
            ]
        }
    ],
    "textures" : [
        {
            "source" : 0
        }
    ],
    "images" : [
        {
            "mimeType" : "image/png",
            "name" : "Gou_Texture",
            "uri" : "Gou_Texture.png"
        }
    ],
    "skins" : [
        {
            "inverseBindMatrices" : 6,
            "joints" : [
                0,
                1,
                2,
                25,
                18,
                17,
                4,
                3,
                10,
                9,
                8,
                5,
                7,
                6,
                16,
                15,
                14,
                11,
                13,
                12,
                21,
                20,
                19,
                24,
                23,
                22,
                26,
                27,
                29,
                28,
                31,
                30,
                32
            ],
            "name" : "Armature"
        }
    ],
    "accessors" : [
        {
            "bufferView" : 0,
            "componentType" : 5126,
            "count" : 1781,
            "max" : [
                4.20057487487793,
                13.253955841064453,
                2.271965980529785
            ],
            "min" : [
                -4.20057487487793,
                0.0014525018632411957,
                -3.275451183319092
            ],
            "type" : "VEC3"
        },
        {
            "bufferView" : 1,
            "componentType" : 5126,
            "count" : 1781,
            "type" : "VEC3"
        },
        {
            "bufferView" : 2,
            "componentType" : 5126,
            "count" : 1781,
            "type" : "VEC2"
        },
        {
            "bufferView" : 3,
            "componentType" : 5123,
            "count" : 1781,
            "type" : "VEC4"
        },
        {
            "bufferView" : 4,
            "componentType" : 5126,
            "count" : 1781,
            "type" : "VEC4"
        },
        {
            "bufferView" : 5,
            "componentType" : 5123,
            "count" : 8880,
            "type" : "SCALAR"
        },
        {
            "bufferView" : 6,
            "componentType" : 5126,
            "count" : 33,
            "type" : "MAT4"
        }
    ],
    "bufferViews" : [
        {
            "buffer" : 0,
            "byteLength" : 21372,
            "byteOffset" : 0
        },
        {
            "buffer" : 0,
            "byteLength" : 21372,
            "byteOffset" : 21372
        },
        {
            "buffer" : 0,
            "byteLength" : 14248,
            "byteOffset" : 42744
        },
        {
            "buffer" : 0,
            "byteLength" : 14248,
            "byteOffset" : 56992
        },
        {
            "buffer" : 0,
            "byteLength" : 28496,
            "byteOffset" : 71240
        },
        {
            "buffer" : 0,
            "byteLength" : 17760,
            "byteOffset" : 99736
        },
        {
            "buffer" : 0,
            "byteLength" : 2112,
            "byteOffset" : 117496
        }
    ],
    "buffers" : [
        {
            "byteLength" : 119608,
            "uri" : "riggedMesh.bin"
        }
    ]
}
