{
    "asset" : {
        "generator" : "Khronos glTF Blender I/O v1.1.46",
        "version" : "2.0"
    },
    "scene" : 0,
    "scenes" : [
        {
            "name" : "Scene",
            "nodes" : [
                13
            ]
        }
    ],
    "nodes" : [
        {
            "name" : "Bone.009",
            "rotation" : [
                0.0014630506047978997,
                -5.595753907837763e-23,
                -3.249149677977866e-19,
                0.999998927116394
            ],
            "translation" : [
                -3.169135721843787e-23,
                0.5372645258903503,
                -1.4901161193847656e-08
            ]
        },
        {
            "children" : [
                0
            ],
            "name" : "Bone.008",
            "rotation" : [
                -0.0014630552614107728,
                7.105623022211818e-15,
                -2.1668982145116723e-16,
                0.999998927116394
            ],
            "scale" : [
                1,
                1,
                0.9999999403953552
            ],
            "translation" : [
                1.5881867761018131e-22,
                0.5047723054885864,
                -2.9802322387695312e-08
            ]
        },
        {
            "children" : [
                1
            ],
            "name" : "Bone.007",
            "rotation" : [
                -0.008038636296987534,
                1.1920542419829872e-07,
                9.58279455787192e-10,
                0.9999676942825317
            ],
            "translation" : [
                -7.605332650543334e-15,
                0.5052312612533569,
                0
            ]
        },
        {
            "children" : [
                2
            ],
            "name" : "Bone.006",
            "rotation" : [
                -0.021424397826194763,
                -1.1918191944459977e-07,
                2.553987021869375e-09,
                0.9997705221176147
            ],
            "scale" : [
                1,
                1.0000001192092896,
                1.0000001192092896
            ],
            "translation" : [
                7.548023089546378e-24,
                0.5316348671913147,
                0
            ]
        },
        {
            "children" : [
                3
            ],
            "name" : "Bone.005",
            "rotation" : [
                -0.013520880602300167,
                -7.917100489435405e-26,
                3.0022330081071252e-18,
                0.9999086260795593
            ],
            "scale" : [
                1,
                0.9999999403953552,
                0.9999999403953552
            ],
            "translation" : [
                9.305781891221561e-24,
                0.6072360277175903,
                5.960464477539063e-08
            ]
        },
        {
            "children" : [
                4
            ],
            "name" : "Bone.004",
            "rotation" : [
                -0.019788583740592003,
                8.208789944268959e-25,
                4.3939515674281e-18,
                0.9998041987419128
            ],
            "scale" : [
                1,
                0.9999999403953552,
                0.9999998807907104
            ],
            "translation" : [
                -1.9852334701272664e-23,
                0.6109815239906311,
                1.4901161193847656e-08
            ]
        },
        {
            "children" : [
                5
            ],
            "name" : "Bone.003",
            "rotation" : [
                -0.032348424196243286,
                8.27613697189994e-25,
                7.182798033685839e-18,
                0.9994766712188721
            ],
            "translation" : [
                1.0339757656912846e-24,
                0.61931312084198,
                -2.9802322387695312e-08
            ]
        },
        {
            "children" : [
                6
            ],
            "name" : "Bone.002",
            "rotation" : [
                0.0069490415044128895,
                -7.238004895314272e-25,
                -1.5429896274319157e-18,
                0.999975860118866
            ],
            "scale" : [
                1,
                0.9999999403953552,
                1
            ],
            "translation" : [
                1.5716431638507526e-23,
                0.5839191675186157,
                -2.9802322387695312e-08
            ]
        },
        {
            "children" : [
                7
            ],
            "name" : "Bone.001",
            "rotation" : [
                0.019052041694521904,
                -2.0415002806265935e-17,
                -1.8516549185073852e-16,
                0.9998185038566589
            ],
            "scale" : [
                1,
                1,
                0.9999999403953552
            ],
            "translation" : [
                1.5716431638507526e-23,
                0.6123977899551392,
                0
            ]
        },
        {
            "children" : [
                8
            ],
            "name" : "Bone",
            "rotation" : [
                -0.7657707929611206,
                1.4035482843280546e-16,
                1.7336744786111918e-16,
                0.6431135535240173
            ],
            "scale" : [
                1,
                0.9999999403953552,
                1
            ],
            "translation" : [
                -2.6998592858579586e-17,
                -0.05291032791137695,
                -0.3711129426956177
            ]
        },
        {
            "name" : "Head",
            "rotation" : [
                -0.21614296734333038,
                -1.1639139074759441e-07,
                2.5766249578396128e-08,
                0.9763617515563965
            ],
            "scale" : [
                1,
                1.0000001192092896,
                1
            ],
            "translation" : [
                -2.6469779601696886e-23,
                1.9375998973846436,
                0
            ]
        },
        {
            "children" : [
                9,
                10
            ],
            "name" : "Root",
            "rotation" : [
                0.17917054891586304,
                -5.790775816361997e-17,
                -5.790775816361997e-17,
                0.9838181138038635
            ]
        },
        {
            "mesh" : 0,
            "name" : "Cube",
            "skin" : 0
        },
        {
            "children" : [
                12,
                11
            ],
            "name" : "Armature"
        }
    ],
    "materials" : [
        {
            "doubleSided" : true,
            "emissiveFactor" : [
                0,
                0,
                0
            ],
            "name" : "Material",
            "pbrMetallicRoughness" : {
                "baseColorTexture" : {
                    "index" : 0,
                    "texCoord" : 0
                },
                "metallicFactor" : 0,
                "roughnessFactor" : 0.4000000059604645
            }
        }
    ],
    "meshes" : [
        {
            "name" : "Cube",
            "primitives" : [
                {
                    "attributes" : {
                        "POSITION" : 0,
                        "NORMAL" : 1,
                        "TEXCOORD_0" : 2,
                        "JOINTS_0" : 3,
                        "WEIGHTS_0" : 4
                    },
                    "indices" : 5,
                    "material" : 0
                }
            ]
        }
    ],
    "textures" : [
        {
            "source" : 0
        }
    ],
    "images" : [
        {
            "mimeType" : "image/png",
            "name" : "kyubei_tex",
            "uri" : "kyubei_tex.png"
        }
    ],
    "skins" : [
        {
            "inverseBindMatrices" : 6,
            "joints" : [
                11,
                9,
                8,
                7,
                6,
                5,
                4,
                3,
                2,
                1,
                0,
                10
            ],
            "name" : "Armature"
        }
    ],
    "accessors" : [
        {
            "bufferView" : 0,
            "componentType" : 5126,
            "count" : 21990,
            "max" : [
                1.6253340244293213,
                3.7260828018188477,
                1.4095429182052612
            ],
            "min" : [
                -1.6253340244293213,
                -0.0001873969886219129,
                -6.550581455230713
            ],
            "type" : "VEC3"
        },
        {
            "bufferView" : 1,
            "componentType" : 5126,
            "count" : 21990,
            "type" : "VEC3"
        },
        {
            "bufferView" : 2,
            "componentType" : 5126,
            "count" : 21990,
            "type" : "VEC2"
        },
        {
            "bufferView" : 3,
            "componentType" : 5123,
            "count" : 21990,
            "type" : "VEC4"
        },
        {
            "bufferView" : 4,
            "componentType" : 5126,
            "count" : 21990,
            "type" : "VEC4"
        },
        {
            "bufferView" : 5,
            "componentType" : 5123,
            "count" : 107088,
            "type" : "SCALAR"
        },
        {
            "bufferView" : 6,
            "componentType" : 5126,
            "count" : 12,
            "type" : "MAT4"
        }
    ],
    "bufferViews" : [
        {
            "buffer" : 0,
            "byteLength" : 263880,
            "byteOffset" : 0
        },
        {
            "buffer" : 0,
            "byteLength" : 263880,
            "byteOffset" : 263880
        },
        {
            "buffer" : 0,
            "byteLength" : 175920,
            "byteOffset" : 527760
        },
        {
            "buffer" : 0,
            "byteLength" : 175920,
            "byteOffset" : 703680
        },
        {
            "buffer" : 0,
            "byteLength" : 351840,
            "byteOffset" : 879600
        },
        {
            "buffer" : 0,
            "byteLength" : 214176,
            "byteOffset" : 1231440
        },
        {
            "buffer" : 0,
            "byteLength" : 768,
            "byteOffset" : 1445616
        }
    ],
    "buffers" : [
        {
            "byteLength" : 1446384,
            "uri" : "riggedMesh.bin"
        }
    ]
}
